<svg xmlns="http://www.w3.org/2000/svg" width="151.1" height="16.9" viewBox="0 0 151.1 16.9">
  <defs>
    <style>
      .cls-1 {
        isolation: isolate;
      }

      .cls-2 {
        fill: #fff;
      }

      .cls-3 {
        fill: #ee741f;
      }
    </style>
  </defs>
  <title>Asset 1</title>
  <g id="Layer_2" data-name="Layer 2">
    <g id="Layer_1-2" data-name="Layer 1">
      <g>
        <g class="cls-1">
          <path class="cls-2" d="M28.1,4.1v-2h9.6v2H33.9V14.6H31.8V4.1Z"/>
          <path class="cls-2" d="M49.8,14.6H47.6V9.2H41.8v5.4H39.7V2.1h2.1V7.3h5.8V2.1h2.2Z"/>
          <path class="cls-2" d="M61.5,14.6H52.8V2.1h8.7v2H54.9V7.3h6.3V9.2H54.9v3.5h6.6Z"/>
          <path class="cls-2" d="M63.5,8.3a6.1,6.1,0,0,1,1.8-4.5,6.3,6.3,0,0,1,9,0,6.2,6.2,0,0,1,1.9,4.5,6.5,6.5,0,0,1-1.3,3.9l1.4,1.4L74.9,15l-1.4-1.4a6.1,6.1,0,0,1-3.7,1.2,6.3,6.3,0,0,1-6.3-6.5Zm8.6,3.9-1.6-1.6,1.4-1.4,1.5,1.6A4.9,4.9,0,0,0,74,8.3a4.7,4.7,0,0,0-1.1-3.1,4.1,4.1,0,0,0-6,0,4.3,4.3,0,0,0-1.2,3.1,4.8,4.8,0,0,0,1.2,3.3,4.1,4.1,0,0,0,3,1.2A4.3,4.3,0,0,0,72.1,12.2Z"/>
          <path class="cls-2" d="M86.3,9.1v-7h2.1v7a6,6,0,0,1-1.3,4.2,5.3,5.3,0,0,1-7.4,0,6,6,0,0,1-1.3-4.2v-7h2.1v7c0,2.5,1,3.7,2.9,3.7S86.3,11.6,86.3,9.1Z"/>
          <path class="cls-2" d="M94.1,2.1h2.1L101,14.6H98.8l-1-2.7H92.5l-1.1,2.7H89.2ZM97,10,95.1,5l-1.9,5Z"/>
          <path class="cls-2" d="M113.1,14.6H111l-6.2-8.8v8.8h-2.1V2.1h2.1l6.2,8.8V2.1h2.1Z"/>
          <path class="cls-2" d="M115.1,4.1v-2h9.6v2h-3.8V14.6h-2.1V4.1Z"/>
          <path class="cls-2" d="M134.4,9.1v-7h2.1v7a6,6,0,0,1-1.3,4.2,4.7,4.7,0,0,1-3.7,1.5,4.8,4.8,0,0,1-3.7-1.5,6,6,0,0,1-1.3-4.2v-7h2.1v7c0,2.5,1,3.7,2.9,3.7S134.4,11.6,134.4,9.1Z"/>
          <path class="cls-2" d="M146.1,11.8h-2l-2.8-5.4v8.2h-2.1V2.1h2.2l3.7,7.4,3.8-7.4h2.2V14.6H149V6.4Z"/>
        </g>
        <g id="Group-13">
          <g id="Oval">
            <path class="cls-2" d="M8.5,0A8.5,8.5,0,1,1,0,8.5,8.5,8.5,0,0,1,8.5,0Zm0,15.8A7.4,7.4,0,1,0,1.1,8.5,7.3,7.3,0,0,0,8.5,15.8Z"/>
          </g>
          <g id="Oval-Copy">
            <circle class="cls-3" cx="16" cy="8.5" r="7.9"/>
          </g>
        </g>
      </g>
    </g>
  </g>
</svg>
