<svg xmlns="http://www.w3.org/2000/svg" width="94" height="57" viewBox="0 0 94 57">
  <defs>
    <style>
      .cls-1 {
        fill: #ffa000;
      }

      .cls-2 {
        fill: #f98700;
      }

      .cls-3 {
        fill: #ffd200;
      }

      .cls-4 {
        fill: #fb5c00;
      }

      .cls-5 {
        fill: #ffa600;
      }

      .cls-6 {
        fill: #f7b600;
      }

      .cls-7 {
        fill: #ffa400;
      }
    </style>
  </defs>
  <title>Asset 11</title>
  <g id="Layer_2" data-name="Layer 2">
    <g id="Layer_1-2" data-name="Layer 1">
      <g>
        <path class="cls-1" d="M19,27a29,29,0,0,1,.9-5.9H18a18,18,0,0,0-1,35.9V27Z"/>
        <path class="cls-2" d="M94,39A18.1,18.1,0,0,0,76,21H74.1A29,29,0,0,1,75,27h4V56.7A18,18,0,0,0,94,39Z"/>
        <path class="cls-3" d="M31.4,27H62.6a18.4,18.4,0,0,1,11.5-5.9,28,28,0,0,0-54.2,0A18.4,18.4,0,0,1,31.4,27Z"/>
        <path class="cls-4" d="M31.4,27a18.4,18.4,0,0,0-11.5-5.9A29,29,0,0,0,19,27Z"/>
        <path class="cls-5" d="M62.6,27H75a29,29,0,0,0-.9-5.9A18.4,18.4,0,0,0,62.6,27Z"/>
        <path class="cls-2" d="M62.7,51.2a28.1,28.1,0,0,1-31.4,0A18.3,18.3,0,0,1,18,57H76A18.3,18.3,0,0,1,62.7,51.2Z"/>
        <path class="cls-6" d="M79,57v-.3a15.3,15.3,0,0,1-3,.3Z"/>
        <path class="cls-6" d="M17,57h0Z"/>
        <path class="cls-7" d="M31.3,51.2A28.2,28.2,0,0,1,19,28V27H17V56.9h1A18.3,18.3,0,0,0,31.3,51.2Z"/>
        <path class="cls-2" d="M75,27v1A28.2,28.2,0,0,1,62.7,51.2,18.3,18.3,0,0,0,76,57a15.3,15.3,0,0,0,3-.3V27Z"/>
        <path class="cls-3" d="M62.6,27H31.4a18.1,18.1,0,0,1-.1,24.2,28.1,28.1,0,0,0,31.4,0A18.1,18.1,0,0,1,62.6,27Z"/>
        <path class="cls-4" d="M31.4,27H19v1A28.2,28.2,0,0,0,31.3,51.2,18.1,18.1,0,0,0,31.4,27Z"/>
        <path class="cls-5" d="M58,39a18.4,18.4,0,0,0,4.7,12.2A28.2,28.2,0,0,0,75,28V27H62.6A18.2,18.2,0,0,0,58,39Z"/>
      </g>
    </g>
  </g>
</svg>
