<svg xmlns="http://www.w3.org/2000/svg" width="108.2" height="22.5" viewBox="0 0 108.2 22.5">
  <defs>
    <style>
      .cls-1 {
        fill: #ec1c24;
        fill-rule: evenodd;
      }
    </style>
  </defs>
  <title>Asset 6</title>
  <g id="Layer_2" data-name="Layer 2">
    <g id="Layer_1-2" data-name="Layer 1">
      <g>
        <path class="cls-1" d="M8.5,16A10.1,10.1,0,0,0,17,20.7c5.2,0,8.1-4.5,8.1-4.5h0l.3,1.2h0c-2.4,3.2-6.7,5.1-11.5,5.1S3.5,19.8,1.3,16A10.2,10.2,0,0,1,0,11.2C0,5,6.2,0,13.9,0c5.4,0,9.7,2.3,12,5.7h0l-9.1,5.4L22,3.2h0a9.6,9.6,0,0,0-5.2-1.8,9.8,9.8,0,0,0-9.7,9.7A10,10,0,0,0,8.5,16Z"/>
        <path class="cls-1" d="M32.8,16v.5a3.7,3.7,0,1,0,7.3,0V16a3.7,3.7,0,0,0-7.3,0Zm13.6,0,1.8,6.1H41.8l-1.2-4.2h0c-.8,2.4-3.7,4.2-7,4.2s-7.3-2.5-7.3-5.7V16c.3-2.9,3.4-5.3,7.3-5.3a8.1,8.1,0,0,1,5.4,2h0L37.3,6.9H30s1.2-.8,6.6-2.7,7.1,2.7,7.1,2.7h0L46.4,16Z"/>
        <path class="cls-1" d="M66.8,16v6.1H60.2V8.7h0a1.8,1.8,0,0,0-1.8-1.8A1.6,1.6,0,0,0,56.8,8h0V22.1H50.3V6.9H46.6s5.2-3.2,7-3.2a3.1,3.1,0,0,1,3.1,3c2.6-1.4,5.1-3,6.8-3a3.3,3.3,0,0,1,3.3,3.2h0V16Z"/>
        <path class="cls-1" d="M76.9,16l.9,3h0a2.3,2.3,0,0,0,2.4,2.3,2.4,2.4,0,0,0,2.4-2.4v-.3h0L81.8,16,79.1,6.7h0a2.6,2.6,0,0,0-2.4-2.2,2.9,2.9,0,0,0-2.6,2.4h0L76.9,16Zm10.4,0a9.5,9.5,0,0,1-9,6.5A9.4,9.4,0,0,1,69.4,16a9.9,9.9,0,0,1-.5-3,9.5,9.5,0,0,1,18.9,0,9.9,9.9,0,0,1-.5,3Z"/>
        <path class="cls-1" d="M98.2,16v6.1H91.7V6.9H88.1S93.2,3.7,95,3.7a3.1,3.1,0,0,1,3.1,3c2.6-1.4,5.1-3,6.8-3a3.3,3.3,0,0,1,3.3,3.2h0V22.1h-6.6V8.7h0a1.8,1.8,0,0,0-1.8-1.8A1.6,1.6,0,0,0,98.2,8h0v8Z"/>
      </g>
    </g>
  </g>
</svg>
