<svg xmlns="http://www.w3.org/2000/svg" width="615" height="370.2" viewBox="0 0 615 370.2">
  <defs>
    <style>
      .cls-1 {
        fill: #bae8e2;
      }

      .cls-2 {
        fill: #f7b600;
      }

      .cls-3 {
        fill: #dc8527;
      }

      .cls-4 {
        fill: #ee741f;
      }

      .cls-5 {
        fill: #00d4ba;
      }

      .cls-6 {
        fill: #00b7b2;
      }

      .cls-7 {
        fill: #0088de;
      }

      .cls-8 {
        fill: #0047c3;
      }

      .cls-9 {
        fill: #e7ffff;
      }

      .cls-10 {
        opacity: 0.63;
      }

      .cls-11 {
        fill: #fff;
      }

      .cls-12 {
        fill: #00e5d2;
      }

      .cls-13 {
        fill: #67b73e;
      }
    </style>
  </defs>
  <title>Asset 2</title>
  <g id="Layer_2" data-name="Layer 2">
    <g id="Layer_1-2" data-name="Layer 1">
      <g>
        <g id="o7zSZe.tif">
          <path class="cls-1" d="M313.4,363a21.7,21.7,0,0,1-.7,2.4,6.4,6.4,0,0,1-7.3,4.8c-3.3-.4-5.5-2.7-5.3-6.5s.9-10.4,1.5-15.6q5.3-46.5,10.7-93,5.6-48.3,11.2-96.8c3.3-28.8,6.5-57.7,9.9-86.6,1.6-14,3.1-27.9,4.8-41.9a5.4,5.4,0,0,0-1.9-5.5,14,14,0,0,1-.9-19.8,14.2,14.2,0,0,1,19.8-.9,13.9,13.9,0,0,1,1,19.8,6.2,6.2,0,0,0-1.7,5.4l11.4,97.1c3.9,33.8,7.9,67.7,11.8,101.5l9.9,85c1.8,15.5,3.6,30.9,5.5,46.4a54.8,54.8,0,0,1,.5,5.7c0,4.5-3.5,6.9-7.6,4.8-2.4-1.2-4.5-3.2-6.8-4.7a7.7,7.7,0,0,0-3.7-1.4l-60.7-.4Zm57.1-96.6-50.8,38.2,59.6,44.9C376.4,321.5,373.4,294.3,370.5,266.4Zm-49.6,23.3,43.6-33-37.3-28.1C325.1,249.1,323,268.9,320.9,289.7Zm-3.1,27.6c-1.3,12.9-2.5,25.2-3.8,37.8h52.9Zm11.9-101,38.5,29.1c-1.9-18.2-3.7-35.6-5.6-53.7Zm4.4-53.7L330,202.1c9.7-7.3,18.9-14,28.3-21Zm26,5.8c-1.1-10.1-2.1-19.2-3.1-28.9l-17.6,13Zm-23.7-27.6,19-14.7-16-13.1C338.4,122.5,337.4,131.2,336.4,140.8Zm10.3-92.7h-.5l-4.2,40c1.1-.6,1.4-1.5,2-2.2,5.5-7.1,6.4-15,4.5-23.7C347.5,57.6,347.3,52.8,346.7,48.1Zm-2.9,54.1,10,7.7c-.8-7.4-1.6-13.9-2.3-20.4h-.7Z"/>
        </g>
        <g>
          <g>
            <path class="cls-2" d="M406.9,327.1c-7.4-1-14.8-4.8-18.2-11.4-5.6-11.1,1.8-24.8-1.4-36.8-2-7.9-8.6-15.7-5.5-23.2s11.5-9,13.6-15.7-4-13.3-7-19.9c-4.8-10.3-2.1-22.3.6-33.3s5.5-21.5,11.7-30.4,12.8-13.3,18.3-20.7c3-4.2,5.4-8.8,8.9-12.7s8.5-6.8,13.6-6.1c6.7.8,11.3,7.4,12.9,13.9s1.2,13.5,2.6,20.1c4,18.8,22.2,33.2,22.1,52.4,0,10.2-5.5,19.9-5.4,30.2.1,7.8,3.4,15.1,5.6,22.6s3,16.1-1.3,22.6-15,11.1-15.4,19.6c-.2,5.5,4.2,10.2,4.7,15.7.7,7.8-7,14.3-14.7,15.2s-15.1-4-23.1-4.3S414.8,328.1,406.9,327.1Z"/>
            <polygon class="cls-3" points="453.1 222.4 449.8 220.2 432.5 246.4 432.5 177.2 428.6 177.2 428.6 298.4 406.4 275.6 403.6 278.3 428.6 304 428.6 369.7 432.5 369.7 432.5 253.6 453.1 222.4"/>
          </g>
          <g>
            <path class="cls-4" d="M64.6,342.6c-8.2-.6-16.6-4.1-21.4-10.8s-5.3-19.4-11.5-26.9C22.8,294.2,2.6,293.1.2,279.4c-1.3-7.1,3.6-14,9.4-18.4s12.7-7.2,18.1-12.1C38.1,239.7,41.9,224.4,53,216c15.3-11.7,37.2-5.6,55.3.9,11.7,4.3,23.6,8.7,32.9,16.9s15.3,21.4,11.7,33.3c-1.7,5.5-5.3,10.6-4.7,16.4s4.2,9.1,6.3,13.7c6.2,14.1-4.6,31-18.8,37s-25,2.2-38.4,3.2C86.1,338.2,76.4,343.6,64.6,342.6Z"/>
            <polygon class="cls-4" points="109.6 296.8 106.8 294.4 88.5 316.1 88.5 234.6 84.9 234.6 84.9 283.9 68.6 261.4 65.7 263.5 84.9 290.1 84.9 369.7 88.5 369.7 88.5 321.7 109.6 296.8"/>
          </g>
          <g>
            <g>
              <path class="cls-5" d="M249.8,355.2c-2.9-5.3-8.5-8.5-14.1-10.9a94.7,94.7,0,0,0-20.8-6.5c-19.6,4.7-33.5,16-33.5,23.8v3.9a4.2,4.2,0,0,0,4.2,4.2h65.9A21.3,21.3,0,0,0,249.8,355.2Z"/>
              <path class="cls-6" d="M232.9,335.6a74.6,74.6,0,0,0-18,2.2,94.7,94.7,0,0,1,20.8,6.5c5.6,2.4,11.2,5.6,14.1,10.9a21.3,21.3,0,0,1,1.7,14.5h28.7a4.2,4.2,0,0,0,4.3-4.2v-3.9C284.5,351.6,261.4,335.6,232.9,335.6Z"/>
            </g>
            <g>
              <polygon class="cls-7" points="399.2 171.3 150.3 171.3 78.1 298.2 327 298.2 399.2 171.3"/>
              <polygon class="cls-8" points="399.2 171.3 327 298.2 78.1 298.2 81.6 305.1 330.5 305.1 402.6 178.1 399.2 171.3"/>
            </g>
            <g>
              <polygon class="cls-1" points="199.4 231.1 212.2 208.6 225 186.1 160.7 186.1 135 231.1 199.4 231.1"/>
              <polygon class="cls-1" points="130.9 238.3 105.3 283.4 169.7 283.4 182.5 260.9 195.3 238.3 130.9 238.3"/>
              <polygon class="cls-1" points="233.3 186.1 207.7 231.1 276 231.1 288.8 208.6 301.6 186.1 233.3 186.1"/>
              <polygon class="cls-1" points="309.9 186.1 284.3 231.1 349.8 231.1 375.5 186.1 309.9 186.1"/>
              <path class="cls-9" d="M387.8,178.9H156.5L125,234.2,92.9,290.6H324.3l33.8-59.5h0ZM246.3,283.4H178l25.6-45.1h68.3Zm-76.6,0H105.3l25.6-45.1h64.4l-12.8,22.6ZM225,186.1l-12.8,22.5-12.8,22.5H135l25.7-45Zm63.8,22.5L276,231.1H207.7l25.6-45h68.3Zm-4.5,22.5,25.6-45h65.6l-25.7,45Zm-16.9,29.8,12.8-22.6h65.5l-25.6,45.1H254.5Z"/>
              <polygon class="cls-1" points="345.7 238.3 280.2 238.3 267.4 260.9 254.5 283.4 320.1 283.4 345.7 238.3"/>
              <polygon class="cls-1" points="203.6 238.3 178 283.4 246.3 283.4 271.9 238.3 203.6 238.3"/>
            </g>
            <g class="cls-10">
              <polygon class="cls-11" points="218.4 186.1 230.5 178.9 229.1 178.9 196.5 178.9 184.4 186.1 148.5 207.5 135.9 215 125 234.2 118.5 245.7 142.9 231.1 218.4 186.1"/>
              <polygon class="cls-11" points="339.7 238.3 264.2 283.4 252.1 290.6 286.1 290.6 324.3 290.6 343.9 256.1 358.1 231.1 361.4 225.4 339.7 238.3"/>
              <polygon class="cls-11" points="156.4 238.3 168.4 231.1 215.3 203.2 227.8 195.7 243.9 186.1 256 178.9 244.8 178.9 221.1 193 157.2 231.1 145.1 238.3 123.7 251.1 111.1 258.6 105.3 268.8 117.9 261.3 156.4 238.3"/>
              <polygon class="cls-11" points="213.6 231.1 289.1 186.1 301.2 178.9 294.1 178.9 282 186.1 208.3 230 194.4 238.3 118.9 283.4 106.8 290.6 113.9 290.6 126 283.4 192.1 244 213.6 231.1"/>
              <polygon class="cls-11" points="266 231.1 281.1 222.1 293.6 214.7 341.5 186.1 353.6 178.9 342.3 178.9 330.3 186.1 299.4 204.5 286.9 212 254.7 231.1 242.7 238.3 183.5 273.6 171 281.1 167.2 283.4 155.1 290.6 165.6 290.6 166.3 290.6 178.4 283.4 253.9 238.3 266 231.1"/>
            </g>
            <g>
              <path class="cls-6" d="M250.1,305.1H215.7V309c11.7,3.9,23.1,8.4,34.4,13.2Z"/>
              <path class="cls-12" d="M215.7,309v32.9c0,4.6,7.7,8.4,17.2,8.4s17.2-3.8,17.2-8.4V322.2C238.8,317.4,227.4,312.9,215.7,309Z"/>
            </g>
          </g>
          <g>
            <g>
              <path class="cls-5" d="M496.4,358.5c-2.3-4.1-6.6-6.6-10.9-8.5a78.1,78.1,0,0,0-16.2-5.1c-15.2,3.7-26,12.5-26,18.6v2.9a3.3,3.3,0,0,0,3.3,3.3h51.1C498.5,365.9,498.3,361.8,496.4,358.5Z"/>
              <path class="cls-6" d="M483.3,343.2a62.4,62.4,0,0,0-14,1.7,78.1,78.1,0,0,1,16.2,5.1c4.3,1.9,8.6,4.4,10.9,8.5s2.1,7.4,1.3,11.2H520a3.3,3.3,0,0,0,3.3-3.3v-2.9C523.3,355.7,505.4,343.2,483.3,343.2Z"/>
            </g>
            <g>
              <polygon class="cls-7" points="612.3 215.7 419.2 215.7 363.2 314.2 556.3 314.2 612.3 215.7"/>
              <polygon class="cls-8" points="612.3 215.7 556.3 314.2 363.2 314.2 365.9 319.5 559 319.5 615 221.1 612.3 215.7"/>
            </g>
            <g>
              <polygon class="cls-1" points="457.3 262.2 467.2 244.7 477.2 227.2 427.2 227.2 407.3 262.2 457.3 262.2"/>
              <polygon class="cls-1" points="404.2 267.8 384.3 302.7 434.2 302.7 444.2 285.2 454.1 267.8 404.2 267.8"/>
              <polygon class="cls-1" points="483.6 227.2 463.7 262.2 516.7 262.2 526.6 244.7 536.6 227.2 483.6 227.2"/>
              <polygon class="cls-1" points="543 227.2 523.1 262.2 574 262.2 593.9 227.2 543 227.2"/>
              <path class="cls-9" d="M603.5,221.6H424l-24.4,43-24.9,43.7H554.2l26.3-46.1h0ZM493.6,302.7H440.7l19.8-34.9h53Zm-59.4,0H384.3l19.9-34.9h49.9l-9.9,17.4Zm43-75.5-10,17.5-9.9,17.5h-50l19.9-35Zm49.4,17.5-9.9,17.5h-53l19.9-35h53Zm-3.5,17.5,19.9-35h50.9l-19.9,35Zm-13.1,23,10-17.4h50.8L551,302.7H500.1Z"/>
              <polygon class="cls-1" points="570.8 267.8 520 267.8 510 285.2 500.1 302.7 551 302.7 570.8 267.8"/>
              <polygon class="cls-1" points="460.5 267.8 440.7 302.7 493.6 302.7 513.5 267.8 460.5 267.8"/>
            </g>
            <g class="cls-10">
              <polygon class="cls-11" points="472 227.2 481.4 221.6 480.3 221.6 455 221.6 445.6 227.2 417.8 243.8 408 249.6 399.6 264.6 394.5 273.5 413.4 262.2 472 227.2"/>
              <polygon class="cls-11" points="566.2 267.8 507.6 302.7 498.2 308.3 524.6 308.3 554.2 308.3 569.4 281.6 580.5 262.2 583 257.7 566.2 267.8"/>
              <polygon class="cls-11" points="423.9 267.8 433.3 262.2 469.6 240.5 479.4 234.7 491.9 227.2 501.2 221.6 492.5 221.6 474.1 232.6 424.5 262.2 415.1 267.8 398.5 277.7 388.8 283.5 384.3 291.4 394 285.6 423.9 267.8"/>
              <polygon class="cls-11" points="468.3 262.2 526.9 227.2 536.3 221.6 530.7 221.6 521.4 227.2 464.2 261.3 453.4 267.8 394.8 302.7 385.4 308.3 391 308.3 400.3 302.7 451.6 272.1 468.3 262.2"/>
              <polygon class="cls-11" points="509 262.2 520.7 255.2 530.4 249.4 567.6 227.2 577 221.6 568.2 221.6 558.8 227.2 534.9 241.5 525.2 247.3 500.2 262.2 490.9 267.8 445 295.1 435.2 300.9 432.3 302.7 422.9 308.3 431 308.3 431.6 308.3 441 302.7 499.6 267.8 509 262.2"/>
            </g>
            <g>
              <path class="cls-6" d="M496.6,319.5H470v3.1c9,3.1,17.9,6.5,26.6,10.2Z"/>
              <path class="cls-12" d="M470,322.6v25.5c0,3.6,5.9,6.5,13.3,6.5s13.3-2.9,13.3-6.5V332.8C487.9,329.1,479,325.7,470,322.6Z"/>
            </g>
          </g>
          <path class="cls-13" d="M590.6,369.7H477.9c-3.8-3.1-7.5-7.2-9.4-11.7s-1.9-10.1,1.1-13.9,5.6-4.4,8.3-6.8,5.8-8.3,8.5-12.5,7-8.2,12.1-8,7.5,2.8,11.5,3.2c5.9.6,10.9-3.9,16.3-6.5,9.1-4.2,19.8-2.9,29.4-.1,15.1,4.3,29.9,12.5,37.8,26.1C599,348.9,597.1,360.9,590.6,369.7Z"/>
        </g>
      </g>
    </g>
  </g>
</svg>
