<svg xmlns="http://www.w3.org/2000/svg" width="402.6" height="401" viewBox="0 0 402.6 401">
  <defs>
    <style>
      .cls-1 {
        opacity: 0.3;
      }

      .cls-2 {
        fill: #db8427;
      }

      .cls-3, .cls-4 {
        fill: #ee741f;
      }

      .cls-3 {
        fill-rule: evenodd;
      }
    </style>
  </defs>
  <title>Asset 5</title>
  <g id="Layer_2" data-name="Layer 2">
    <g id="Layer_1-2" data-name="Layer 1">
      <g>
        <g id="hVAdrZ.tif">
          <path d="M344.3,130.1c-2.1,48.4-10.6,95.9-32.6,140.1-16.9,34.1-40.6,62.1-74.4,80.3-9.8,5.3-20.5,9-30.8,13.4-3.6,1.5-7.1,1.1-10.7-.1-40-13-70.6-37.9-93.2-73.1-18.1-28.2-29-59.2-35.9-91.8a378.1,378.1,0,0,1-8.4-83.5c0-6.9,1.3-8.2,8.1-8.3,53.7-1.5,96.2-24.7,129.3-66.3.6-.8,1.2-1.7,1.9-2.5,2.8-3,6.6-2.8,8.9.6,18.4,26.1,42.7,44.7,72.1,56.8a157.6,157.6,0,0,0,57.9,11.4c6.3.1,7.7,1.5,7.8,7.7Zm-275-11.9v4.5A361.8,361.8,0,0,0,77.7,199c6.8,31.6,17.6,61.5,35.6,88.6,21,31.6,49,54.1,85.2,66a10.2,10.2,0,0,0,4.9.2,155.6,155.6,0,0,0,67.6-43c21.8-23.4,35.9-51.1,45.7-81.3,10.4-32.1,15.3-65.2,16.5-98.8.1-4.1,0-8.2,0-12.5-54.3-2.3-97.8-25.2-131.9-66.9C167.3,93.3,123.6,115.8,69.3,118.2Z"/>
        </g>
        <g>
          <g>
            <g class="cls-1">
              <path class="cls-2" d="M242.4,9.4a3.4,3.4,0,0,1-2,.3A170.4,170.4,0,0,0,218,6.4a3.4,3.4,0,0,1-1.2-.4l-1-.7a3,3,0,0,1-.6-1.1,5.1,5.1,0,0,1-.2-1.3,5.6,5.6,0,0,1,.4-1.2,2.3,2.3,0,0,1,.8-.9,2.4,2.4,0,0,1,1.1-.6,2.5,2.5,0,0,1,1.2-.2,202.7,202.7,0,0,1,23.2,3.4,3,3,0,0,1,1.7,1,3.7,3.7,0,0,1,.8,1.8,3.3,3.3,0,0,1-.4,1.9A2.9,2.9,0,0,1,242.4,9.4Z"/>
              <path class="cls-2" d="M70.7,55.7a3.7,3.7,0,0,1-2.1,0,3,3,0,0,1-1.7-1.2,3.8,3.8,0,0,1-.5-2.1,3.4,3.4,0,0,1,.9-1.9,202.6,202.6,0,0,1,96-47.6,3.2,3.2,0,0,1,2.3.6,3.9,3.9,0,0,1,1.3,2,3.2,3.2,0,0,1-.5,2.3,3,3,0,0,1-1.9,1.4,196.4,196.4,0,0,0-93,46Z"/>
              <path class="cls-2" d="M16.8,127.9l-1.2.3a2.8,2.8,0,0,1-1.3-.3,2.4,2.4,0,0,1-1.1-.6l-.7-1.1a4,4,0,0,1,0-2.5c1.7-4,3.5-8,5.3-11.9a3,3,0,0,1,1.9-1.6,2.9,2.9,0,0,1,2.4.1,3.1,3.1,0,0,1,1.6,1.8,3.6,3.6,0,0,1-.1,2.5c-1.8,3.7-3.6,7.6-5.2,11.5a2.4,2.4,0,0,1-.6,1.1A2.3,2.3,0,0,1,16.8,127.9Z"/>
              <path class="cls-2" d="M34.2,307.8a3.3,3.3,0,0,1-2.2.1,2.8,2.8,0,0,1-1.8-1.4,203.7,203.7,0,0,1-12.1-22.6A220.2,220.2,0,0,1,9,260.1,201.8,201.8,0,0,1,.8,182.9a2.8,2.8,0,0,1,.4-1.2,2.3,2.3,0,0,1,.7-1,3,3,0,0,1,1.1-.6,2.9,2.9,0,0,1,1.3-.1,2.7,2.7,0,0,1,1.2.3,3.4,3.4,0,0,1,.9.8,2.4,2.4,0,0,1,.6,1.1,2.7,2.7,0,0,1,.2,1.3,193,193,0,0,0,7.9,74.7,207.3,207.3,0,0,0,8.8,23.1,231.6,231.6,0,0,0,11.7,22,3.1,3.1,0,0,1,.4,2.3,3,3,0,0,1-1.4,1.9Z"/>
              <path class="cls-2" d="M183.2,400.8a3.3,3.3,0,0,1-1.7.2,218.3,218.3,0,0,1-26.5-4.3l-1.1-.5a3.8,3.8,0,0,1-.9-.9,6.1,6.1,0,0,1-.5-1.2,2.9,2.9,0,0,1,.1-1.3,2.2,2.2,0,0,1,.5-1.1,2.6,2.6,0,0,1,.9-.9,2.8,2.8,0,0,1,1.2-.4,2,2,0,0,1,1.3.1,200.9,200.9,0,0,0,25.6,4.2,2.1,2.1,0,0,1,1.2.4,2.5,2.5,0,0,1,1,.8,2.1,2.1,0,0,1,.6,1,5.7,5.7,0,0,1,.1,1.3,3.9,3.9,0,0,1-.6,1.5A3.2,3.2,0,0,1,183.2,400.8Z"/>
              <path class="cls-2" d="M284.7,383.8a201.8,201.8,0,0,1-51,15.5,3.5,3.5,0,0,1-2.4-.6,3,3,0,0,1-1.3-2.1,3.5,3.5,0,0,1,.6-2.4,3.3,3.3,0,0,1,2.1-1.3,197.1,197.1,0,0,0,85.5-36.2,4.1,4.1,0,0,1,1.1-.7h1.3l1.2.4a2.8,2.8,0,0,1,1,.9,3.3,3.3,0,0,1,.5,1.2,4.9,4.9,0,0,1,.1,1.2,3.3,3.3,0,0,1-.5,1.2l-.9,1A205.4,205.4,0,0,1,284.7,383.8Z"/>
              <path class="cls-2" d="M362.6,320.5a3.1,3.1,0,0,1-2.1.2,2.8,2.8,0,0,1-1.7-1.1,3.3,3.3,0,0,1-.8-1.9,3.7,3.7,0,0,1,.7-2,154.9,154.9,0,0,0,9.1-13.7,3,3,0,0,1,2-1.3,3.1,3.1,0,0,1,2.3.3,4.3,4.3,0,0,1,1.5,2,3.1,3.1,0,0,1-.3,2.3c-3,4.8-6.1,9.6-9.5,14.1A3.2,3.2,0,0,1,362.6,320.5Z"/>
              <path class="cls-2" d="M391.5,263.5a3.1,3.1,0,0,1-2.3.2,3.9,3.9,0,0,1-1.1-.6,2.5,2.5,0,0,1-.8-1,2.8,2.8,0,0,1-.4-1.2,4.9,4.9,0,0,1,.1-1.2,193.8,193.8,0,0,0,5.8-95.6,5.7,5.7,0,0,1-.1-1.3,6.1,6.1,0,0,1,.5-1.2,2,2,0,0,1,.9-.9,1.7,1.7,0,0,1,1.2-.5h1.3l1.1.5a2.8,2.8,0,0,1,.9,1,2.1,2.1,0,0,1,.4,1.2,201.4,201.4,0,0,1-5.9,98.7,2.4,2.4,0,0,1-.6,1.1A3.5,3.5,0,0,1,391.5,263.5Z"/>
              <path class="cls-2" d="M383,118.8a2.4,2.4,0,0,1-1.2.3,2.5,2.5,0,0,1-1.2-.2,2.4,2.4,0,0,1-1.1-.6,6.1,6.1,0,0,1-.7-1,165.2,165.2,0,0,0-8-15.7c-2.4-4.3-4.9-8.3-7.5-12.2a2.9,2.9,0,0,1-.4-2.4,3,3,0,0,1,1.3-2,3.1,3.1,0,0,1,2.3-.4,3,3,0,0,1,2,1.2q4.2,6.2,7.8,12.6c3,5.3,5.8,10.6,8.3,16.2a2.7,2.7,0,0,1,.3,1.2,4.3,4.3,0,0,1-.2,1.2,4.1,4.1,0,0,1-.7,1.1A1.8,1.8,0,0,1,383,118.8Z"/>
            </g>
            <path class="cls-3" d="M35.1,201.4c0-91.8,74.4-166.3,166.2-166.3s166.3,74.5,166.3,166.3S293.1,367.6,201.3,367.6A166.2,166.2,0,0,1,35.1,201.4Zm166.2-161c-88.8,0-160.9,72.1-160.9,161s72.1,160.9,160.9,160.9A160.9,160.9,0,0,0,362.2,201.4C362.2,112.5,290.2,40.4,201.3,40.4Z"/>
          </g>
          <path class="cls-4" d="M181.6,238.3l76.1-64.6-9.3-11-76.1,64.6Zm-37.4-30.7,27.5,30.1,10.6-9.7-27.5-30.1Zm113.5-33.9a7.2,7.2,0,0,0,.9-10.1,7.3,7.3,0,0,0-10.2-.9ZM177,232.8l-5.3,4.9a7.2,7.2,0,0,0,9.9.6Zm-22.2-34.9a7.3,7.3,0,0,0-10.2-.5,7.2,7.2,0,0,0-.4,10.2Z"/>
        </g>
      </g>
    </g>
  </g>
</svg>
