<svg xmlns="http://www.w3.org/2000/svg" width="34" height="34" viewBox="0 0 34 34">
  <defs>
    <style>
      .cls-1 {
        fill: #ee741f;
      }
    </style>
  </defs>
  <title>Asset 9</title>
  <g id="Layer_2" data-name="Layer 2">
    <g id="Layer_1-2" data-name="Layer 1">
      <g>
        <path class="cls-1" d="M17,2A15,15,0,0,1,32,17h2A17,17,0,0,0,17,0ZM2,17A15,15,0,0,1,17,2V0A17,17,0,0,0,0,17ZM17,32A15,15,0,0,1,2,17H0A17,17,0,0,0,17,34ZM32,17A15,15,0,0,1,17,32v2A17,17,0,0,0,34,17Z"/>
        <path class="cls-1" d="M14.4,22.8l10.5-8.9-1.3-1.6-10.5,9ZM9.2,18.6,13,22.7l1.4-1.3-3.8-4.2Zm15.7-4.7a1.1,1.1,0,0,0,.2-1.5,1.2,1.2,0,0,0-1.5-.1ZM13.7,22.1l-.7.6a1,1,0,0,0,1.4.1Zm-3.1-4.9a1,1,0,1,0-1.4,1.4Z"/>
      </g>
    </g>
  </g>
</svg>
