<svg xmlns="http://www.w3.org/2000/svg" width="146.3" height="32" viewBox="0 0 146.3 32">
  <title>UoxvBq.tif</title>
  <g id="Layer_2" data-name="Layer 2">
    <g id="Layer_1-2" data-name="Layer 1">
      <g id="UoxvBq.tif">
        <g>
          <path d="M146.3,26.4c-3.7.1-3.8.1-6.3-2.4l-5.7-6.1a9.1,9.1,0,0,0-1.9-1.3c-.1,3.3-.6,6.5.2,9.7h-4c.4-6,.2-12,.2-18,0-.9-.2-1.8-.3-2.8h0c3.2,0,6.3.1,9.5.3a6,6,0,0,1,2.2.6,4.7,4.7,0,0,1,2.9,4.6,4.6,4.6,0,0,1-2.8,4.6,19.3,19.3,0,0,1-3.4,1.1l2.7,2.7,6.7,6.4ZM132.2,11.1v3.7c-.1.7.2.9.9.9h2.6a4,4,0,0,0,3.9-3.5A4.2,4.2,0,0,0,137,7.3a17.6,17.6,0,0,0-4-.7c-.6-.1-.9.1-.8.8Z"/>
          <path d="M.1,31.9V19.6a77,77,0,0,1,22.3,4.6V24l-3.8-2.2a104.7,104.7,0,0,1,13.2-3.9c0,.3.1.6.1.8V31.1c0,.6-.2.9-.9.9H.1Zm12.5-6.6h-.3l-2.2,4L8,25.2H7.7L7,30.5h.4L8,27.2l1.9,3.6,2-3.6a13.8,13.8,0,0,1,.3,2.6c.1.8.4.9,1.1.6Zm12.2-.1v5.3h1V28.2c1.2.7,1.6,2.4,3.5,2.3l-2.4-2.4c1-.3,1.6-.7,1.4-1.7s-.9-1.1-1.6-1.2Zm-18.4.4v-.3H2.9v5.3c1.9.2,3.3.1,3.6-.4H5.4c-1.7,0-1.7,0-1.6-1.7a.3.3,0,0,0,.1-.2L6,28v-.3l-2.2-.2v-.8c-.2-.9.2-1.2,1-1.1Zm9.9-.4H16l-2.3,5.1.3.2a2.3,2.3,0,0,0,.7-1c.3-.9.8-1.1,1.7-1s.8.7,1,1.2.4.8,1.3.6Zm5.5,0h-.3l-2.3,5.2.4.2a5.3,5.3,0,0,0,.6-1c.2-.9.8-1.1,1.6-1s.8.7,1.1,1.1.5,1.1,1.3.7Z"/>
          <path d="M70.1,22c1-2,2-3.8,3-5.7,1.7-3.4,3.5-6.7,5.3-10.1a7.3,7.3,0,0,1,.9-.8c.1.4.4.7.4,1,.9,5.8,1.6,11.5,2.5,17.2.1.9.4,1.8.6,2.8H79c-.6-4.5-1.1-8.8-1.6-13.2h-.3a5.6,5.6,0,0,0-.5.8L70.4,25.4c-.2.5-.4,1.1-1.2,1.1s-.9-.5-1.2-1L61.6,13.3a1.2,1.2,0,0,0-.7-.7c-.5,4.5-1.1,9.1-1.7,13.8h-2l.9-5.4c.6-4.8,1.3-9.7,1.9-14.5.1-.4.3-.9.6-1s.9.2,1.1.7l7.8,14.9A7,7,0,0,1,70.1,22Z"/>
          <path d="M126.9,26.4h-3.8c-.3,0-.6-.4-.7-.7-1-2-1.9-4-2.8-6.1s-.6-1-1.4-.9H113a1.2,1.2,0,0,0-1.3.8c-.8,2-1.8,4-2.6,6s-.6,1-1.4.9h-1.3c3-6.7,6-13.4,9.1-20.1.1-.3.5-.6.8-.9a4.3,4.3,0,0,1,.9,1c2.5,5.4,4.9,10.9,7.5,16.4C125.3,24,126.1,25.1,126.9,26.4ZM115.6,10.9l-2.8,6.4h5.7Z"/>
          <path d="M104.8,26.4c-1.2,0-2.4.1-3.7,0s-.6-.4-.7-.7c-1-2-1.9-4.1-2.9-6.2-.2-.6-.5-.8-1.2-.8H90.9a1,1,0,0,0-1.1.7c-.9,2-1.8,4-2.6,6s-.8,1.2-1.7,1H84.4c3.1-6.7,6.1-13.5,9.2-20.2.1-.3.5-.7.7-.7s.6.4.8.7l7.4,16.1A42.3,42.3,0,0,0,104.8,26.4ZM93.7,11.2h-.2l-2.7,6h5.7Z"/>
          <path d="M55.7,24.5h0c-.2,1.9-.2,1.9-2.1,1.9H40.5c.8-3.6.4-7.1.4-10.5s.4-7-.4-10.5H55V7.3c-3.3-.9-6.6-.3-9.9-.4-.6-.1-.8.1-.8.7v6.8c0,.7.3.8.9.8h8.5c-.2,1.5-.2,1.5-1.5,1.5h-7c-.7,0-.9.2-.9.9v6.6c0,.6.2.9.9.9h7.7A15.1,15.1,0,0,0,55.7,24.5Z"/>
          <path d="M12.7,17.5l-1.5-1.4L.6,6.4A2.3,2.3,0,0,1,0,4.8V.8C0,.2.2,0,.7,0H6.1a.9.9,0,0,1,.8.5c2,5.5,3.9,11,5.8,16.5Z"/>
          <path d="M19.2,17.4l1.2-3.6L24.9.9A1,1,0,0,1,26.1,0h5c.6,0,.9.2.9.8s0,2.9,0,4.3a2.5,2.5,0,0,1-.4.9l-12,11.3Z"/>
          <path d="M14.8,16.6,7.2.2,7.9,0h7c.5,0,.8.1.8.8-.3,5.2-.5,10.5-.8,15.7Z"/>
          <path d="M16.2.1h8.6L17.2,16.6h-.1Z"/>
          <path d="M.1,16.6V6.5L11,18.8Z"/>
          <path d="M21,18.8,31.8,6.6a2.5,2.5,0,0,1,.2.7v8.5c0,.7-.2.9-.8,1Z"/>
          <path d="M25.7,28V25.4a7.1,7.1,0,0,1,1.5.7,1.4,1.4,0,0,1,.1,1.1A4.8,4.8,0,0,1,25.7,28Z"/>
          <path d="M16.6,28.1H15.4l.6-1.4Z"/>
          <path d="M22.1,28.1H20.9l.6-1.4Z"/>
        </g>
      </g>
    </g>
  </g>
</svg>
