<svg xmlns="http://www.w3.org/2000/svg" width="106.3" height="47" viewBox="0 0 106.3 43.7">
  <title>Asset 6</title>
  <g id="Layer_2" data-name="Layer 2">
    <g id="Layer_1-2" data-name="Layer 1">
      <g>
        <path id="a" d="M4.8,38a1.9,1.9,0,0,0-1-.3,2.4,2.4,0,0,0-1.6.7,4.1,4.1,0,0,0-.5.9,5.1,5.1,0,0,0-.2,1.3,3.4,3.4,0,0,0,.1,1,2.2,2.2,0,0,0,.5.8,1.8,1.8,0,0,0,.7.5,1.5,1.5,0,0,0,.9.2h1V40.7H6.1a.2.2,0,0,0,0,.3v2c-.1.1-.1.2,0,.2a5,5,0,0,1-1.3.3H3.6a3.9,3.9,0,0,1-1.5-.2,2.1,2.1,0,0,1-1-.6,3.2,3.2,0,0,1-.8-.9A3.1,3.1,0,0,1,0,40.6a4,4,0,0,1,.3-1.5A2.8,2.8,0,0,1,1.1,38a2.3,2.3,0,0,1,1.2-.6,3.4,3.4,0,0,1,1.5-.2H4.9l1,.4v.4c0,.2-.1.3-.1.5H5.6a2.7,2.7,0,0,0-.8-.7"/>
        <path id="b" d="M12.2,39.1c0-.3-.2-.5-.4-.8s-.3-.3-.6-.5h-.8a1.1,1.1,0,0,0-.8.2.9.9,0,0,0-.6.6,3.6,3.6,0,0,0-.4.9,3.4,3.4,0,0,0-.1,1,2.8,2.8,0,0,0,.1,1.3,3,3,0,0,0,.4.8l.6.4h1.5a1.8,1.8,0,0,0,.7-.5,3.6,3.6,0,0,0,.4-.9,5.9,5.9,0,0,0,.2-1.3,4.3,4.3,0,0,0-.2-1.1m-5,0A3,3,0,0,1,9,37.4a2.2,2.2,0,0,1,1.4-.2,3.4,3.4,0,0,1,1.4.2l1,.5a4.4,4.4,0,0,1,.8,1.1,6.8,6.8,0,0,1,.2,1.4,2.9,2.9,0,0,1-1,2.3,2.3,2.3,0,0,1-1,.7,3.4,3.4,0,0,1-2.8,0,3.1,3.1,0,0,1-1-.5l-.8-1A3.9,3.9,0,0,1,7,40.4a3,3,0,0,1,.2-1.3"/>
        <path id="c" d="M18.2,39.5c.3-.8.5-1.5.8-2.2h.8l-.6,1.3-.6,1.5a13.4,13.4,0,0,0-.7,1.8c-.2.5-.4,1.1-.6,1.5h-.8l-.4-.8-.4-1.1-.4-1.2-.5-1.1-.4-1.1-.3-.8h1.6l.3,1.1.4,1.1.5,1.2.4,1.1.9-2.3"/>
        <path id="d" d="M20.6,38.4V37.3H24v.6H22v2h2v.8H22V43h2.1v.8H20.5V38.4"/>
        <path id="e" d="M27.8,38.3l-.2-.3-.4-.2h-.7v2.5h.2a1.2,1.2,0,0,0,.9-.3,1,1,0,0,0,.3-1c.1-.2,0-.4,0-.6Zm-1.3,2.3v2.9H25.1V42.3a6.5,6.5,0,0,0,0-1.4V37.3h3.6c.2.2.4.3.5.5a2,2,0,0,1,.1.7,2,2,0,0,1-.3,1.1,2.4,2.4,0,0,1-1.1.6l.9,1.5,1.1,1.5H28.2l-1.6-2.8Z"/>
        <path id="f" d="M30.8,38v-.7h.8l2,2.1,1.9,2.1V37.3h.9c0,.5-.1,1-.1,1.5v4.7h-.7l-4.2-4.4v4.4h-.8V43a4.5,4.5,0,0,1,.1-1.1V40.5a6.5,6.5,0,0,0,0-1.4V38"/>
        <path id="g" d="M38.3,41.5a15,15,0,0,1-.2,2h-.8c.2-1,.3-2.1.5-3.1s.3-2.1.4-3.2h.7l.6,1.1.5,1.1.5,1,.5,1.1a21.2,21.2,0,0,0,1.1-2.1,22.6,22.6,0,0,1,1.1-2.2h.7l.2,1.7a9.9,9.9,0,0,1,.2,1.7,10,10,0,0,1,.2,1.6,7.4,7.4,0,0,1,.2,1.2H43.2c0-.6-.1-1.3-.1-2a16.5,16.5,0,0,1-.2-2.1l-1.1,2.1-1,2.1h-.3c-.3-.7-.7-1.4-1-2l-1-2.1c-.1.7-.1,1.4-.2,2.1"/>
        <path id="h" d="M45.7,38.4V37.3h3.5v.6H47.1v2h2.1v.8H47.1V43h2.1v.8H45.7V38.4"/>
        <path id="i" d="M50.4,38v-.7h.8l2,2.1,2,2.1V37.3H56c0,.5-.1,1-.1,1.5v4.7h-.7c-1.4-1.5-2.8-2.9-4.1-4.4v4.4h-.9v-.5a3.8,3.8,0,0,1,.1-1,6.6,6.6,0,0,0,0-1.4,7.5,7.5,0,0,0,0-1.5V38"/>
        <path id="j" d="M58.5,38.3v-.4H56.8v-.8h4.6v.8H59.8v5.6H58.4V38.2Z"/>
        <path id="k" d="M69.8,39.1c-.1-.3-.3-.5-.4-.8l-.7-.5h-.8a1.2,1.2,0,0,0-.8.2l-.6.6a3.6,3.6,0,0,0-.4.9,3.4,3.4,0,0,0-.1,1,5.3,5.3,0,0,0,.1,1.3,3.5,3.5,0,0,0,.5.8.9.9,0,0,0,.6.4h1.5l.6-.5a3.6,3.6,0,0,0,.4-.9,5.9,5.9,0,0,0,.2-1.3,4.1,4.1,0,0,0-.1-1.1m-5.1,0a3,3,0,0,1,1.8-1.7,2.3,2.3,0,0,1,1.4-.2,3.4,3.4,0,0,1,1.4.2,3.1,3.1,0,0,1,1,.5,2.8,2.8,0,0,1,.8,1.1,3.4,3.4,0,0,1,.2,1.4,3.2,3.2,0,0,1-.9,2.3,2.6,2.6,0,0,1-1.1.7,3.2,3.2,0,0,1-1.4.3,5,5,0,0,1-1.3-.3,2.7,2.7,0,0,1-1.8-1.5,4,4,0,0,1-.3-1.5,5.9,5.9,0,0,1,.2-1.3"/>
        <path id="l" d="M72.4,38.4a4.1,4.1,0,0,0-.1-1.1h3.5V38h-2v2h2v.8h-2v2.8H72.3a4.9,4.9,0,0,1,.1-1.2V38.4"/>
        <path id="m" d="M80.9,41.6v1.3h.8a2,2,0,0,0,1.6-.7,3.9,3.9,0,0,0,.4-3l-.4-.8-.7-.5H80.8v3.8Zm-1.4-3.2V37.3h3.8a2.4,2.4,0,0,1,1,.5,1.6,1.6,0,0,1,.7.9,3.4,3.4,0,0,1,0,2.8,2.1,2.1,0,0,1-.6,1l-1,.7-1.2.2H79.5V42.3a6.5,6.5,0,0,0,0-1.4Z"/>
        <path id="n" d="M88.3,43.4a1.3,1.3,0,0,1-.9-.4,1.2,1.2,0,0,1-.6-.6,4.3,4.3,0,0,1-.2-1.1v-4h1.5A10.3,10.3,0,0,0,88,39v1.5a5.3,5.3,0,0,0,.1,1.3,1.9,1.9,0,0,0,.3.8l.6.4h.8a1.1,1.1,0,0,0,.8-.3,1.8,1.8,0,0,0,.5-.7,3.6,3.6,0,0,0,.2-1.1V38.6a5.7,5.7,0,0,0-.1-1.3h.9v3.4a3.2,3.2,0,0,1-.6,2.3,3.1,3.1,0,0,1-2,.7l-1.1-.2"/>
        <path id="o" d="M96.2,40.8a1.7,1.7,0,0,1,.3,1,1.1,1.1,0,0,1-.1.5c0,.1-.1.2-.2.4a1.1,1.1,0,0,1-.7.3H95V40.5h.4a1.1,1.1,0,0,1,.8.3m.2-2.4v.4a1.3,1.3,0,0,1-.1.6l-.2.3a1.1,1.1,0,0,1-.7.3H95V37.8h.9l.3.2.2.3m-2.8,0v2.5a6.5,6.5,0,0,1,0,1.4v1.1h3l.7-.3a2.1,2.1,0,0,0,.4-.6,1.1,1.1,0,0,0,.2-.8,1.4,1.4,0,0,0-.2-.7l-.4-.5-.5-.2h-.5l.4-.2.5-.2.4-.5a1.4,1.4,0,0,0,.2-.6,1.4,1.4,0,0,0-.2-.7c-.1-.1-.2-.3-.4-.4l-.5-.3H93.5a4.1,4.1,0,0,1,.1,1.1"/>
        <path id="p" d="M100.7,39a4.2,4.2,0,0,0-.4,1l-.4,1.1h1.6a4.9,4.9,0,0,0-.4-1.1,4.2,4.2,0,0,0-.4-1m3.2,4.4h-1.5l-.3-.9-.3-.9H99.6l-.3.9a3.2,3.2,0,0,0-.3.9h-.9a1.6,1.6,0,0,0,.3-.6,6.9,6.9,0,0,1,.4-1l.5-1.1.4-1.2a6.1,6.1,0,0,0,.5-1.2,11.7,11.7,0,0,1,.5-1.1h.7l.6,1.7a12.2,12.2,0,0,0,.7,1.7l.6,1.6.6,1.3"/>
        <path id="q" d="M104.9,38.4V37.3h1.4a4.1,4.1,0,0,1-.1,1.1v3.9a4.9,4.9,0,0,0,.1,1.2h-1.5v-5"/>
        <path id="r" d="M.3,16.4s6.9,9,21.5,9a34.8,34.8,0,0,0,18.1-4.8s.3-.6-.9-.9l-1.1-.3a17.2,17.2,0,0,1-4.3-1.6l.8-2a8.8,8.8,0,0,0,4.2-1.1c.6-.3.1-1.3-.2-1.7a26,26,0,0,1-2.1-3.6A2.2,2.2,0,0,0,35.5,8l.4-2.6,2.9,2.8H37.5l1.7,2.9a4.9,4.9,0,0,1,.5,3.4A4.4,4.4,0,0,1,38,17l2.6.7c.4.2,1.2.8.6,2.5A4.9,4.9,0,0,1,39,23.1c-.9.6-6.4,4.7-20,4.5-7.8-.1-14.8-4.9-14.8-4.9L.9,17.9a2.5,2.5,0,0,1-.6-1.5"/>
        <path id="s" d="M41.3.7S20,7.6,11.4,11.4l-1.1,2s19.9-7.6,30.2-11Z"/>
        <path id="t" d="M23.6,15.2s1.1-2,1.6-2.1a7.8,7.8,0,0,1,3.4.4c.8.3,0,1.1-.4,1.7a3,3,0,0,1-1.7,1.6c-.8.2-4.1.7-2.4,0s4.1-1.4,2.4-1.5H23.6"/>
        <path id="u" d="M43.1,13.5a4,4,0,0,1,1.3,1.3A14.3,14.3,0,0,0,50,18.9c2.7,1,2.5,1.5,2.1,1.9-3.2,2.2-6.5,4.3-9.9,6.2s-5,1.6-2.9-4.2c0,0-.2-.3-.7.8s-2.1,5.3.3,6.2c.8.3,1.8.2,4.4-1.2a60.2,60.2,0,0,0,9.2-6.2,3.5,3.5,0,0,0,.7-2.8c-.1-1-.1-1.6-2.5-2.8s-4.4-2.4-5.3-3.7h1.1l-3.4-2.1v2.6Z"/>
        <path id="v" d="M54.3,14.3l2.2,1.5L55.4,18l-2.1-1.6,1-2.1Z"/>
        <path id="w" d="M57.6,13.7l2.2,1.6-1.1,2.1-2.1-1.6,1-2.1Z"/>
        <path id="x" d="M43.7,17.6l2.2,1.6-1.1,2.1-2.1-1.6,1-2.1Z"/>
        <path id="y" d="M26.8,29.3l2.1,1.6-1,2.1-2.2-1.6,1.1-2.1Z"/>
        <path id="z" d="M23.5,29.7l2.1,1.5-1,2.2-2.2-1.6,1.1-2.1Z"/>
        <path id="A-2" data-name="A" d="M49.4,2.7s-1.4-1-1.2-1.2a.9.9,0,0,1,1.2-.2c.4.3,0,1.4,0,1.4m1,.8-.6-.6s1.1-1.6.2-2.8-1.7.3-2.2,1A1.3,1.3,0,0,0,47.9,3l1,.7A16.5,16.5,0,0,1,45.2,7l-5,3.6s-.8.6,1.2-.4A42.5,42.5,0,0,0,46,7.5a34.7,34.7,0,0,0,3.2-3.4l.6.5.3.5s.6-1.3.3-1.6"/>
        <path id="B-2" data-name="B" d="M62.2,3.1s-1.4-1-1.2-1.2a.9.9,0,0,1,1.1-.2c.5.3.1,1.4.1,1.4m1,.9-.6-.6s1-1.6.2-2.8-1.7.3-2.3,1a1.4,1.4,0,0,0,.2,1.9l.9.7A14.2,14.2,0,0,1,58,7.5L53,11s-.8.7,1.2-.4A48.3,48.3,0,0,0,58.7,8,36.1,36.1,0,0,0,62,4.5l.6.5.3.5s.6-1.2.3-1.5"/>
        <path id="C-2" data-name="C" d="M99.4,8.6s-1.2-.8-1.1-1a.8.8,0,0,1,1-.2,2.4,2.4,0,0,1,0,1.2m.9.7-.5-.4a2.3,2.3,0,0,0,.1-2.4c-.2-.3-1.4.3-1.8.9a1.1,1.1,0,0,0,.1,1.5l.8.6a12.7,12.7,0,0,1-3,2.7l-4.1,2.9s-.6.5,1.1-.4a34.7,34.7,0,0,0,3.7-2.1,34.5,34.5,0,0,0,2.6-2.8,1,1,0,0,1,.5.4l.2.4a2.8,2.8,0,0,0,.3-1.3"/>
        <path id="D-2" data-name="D" d="M76.3,7.9S64.5,12,61.9,13.3l-.4,1.2s3.9-1.7,7.9-3.1l6-2.3Z"/>
        <path id="E-2" data-name="E" d="M72.6,20.4a2.5,2.5,0,0,1,1,1.5c.2.5-.6.1-1.1-.2l-1.1-.8a1.2,1.2,0,0,1,1.2-.5M70,22.5a9.6,9.6,0,0,0,3.5,2.1c1.1.4,1.8-1.9,1.9-2.2s-.9-3.9-2.2-4.1-2.4,1.8-2.4,1.8h-.2c0-.1-.1-.1-.2,0h0l-.5.5c-1.5,2.3-2.5,2.6-4.2,2.5s-3.3-2.5-3.6-3.4-2.4,0-3.4,1.7a53.6,53.6,0,0,0-2.4,6c-.9,2-1.7,1.5-2.6.5s-1.2-4.1-1.1-5.5-.3-.3-.3-.3c-.6,5.3,1.4,8.3,2.5,8.2S56.5,29,56.9,28s1.3-4.3,2.2-5.5a2.2,2.2,0,0,1,2-.8.9.9,0,0,1,.3.5c.4.5,2.1,3.3,4.4,3.3a4.1,4.1,0,0,0,3.3-2.2c.2-.3.6-1.3.9-.8"/>
        <path id="F-2" data-name="F" d="M96.1,22.2l-2.9.8s-.9-3-.9-3.2a1.1,1.1,0,0,1,.5-.9,3,3,0,0,1,3-.4c1.6.6,3.8,1.8,4.8,2.1l-4.5,1.6m-16.9.7c-.4-.2-.5-.2-.2-.6a1.1,1.1,0,0,1,1.1-.3,1.6,1.6,0,0,1,.8.6l.3.5-2-.2m21.5-4.6c-1.6-.6-4.9-2.8-7-1.8A4.3,4.3,0,0,0,91.4,20a23.3,23.3,0,0,0,.5,2.8c-2.8-.8-3.7-3.8-6.1-6.5s-7-7.5-7-7.5A67.6,67.6,0,0,1,93.7,3.6c1.9-.4,2.6-.2,2.7.1s-.3,1.6-.9,2.5a33,33,0,0,0-1.9,4.3c-.2.7-.2,1.4.2.6S95.4,7.9,95.9,7s2-3.6,2-4.7-1.7-1.2-3-.9c-7.1,1-16.8,5.7-16.8,5.7l-.9,2.8a86.5,86.5,0,0,1,8.2,11.6c.2.6-2.3,1.2-2.3,1.2a4.4,4.4,0,0,0-2.9-2.9c-.9-.1-1.9.9-2.6,2.4a2.1,2.1,0,0,0,1,2.8H79a7,7,0,0,0,3.2-.1c.4.6,0,.8,0,.8a19.9,19.9,0,0,1-7.2,5c-2.9,1.3-5.3-.1-5.5-2.6a11.9,11.9,0,0,1,1-4.9s0-.6-.5.2a14.3,14.3,0,0,0-1.3,4.9c-.1.7.1,4.8,3.4,5.1s8.9-4.3,10-5.4a6.2,6.2,0,0,0,1.3-3.4c2.4-.8,2.4-1.9,2.6-2.8a7,7,0,0,0-.3-2.9s1.8,2.7,3.3,4.5a4.4,4.4,0,0,0,3.6,1.8,3.9,3.9,0,0,0,.2,1.5c.5,0,.5-1.6.5-1.6,1.7-.2,4.8-1.6,7.5-2.8s4.1-.6,4.1-.6l1.1-2.1a24.4,24.4,0,0,1-5.3-1.4"/>
        <path id="G-2" data-name="G" d="M68.3,5.3v.2l-.8-.4c-.2,0-.2-.1-.2-.5s.1-1,.6-.8a4.8,4.8,0,0,1,1.8,3.3A24,24,0,0,1,70,4.2c.2-.7.4-1.3,1.6-.2l-.4.8s-.8-.9-1-.1A18.1,18.1,0,0,0,69.9,7c-.1.9-.3,1.5-.4.9a5,5,0,0,0-.8-2,.9.9,0,0,0-.4-.6"/>
        <path id="H-2" data-name="H" d="M86.8,10.7V11l-.8-.4c-.2,0-.2-.2-.2-.5s.1-1.1.6-.9a4.8,4.8,0,0,1,1.8,3.4,24,24,0,0,1,.4-2.9c.2-.7.4-1.3,1.6-.3l-.4.8s-.8-.9-1-.1a9.1,9.1,0,0,0-.3,2.3c-.2.9-.3,1.6-.4.9a7,7,0,0,0-.8-2l-.4-.6"/>
        <path id="I-2" data-name="I" d="M68,18.8c.3,0,1-.2,1.2-1.5s-.2,0-.2,0a.4.4,0,0,1-.5.2c-.3-.1-.7-.5-.2-1.6a18,18,0,0,1,.8-2.1c0-.1,0-.3-.3.2a16.9,16.9,0,0,0-1.3,3.1,1.7,1.7,0,0,0,.4,1.5Z"/>
        <path id="J-2" data-name="J" d="M30,22.4c.4.1,1-.1,1.3-1.4s-.3,0-.3,0a.4.4,0,0,1-.5.2c-.3-.1-.6-.5-.2-1.6a8.5,8.5,0,0,1,.9-2.2c0-.1-.1-.3-.4.3a16.6,16.6,0,0,0-1.2,3.1,1.4,1.4,0,0,0,.3,1.5Z"/>
      </g>
    </g>
  </g>
</svg>
