<svg xmlns="http://www.w3.org/2000/svg" width="130" height="34.1" viewBox="0 0 130 34.1">
  <title>Asset 5</title>
  <g id="Layer_2" data-name="Layer 2">
    <g id="Layer_1-2" data-name="Layer 1">
      <g>
        <path d="M0,.9V0H6.8V23.1L13,16a2.7,2.7,0,0,0,.7-1.7c0-1.3-1-2-2.8-2h-.1v-.9h8.9v.9h-.1c-1.4,0-3.2,1-5.1,3.3l-2.8,3.3,7.2,13.8h2.4v.9h-9v-.9H15l-5.8-11L6.8,24.5v8.2h3.3v.9H0v-.9H3.3V.9Z"/>
        <path d="M36.6,26.8c-.7,3.9-3.2,6.5-6,6.5S25,30.5,25,24.4a21.8,21.8,0,0,1,.1-2.5H37.6c-.2-6.9-3.6-11-7.7-11a6.9,6.9,0,0,0-5.3,2.5,12.9,12.9,0,0,0-3.4,8.9c0,6.8,4,11.8,9,11.8s6.5-2.6,7.3-7.3ZM25.1,21c.2-6.4,1.7-9.3,4.7-9.3s4.1,2.1,4.1,7V21H25.1"/>
        <path d="M112.1,26.8c-.7,3.9-3.2,6.5-6.1,6.5s-5.5-2.8-5.5-8.9a21.8,21.8,0,0,1,.1-2.5h12.5c-.2-6.9-3.6-11-7.7-11a6.9,6.9,0,0,0-5.3,2.5,13,13,0,0,0-3.5,8.9c0,6.8,4.1,11.8,9.1,11.8s6.5-2.6,7.3-7.3ZM100.6,21c.1-6.4,1.6-9.3,4.7-9.3s4.1,2.1,4.1,7a17.7,17.7,0,0,1-.1,2.3h-8.7"/>
        <path d="M53.1,13a2.2,2.2,0,0,0-2.2-1.3c-3,0-5.2,4.5-5.2,11.3v9.7H49v.9H38.9v-.9h3.3V12.3H38.9v-.9h6.6l.2,4.9c1.1-3.8,2.9-5.5,5.5-5.5a3.1,3.1,0,0,1,3.1,3.4,2.1,2.1,0,0,1-2.1,2.3,1.8,1.8,0,0,1-1.9-1.9,1.8,1.8,0,0,1,1.8-2,1.5,1.5,0,0,1,1,.4"/>
        <path d="M128.8,13a2.2,2.2,0,0,0-2.2-1.3c-3,0-5.2,4.5-5.2,11.3v9.7h3.3v.9H114.6v-.9h3.3V12.3h-3.3v-.9h6.6l.2,4.9c1.1-3.8,2.9-5.5,5.5-5.5a3.1,3.1,0,0,1,3.1,3.4,2.1,2.1,0,0,1-2.1,2.3,1.8,1.8,0,0,1-1.9-1.9,1.8,1.8,0,0,1,1.8-2,1.9,1.9,0,0,1,1,.4"/>
        <path d="M67,12.3H63.6c-3.3,0-5.5,2.3-6.5,7.1h-.7v-8H71.1L59.3,32.7h4.5c3.8,0,5.7-2.1,6.8-7.1h.7v8H55.2Z"/>
        <path d="M86.6,12.1c-3,0-5.8,4.3-5.8,10.7v9.9h3.3v.9h-10v-.9h3.2V12.3H74.1v-.9h6.5l.2,5.8c.9-3.9,3.7-6.3,6.8-6.3s5.5,2.6,5.5,7.3V32.7h3.3v.9H86.3v-.9h3.3v-16c0-3.1-1-4.6-3-4.6"/>
      </g>
    </g>
  </g>
</svg>
