<svg xmlns="http://www.w3.org/2000/svg" width="137.9" height="47" viewBox="0 0 137.9 28.1">
  <defs>
    <style>
      .cls-1 {
        fill-rule: evenodd;
      }
    </style>
  </defs>
  <title>Asset 4</title>
  <g id="Layer_2" data-name="Layer 2">
    <g id="Layer_1-2" data-name="Layer 1">
      <g>
        <path class="cls-1" d="M14.1,1.8a12.3,12.3,0,0,1,.1,24.5l5.7-10.2h3.9l2.1-3.8H16.2l-2.1,3.8h3.6L12.1,26.2A12.3,12.3,0,0,1,10.5,2.3L5,12.3H5L2.9,16.1h9.7l2.1-3.8H7.2L13,1.8Zm0-1.8A14.1,14.1,0,1,1,0,14.1,14.1,14.1,0,0,1,14.1,0Z"/>
        <path d="M34.2,17.8h5.3l.3-1.4H36.4l1.3-6.1H35.9l-1.7,7.5Zm11.3-1.9.2,1.9h1.9l-1-7.5H44.2l-4.3,7.5h2l1-1.9Zm-2-1.2.9-1.7.7-1.4h0c0,.4.1,1,.1,1.4l.2,1.7Zm4.9,3.1h1.8l.7-2.9h.6c.7,0,1.1.2,1.2,1.2a10.9,10.9,0,0,0,.2,1.7h2a7.8,7.8,0,0,1-.4-2.1c-.1-.7-.3-1.2-.8-1.4h0c1.1-.3,2-1,2-2.1a1.6,1.6,0,0,0-1-1.5,5.6,5.6,0,0,0-2.3-.5l-2.4.2-1.6,7.4Zm3.2-6.2h.8c.7,0,1.3.3,1.3.9S53,13.7,52,13.7h-.8l.4-2.1Zm3.9,5.8A5.6,5.6,0,0,0,58,18c2,0,3.6-.9,3.6-2.6s-.6-1.5-1.7-2-1.3-.6-1.3-1,.5-.8,1.3-.8a5.2,5.2,0,0,1,1.7.3l.6-1.3a4.5,4.5,0,0,0-2.1-.4c-1.9,0-3.5.9-3.5,2.4s.9,1.6,1.8,2,1.2.7,1.2,1.1-.6.9-1.4.9a4.6,4.6,0,0,1-2.1-.5l-.6,1.3Zm12.7-4.1H65.1l.4-1.6h3.3l.3-1.4H63.9l-1.7,7.5h5.4l.3-1.3H64.4l.4-1.9h3.1l.3-1.3Zm2.3,4.5.6-2.6q.3-1.8.6-3h0a16.1,16.1,0,0,0,.9,2.6l1.2,3h1.9l1.7-7.5H75.6L75,13c-.2,1.1-.3,2-.4,2.7h0a14.4,14.4,0,0,0-.8-2.5l-1.2-2.9H70.4l-1.7,7.5Zm16.9,0a8.3,8.3,0,0,1-1.3-1.4,6.8,6.8,0,0,0,2.1-2.9H86.5a5,5,0,0,1-1.3,1.9L84.1,14h0c1.4-.5,2.1-1.2,2.1-2s-.9-1.7-2.2-1.7-2.8.9-2.8,2.1a2.1,2.1,0,0,0,.5,1.3h0c-1.1.5-2.1,1.2-2.1,2.4s1.1,2,2.7,2a4,4,0,0,0,2.4-.7,1.2,1.2,0,0,0,.5.5Zm-4.6-1a1.2,1.2,0,0,1-1.3-1.1c0-.6.5-.9.9-1.2l1.5,1.9a1.5,1.5,0,0,1-1,.4Zm1-5.6a.7.7,0,0,1,.8.7c0,.5-.6.9-1.3,1.2a1.8,1.8,0,0,1-.4-.9.9.9,0,0,1,.9-1Zm8.3,6.6H94l1.4-6.1h2.3l.4-1.4H91.5l-.3,1.4h2.3l-1.4,6.1Zm10.1-7.6A4.8,4.8,0,0,0,99,11.3a4.6,4.6,0,0,0-1.6,3.5,3.2,3.2,0,0,0,3.5,3.2,4.9,4.9,0,0,0,3.3-1.1,4.8,4.8,0,0,0,1.6-3.6c0-1.8-1.3-3.1-3.6-3.1Zm-.2,1.3c1.4,0,1.8.9,1.8,1.9a4,4,0,0,1-1.1,2.7,2.5,2.5,0,0,1-1.5.5,1.6,1.6,0,0,1-1.8-1.8,3.9,3.9,0,0,1,1.1-2.7,2,2,0,0,1,1.5-.6Zm5.6-1.2-.9,4.2a4.1,4.1,0,0,0-.1,1.1c0,1.6,1.1,2.4,2.9,2.4s3.6-1.1,4.1-3.4l.9-4.3h-1.8l-1,4.4c-.3,1.3-1,1.9-2,1.9a1.1,1.1,0,0,1-1.2-1.1v-.9l1-4.3Zm6.7,7.4,2.3.2a7.5,7.5,0,0,0,3.3-.6,2.1,2.1,0,0,0,1.2-1.8,1.8,1.8,0,0,0-1.4-1.7h0c1-.2,1.8-.8,1.8-1.8a1.6,1.6,0,0,0-1-1.4,4.8,4.8,0,0,0-2.2-.4l-2.3.2-1.7,7.3Zm3.3-6.1h.7c.7,0,1.3.2,1.3.8s-.7,1-1.8,1h-.6l.4-1.7Zm-.7,2.9h.6c.9,0,1.6.2,1.6.9s-.9,1.2-1.9,1.2h-.8l.5-2.1Zm4.8,3.3h1.9l.6-2.9h.6c.8,0,1.1.2,1.2,1.2a7.5,7.5,0,0,0,.3,1.7h1.9a20.6,20.6,0,0,1-.3-2.1c-.1-.7-.3-1.2-.9-1.4h0c1.2-.3,2-1,2-2.1a1.7,1.7,0,0,0-.9-1.5,6,6,0,0,0-2.4-.5l-2.3.2-1.7,7.4Zm3.3-6.2h.7c.8,0,1.4.3,1.4.9s-.8,1.3-1.8,1.3h-.8l.5-2.1Zm9.3-1.4a5,5,0,0,0-3.2,1.1,4.6,4.6,0,0,0-1.6,3.5c0,1.8,1.3,3.2,3.6,3.2a4.8,4.8,0,0,0,3.2-1.1,4.8,4.8,0,0,0,1.6-3.6c0-1.8-1.2-3.1-3.6-3.1Zm-.2,1.3c1.4,0,1.8.9,1.8,1.9a4,4,0,0,1-1.1,2.7,2.5,2.5,0,0,1-1.5.5,1.7,1.7,0,0,1-1.8-1.8,3.9,3.9,0,0,1,1.1-2.7,2,2,0,0,1,1.5-.6Z"/>
      </g>
    </g>
  </g>
</svg>
