<svg xmlns="http://www.w3.org/2000/svg" width="340.5" height="264.9" viewBox="0 0 340.5 264.9">
  <defs>
    <style>
      .cls-1 {
        fill: #010101;
      }

      .cls-2 {
        fill: #f26522;
      }

      .cls-3 {
        fill: #e51b24;
      }

      .cls-4 {
        fill: #f99f1c;
      }
    </style>
  </defs>
  <title>Asset 1</title>
  <g id="Layer_2" data-name="Layer 2">
    <g id="Layer_1-2" data-name="Layer 1">
      <g>
        <path class="cls-1" d="M61.9,263.4V245.8c0-6.6-4.2-11-10.9-11.1-3.6,0-7.3,1.1-9.9,5a10.2,10.2,0,0,0-9.2-5,9.3,9.3,0,0,0-8.2,4.2v-3.5H17.6v28h6.2V247.9c0-4.9,2.7-7.4,6.8-7.4s6.1,2.6,6.1,7.3v15.6h6.1V247.9c0-4.9,2.8-7.4,6.9-7.4s6.1,2.6,6.1,7.3v15.6Zm90.9-28h-10V227h-6.1v8.4H131V241h5.7v12.7c0,6.5,2.5,10.4,9.7,10.4a13.8,13.8,0,0,0,7.6-2.2l-1.7-5.2a11,11,0,0,1-5.4,1.6c-3.1,0-4.1-1.9-4.1-4.7V241h10Zm51.8-.7a8.2,8.2,0,0,0-7.3,4.1v-3.4h-6.1v28h6.1V247.7c0-4.6,2-7.2,6-7.2a10.6,10.6,0,0,1,3.8.7l1.9-5.7a14.1,14.1,0,0,0-4.4-.8m-78.4,3c-2.9-2-6.9-3-11.4-3-7,0-11.6,3.4-11.6,9s3.4,7.4,9.7,8.2l2.8.4c3.4.5,4.9,1.4,4.9,3s-2.2,3.3-6.3,3.3a14.7,14.7,0,0,1-9.3-2.9l-2.9,4.8a20.4,20.4,0,0,0,12.1,3.6c8.1,0,12.7-3.8,12.7-9.1s-3.6-7.5-9.7-8.4l-2.9-.4c-2.6-.4-4.7-.9-4.7-2.7s2-3.3,5.3-3.3a17.4,17.4,0,0,1,8.7,2.4Zm162.9-3a8.5,8.5,0,0,0-7.4,4.1v-3.4h-6v28h6.1V247.7c0-4.6,2-7.2,6-7.2a10.6,10.6,0,0,1,3.8.7l1.8-5.7a13.5,13.5,0,0,0-4.3-.8m-78.3,14.7c0,8.5,5.9,14.7,14.9,14.7a14.4,14.4,0,0,0,10-3.3l-2.9-5a12.1,12.1,0,0,1-7.3,2.6c-4.9-.1-8.4-3.6-8.4-9s3.5-8.9,8.4-8.9a11.9,11.9,0,0,1,7.3,2.5l2.9-4.9a14.5,14.5,0,0,0-10-3.4c-9,0-14.9,6.2-14.9,14.7m56.9,0v-14h-6.1v3.4a10.5,10.5,0,0,0-8.8-4.1c-7.8,0-14,6.2-14,14.7s6.2,14.7,14,14.7a10.5,10.5,0,0,0,8.8-4.1v3.4h6.1Zm-22.6,0c0-4.9,3.2-8.9,8.5-8.9s8.4,3.8,8.4,8.9-3.4,9-8.4,9-8.5-4.1-8.5-9m-73.4-14.7c-8.2,0-13.9,6-13.9,14.7s6,14.7,14.3,14.7a17.4,17.4,0,0,0,11.5-3.9l-3-4.5a13.6,13.6,0,0,1-8.1,2.9c-3.9,0-7.5-1.8-8.4-6.8h20.8c0-.8.1-1.6.1-2.4-.1-8.7-5.4-14.7-13.3-14.7m-.1,5.5c3.9,0,6.4,2.4,7.1,6.8H164.2c.6-4.1,3.1-6.8,7.4-6.8m152.5,9.2V224.2H318v14.6a10.5,10.5,0,0,0-8.8-4.1c-7.8,0-14,6.2-14,14.7s6.2,14.7,14,14.7A10.5,10.5,0,0,0,318,260v3.4h6.1Zm-22.6,0c0-4.9,3.2-8.9,8.5-8.9s8.4,3.8,8.4,8.9-3.4,9-8.4,9-8.5-4.1-8.5-9m-205.3,0v-14H90.1v3.4a10.5,10.5,0,0,0-8.8-4.1c-7.8,0-14,6.2-14,14.7s6.2,14.7,14,14.7a10.5,10.5,0,0,0,8.8-4.1v3.4h6.1Zm-22.6,0c0-4.9,3.2-8.9,8.5-8.9s8.4,3.8,8.4,8.9-3.4,9-8.4,9-8.5-4.1-8.5-9m260.6,9.9a2,2,0,0,1,1.1.3,1.9,1.9,0,0,1,.9.5l.7.9a4.3,4.3,0,0,1,.2,1.1,3.6,3.6,0,0,1-.2,1.1l-.7.9-.9.6-1.1.2-1.1-.2-.9-.6-.6-.9a3.6,3.6,0,0,1-.2-1.1,4.3,4.3,0,0,1,.2-1.1l.6-.9.9-.5a2.3,2.3,0,0,1,1.1-.3m0,5,.9-.2.7-.5.4-.6a2.9,2.9,0,0,0,.2-.9,1.9,1.9,0,0,0-.2-.8,1.6,1.6,0,0,0-.4-.7l-.7-.5h-1.7a1.8,1.8,0,0,0-.7.5l-.5.7a1.9,1.9,0,0,0-.1.8,2.8,2.8,0,0,0,.1.9l.5.6a1.8,1.8,0,0,0,.7.5l.8.2m.2-3.5.8.2a1,1,0,0,1,0,1.2l-.6.2.9,1h-.7l-.8-1h-.2v1h-.6v-2.6Zm-.6.5v.7h1c0-.1.1-.1.1-.3a.3.3,0,0,0-.1-.2h-1Z"/>
        <rect class="cls-2" x="124.2" y="22.5" width="92.1" height="165.47"/>
        <path class="cls-3" d="M130.1,105.2a105.1,105.1,0,0,1,40.2-82.7,105.3,105.3,0,1,0,0,165.5,105.1,105.1,0,0,1-40.2-82.8"/>
        <path class="cls-4" d="M340.5,105.2A105.2,105.2,0,0,1,170.3,188a105.3,105.3,0,0,0,0-165.5,105.2,105.2,0,0,1,170.2,82.7m-10,65.2v-3.3h1.4v-.7h-3.5v.7h1.3v3.3Zm6.7,0v-4h-1l-1.3,2.8-1.2-2.8h-1v4h.7v-3l1.2,2.6h.7l1.2-2.6v3Z"/>
      </g>
    </g>
  </g>
</svg>
