<svg xmlns="http://www.w3.org/2000/svg" width="49.3" height="49.3" viewBox="0 0 49.3 49.3">
  <defs>
    <style>
      .cls-1 {
        fill: #fff;
        fill-rule: evenodd;
      }
    </style>
  </defs>
  <title>Asset 12</title>
  <g id="Layer_2" data-name="Layer 2">
    <g id="Layer_1-2" data-name="Layer 1">
      <g>
        <path class="cls-1" d="M2.2,29.9a2.2,2.2,0,0,1,2.3,2.2v10a2.7,2.7,0,0,0,2.7,2.7H42.1a2.7,2.7,0,0,0,2.7-2.7v-10a2.2,2.2,0,0,1,2.3-2.2,2.2,2.2,0,0,1,2.2,2.2v10a7.2,7.2,0,0,1-7.2,7.2H7.2a7.5,7.5,0,0,1-5.1-2.1A7.5,7.5,0,0,1,0,42.1v-10A2.2,2.2,0,0,1,2.2,29.9Z"/>
        <path class="cls-1" d="M10.6,18.1a2.2,2.2,0,0,1,3.2,0L24.7,28.9,35.5,18.1a2.3,2.3,0,0,1,3.2,3.2L26.2,33.7a2.1,2.1,0,0,1-3.1,0L10.6,21.3A2.2,2.2,0,0,1,10.6,18.1Z"/>
        <path class="cls-1" d="M24.6,0a2.2,2.2,0,0,1,2.3,2.2V32.1a2.3,2.3,0,1,1-4.5,0V2.2A2.2,2.2,0,0,1,24.6,0Z"/>
      </g>
    </g>
  </g>
</svg>
