<svg xmlns="http://www.w3.org/2000/svg" width="50.9" height="50.9" viewBox="0 0 50.9 50.9">
  <defs>
    <style>
      .cls-1 {
        fill: #fff;
        fill-rule: evenodd;
      }
    </style>
  </defs>
  <title>Asset 14</title>
  <g id="Layer_2" data-name="Layer 2">
    <g id="Layer_1-2" data-name="Layer 1">
      <path class="cls-1" d="M25.5,7.5l-5.2,11a2,2,0,0,1-1.7,1.2L6.9,21.5l8.6,8.8a2.2,2.2,0,0,1,.6,1.9l-2,12.2,10.3-5.6a2,2,0,0,1,2.1,0l10.3,5.6-2-12.2a2.2,2.2,0,0,1,.6-1.9L44,21.5,32.3,19.7a2,2,0,0,1-1.7-1.2Zm0-7.5a2.3,2.3,0,0,1,2,1.3l6.6,14.2L49,17.8a2.3,2.3,0,0,1,1.8,1.5,2.4,2.4,0,0,1-.5,2.3l-10.8,11L42,48.3a2.4,2.4,0,0,1-.9,2.2,2.3,2.3,0,0,1-2.4.1L25.5,43.3,12.2,50.6a2.3,2.3,0,0,1-2.4-.1,2.4,2.4,0,0,1-.9-2.2l2.5-15.7L.6,21.6a2.4,2.4,0,0,1-.5-2.3,2.3,2.3,0,0,1,1.8-1.5l14.9-2.3L23.4,1.3A2.3,2.3,0,0,1,25.5,0Z"/>
    </g>
  </g>
</svg>
