<svg xmlns="http://www.w3.org/2000/svg" width="15.9" height="12.4" viewBox="0 0 15.9 12.4">
  <defs>
    <style>
      .cls-1 {
        fill: #fff;
        stroke: #ee741f;
        stroke-miterlimit: 10;
        stroke-width: 2px;
      }
    </style>
  </defs>
  <title>YUoFpc.tif</title>
  <g id="Layer_2" data-name="Layer 2">
    <g id="Layer_1-2" data-name="Layer 1">
      <g id="YUoFpc.tif">
        <g>
          <path class="cls-1" d="M5.4,9.5,5,9.2,2.4,6.4c-.5-.4-1.2-.3-1.3.3s-.1.6.2.9L4.6,11c.6.6.9.6,1.5,0,2.8-2.8,5.6-5.6,8.3-8.5l.3-.2a.9.9,0,0,0-.1-1.1.7.7,0,0,0-1,0l-.4.3Z"/>
          <path class="cls-1" d="M5.4,9.5l7.8-8,.4-.3a.7.7,0,0,1,1,0,.9.9,0,0,1,.1,1.1l-.3.2C11.7,5.4,8.9,8.2,6.1,11c-.6.6-.9.6-1.5,0L1.3,7.6C1,7.3.9,7,1.1,6.7s.8-.7,1.3-.3L5,9.2Z"/>
        </g>
      </g>
    </g>
  </g>
</svg>
