<svg xmlns="http://www.w3.org/2000/svg" width="143" height="42.3" viewBox="0 0 143 42.3">
  <defs>
    <style>
      .cls-1 {
        fill: #fff;
      }
    </style>
  </defs>
  <title>Asset 3</title>
  <g id="Layer_2" data-name="Layer 2">
    <g id="Layer_1-2" data-name="Layer 1">
      <g>
        <path class="cls-1" d="M.3.4H5C7.8.4,9.1,2,9.1,4A2.7,2.7,0,0,1,6.9,6.8h0a3.1,3.1,0,0,1,2.7,3.3c0,2.1-1.3,3.6-4.5,3.6H.3ZM4.9,6.3A2.3,2.3,0,0,0,7.5,4c0-1.2-.7-2.1-2.5-2.1H1.9V6.3Zm.2,6.1c2.2,0,3-1,3-2.2A2.7,2.7,0,0,0,5.2,7.7H1.9v4.7ZM18.4,3.8h1.5v10H18.4V12.1h-.1a3.2,3.2,0,0,1-3,1.8c-1.9,0-3.2-1.2-3.2-3.8V3.8h1.5V10a2.2,2.2,0,0,0,2.2,2.4,2.5,2.5,0,0,0,2.6-2.7ZM22.5,1a1,1,0,0,1,1.1-1,1,1,0,0,1,1,1,1,1,0,0,1-1,1.1A1,1,0,0,1,22.5,1Zm.3,2.8h1.5v10H22.8Zm5.9,10H27.1V.4h1.6Zm2.3-5c0-3.2,1.8-5.2,4.3-5.2a2.9,2.9,0,0,1,2.9,1.8h.1V.4h1.6V13.8H38.4V12.3h-.2A3.1,3.1,0,0,1,35.3,14C32.8,14,31,12,31,8.8Zm7.4,0c0-2.3-1-3.8-2.9-3.8s-2.9,1.7-2.9,3.8,1,3.8,2.9,3.8S38.4,11.1,38.4,8.8ZM42.6,1a1.1,1.1,0,0,1,2.2,0,1.1,1.1,0,0,1-2.2,0Zm.3,2.8h1.6v10H42.9Zm5.9,10H47.3V3.8h1.5V5.3h.1a3,3,0,0,1,2.9-1.7c2.1,0,3.4,1.3,3.4,3.8v6.4H53.7V7.5A2.3,2.3,0,0,0,51.4,5a2.5,2.5,0,0,0-2.6,2.8Zm9.2,2,1.2-.9a3.2,3.2,0,0,0,2.9,1.5c1.6,0,2.8-.7,2.8-2.4V11.9h-.1a3.1,3.1,0,0,1-2.9,1.7c-2.5,0-4.3-1.7-4.3-4.9s1.7-5.1,4.3-5.1a3,3,0,0,1,2.9,1.8H65V3.8h1.5V14.1c0,2.6-2,3.7-4.4,3.7A4.5,4.5,0,0,1,58,15.8Zm6.9-7.1C64.9,6.5,64,5,62.1,5s-3,1.7-3,3.7,1,3.6,3,3.6S64.9,10.9,64.9,8.7ZM74.7.4h4.7C82.2.4,83.5,2,83.5,4a2.8,2.8,0,0,1-2.2,2.8h0A3.1,3.1,0,0,1,84,10.2c0,2.1-1.3,3.6-4.5,3.6H74.7Zm4.6,5.9A2.3,2.3,0,0,0,81.9,4c0-1.2-.8-2.1-2.5-2.1H76.3V6.3Zm.2,6.1c2.1,0,2.9-1,2.9-2.2a2.6,2.6,0,0,0-2.8-2.5H76.3v4.7Zm6.9-8.6h1.5V5.3H88a2.9,2.9,0,0,1,2.7-1.7h.8V5.2h-1A2.4,2.4,0,0,0,88,7.5v6.3H86.4ZM93,1a1.1,1.1,0,0,1,2.2,0A1.1,1.1,0,1,1,93,1Zm.3,2.8h1.5v10H93.3Zm3.9,5c0-3.2,1.7-5.2,4.3-5.2a3.1,3.1,0,0,1,2.9,1.8h.1V.4h1.6V13.8h-1.5V12.3h-.2a3.2,3.2,0,0,1-2.9,1.7C98.9,14,97.2,12,97.2,8.8Zm7.3,0c0-2.3-1-3.8-2.8-3.8s-3,1.7-3,3.8,1,3.8,3,3.8S104.5,11.1,104.5,8.8Zm4.5,7,1.3-.9a2.9,2.9,0,0,0,2.8,1.5c1.7,0,2.8-.7,2.8-2.4V11.9h-.1a3,3,0,0,1-2.9,1.7c-2.5,0-4.3-1.7-4.3-4.9s1.8-5.1,4.3-5.1a2.9,2.9,0,0,1,2.9,1.8h.2V3.8h1.5V14.1c0,2.6-2,3.7-4.4,3.7A4.7,4.7,0,0,1,109,15.8Zm7-7.1c0-2.2-1-3.7-2.9-3.7s-2.9,1.7-2.9,3.7,1,3.6,2.9,3.6S116,10.9,116,8.7Zm3.8.2c0-3.1,1.8-5.3,4.6-5.3s4.3,1.3,4.3,5.1v.6h-7.3c.1,2.2,1.3,3.3,3.1,3.3a2.5,2.5,0,0,0,2.5-1.5l1.5.4a3.9,3.9,0,0,1-4,2.5C121.6,14,119.8,11.9,119.8,8.9Zm7.3-.9a2.8,2.8,0,0,0-2.7-3,3,3,0,0,0-3,3Zm9.7-1.6A2.2,2.2,0,0,0,134.6,5c-1.2,0-2.2.6-2.2,1.5s.6,1.1,1.8,1.4l1.5.4c1.7.4,2.6,1.3,2.6,2.7s-1.6,3-3.9,3-3.5-.9-3.8-2.6l1.5-.4a2.1,2.1,0,0,0,2.3,1.7c1.4,0,2.3-.8,2.3-1.6s-.4-1.2-1.5-1.4l-1.6-.4c-1.9-.5-2.7-1.4-2.7-2.8s1.6-2.9,3.7-2.9A3.3,3.3,0,0,1,138.1,6Zm6.1,6.3a26.2,26.2,0,0,1-1.3,4.4h-1.1c.1-.9.5-2.6.7-4.4V12H143Z"/>
        <g>
          <path class="cls-1" d="M0,25H5.1c2.9,0,4.4,1.4,4.4,3.4a2.8,2.8,0,0,1-2.4,2.9h0A3.2,3.2,0,0,1,10,34.7c0,2.1-1.5,3.7-4.6,3.7H0Zm4.8,5.7a2,2,0,0,0,2.2-2c0-1-.7-1.7-2.1-1.7H2.4v3.7ZM5,36.3c1.8,0,2.5-.7,2.5-1.8a2.1,2.1,0,0,0-2.4-2.1H2.4v3.9Z"/>
          <path class="cls-1" d="M11.6,33.4c0-3.1,1.8-5.2,4.7-5.2s4.6,1.5,4.6,5.1V34h-7a2.4,2.4,0,0,0,2.6,2.7,2,2,0,0,0,2.1-1.3l2.2.3c-.4,1.7-2,2.8-4.4,2.8S11.6,36.5,11.6,33.4Zm7-1A2.2,2.2,0,0,0,16.3,30a2.4,2.4,0,0,0-2.4,2.4Z"/>
          <path class="cls-1" d="M22.8,42l.6-1.9c1,.3,1.7.2,2.1-.9l.3-.6L22.1,28.3h2.5l2.3,7.6H27l2.4-7.6h2.5L27.8,39.7a3.6,3.6,0,0,1-3.5,2.6A4.3,4.3,0,0,1,22.8,42Z"/>
          <path class="cls-1" d="M33.1,33.4c0-3.1,1.9-5.2,4.8-5.2s4.8,2.1,4.8,5.2-1.9,5.1-4.8,5.1S33.1,36.5,33.1,33.4Zm7.2,0c0-1.9-.8-3.3-2.4-3.3s-2.4,1.4-2.4,3.3.8,3.3,2.4,3.3S40.3,35.2,40.3,33.4Z"/>
          <path class="cls-1" d="M47.1,38.4H44.7V28.3H47V30h.1a3,3,0,0,1,3-1.8c2.1,0,3.4,1.4,3.4,3.8v6.4H51.1V32.3a1.8,1.8,0,0,0-1.9-2.1,2,2,0,0,0-2.1,2.3Z"/>
          <path class="cls-1" d="M55.5,33.3c0-3.3,1.8-5.1,4.2-5.1A2.8,2.8,0,0,1,62.5,30h.1V25H65V38.4H62.7V36.8h-.2a2.9,2.9,0,0,1-2.8,1.7C57.3,38.5,55.5,36.7,55.5,33.3Zm7.2,0c0-1.9-.9-3.2-2.4-3.2s-2.4,1.4-2.4,3.2.9,3.3,2.4,3.3S62.7,35.3,62.7,33.3Z"/>
          <path class="cls-1" d="M72.2,25h5.1c2.9,0,4.4,1.4,4.4,3.4a2.8,2.8,0,0,1-2.4,2.9h0a3.1,3.1,0,0,1,2.9,3.3c0,2.1-1.5,3.7-4.6,3.7H72.2ZM77,30.7a2,2,0,0,0,2.2-2c0-1-.7-1.7-2.1-1.7H74.6v3.7Zm.2,5.6c1.8,0,2.5-.7,2.5-1.8a2.1,2.1,0,0,0-2.4-2.1H74.6v3.9Z"/>
          <path class="cls-1" d="M83.8,33.4c0-3.1,1.8-5.2,4.8-5.2s4.8,2.1,4.8,5.2-1.9,5.1-4.8,5.1S83.8,36.5,83.8,33.4Zm7.2,0c0-1.9-.8-3.3-2.4-3.3s-2.4,1.4-2.4,3.3.8,3.3,2.4,3.3S91,35.2,91,33.4Z"/>
          <path class="cls-1" d="M95.4,28.3h2.3V30h.1a2.5,2.5,0,0,1,2.5-1.8,2.5,2.5,0,0,1,1.3.3l-.7,2-.9-.2a2.1,2.1,0,0,0-2.2,2.1v6H95.4Z"/>
          <path class="cls-1" d="M102.6,33.3c0-3.3,1.8-5.1,4.1-5.1a2.8,2.8,0,0,1,2.9,1.8h.1V25h2.4V38.4h-2.3V36.8h-.2a3,3,0,0,1-2.9,1.7C104.4,38.5,102.6,36.7,102.6,33.3Zm7.2,0c0-1.9-.9-3.2-2.4-3.2s-2.4,1.4-2.4,3.2.8,3.3,2.4,3.3S109.8,35.3,109.8,33.3Z"/>
          <path class="cls-1" d="M114.2,33.4c0-3.1,1.9-5.2,4.7-5.2s4.6,1.5,4.6,5.1V34h-7a2.5,2.5,0,0,0,2.6,2.7,2,2,0,0,0,2.1-1.3l2.2.3c-.4,1.7-2,2.8-4.3,2.8S114.2,36.5,114.2,33.4Zm7.1-1A2.3,2.3,0,0,0,119,30a2.5,2.5,0,0,0-2.5,2.4Z"/>
          <path class="cls-1" d="M125.5,28.3h2.3V30h.1a2.5,2.5,0,0,1,2.5-1.8,2.9,2.9,0,0,1,1.4.3l-.8,2-.9-.2a2.1,2.1,0,0,0-2.2,2.1v6h-2.4Z"/>
          <path class="cls-1" d="M138.9,31.2a1.7,1.7,0,0,0-1.8-1.3c-1,0-1.8.5-1.8,1.2s.4.9,1.5,1.2l1.7.3c1.9.4,2.8,1.3,2.8,2.7s-1.8,3.2-4.3,3.2-4-1-4.3-2.9l2.3-.2a1.8,1.8,0,0,0,2,1.4c1.1,0,1.9-.6,1.9-1.2s-.5-1-1.4-1.2l-1.7-.3c-1.9-.4-2.8-1.4-2.8-2.9s1.6-3,4-3,3.8,1.1,4.1,2.8Z"/>
        </g>
      </g>
    </g>
  </g>
</svg>
