<svg xmlns="http://www.w3.org/2000/svg" width="25.2" height="51.2" viewBox="0 0 25.2 51.2">
  <defs>
    <style>
      .cls-1 {
        fill: #4d6f7b;
      }

      .cls-2 {
        fill: #dc8527;
      }

      .cls-3 {
        fill: #fb5c00;
      }
    </style>
  </defs>
  <title>ot8hLH.tif</title>
  <g id="Layer_2" data-name="Layer 2">
    <g id="Layer_1-2" data-name="Layer 1">
      <g id="ot8hLH.tif">
        <g>
          <path class="cls-1" d="M24.9,16.7l.3,1.2V20c0,5.1-.1,10.2,0,15.3V45.8c-.1.5,0,1-.1,1.5l-.2.8a5.7,5.7,0,0,1-2.6,2.7l-1.3.4H3.9a7.6,7.6,0,0,1-2.3-1.3l-.3-.3-.6-.7-.2-.3-.4-1a.9.9,0,0,0-.1-.5V17.8a5.4,5.4,0,0,1,2.3-3.5,7.7,7.7,0,0,1,1.9-.8H20.4l1.3.2H22l.9.5.4.3.6.6.4.4.4.8C24.7,16.5,24.8,16.6,24.9,16.7ZM3.2,18.2v28a1.5,1.5,0,0,0,.2,1.3q.1.3.3.3a2.1,2.1,0,0,0,1.3.3H20.7c.9-.1,1.2-.4,1.3-1.3V18c0-.2-.1-.4-.1-.6a1.3,1.3,0,0,0-1-.7H4.7A1.3,1.3,0,0,0,3.2,18.2Z"/>
          <path class="cls-2" d="M22.2,2.9l.7.6.4.2.7.7v.2a1.9,1.9,0,0,1,.2,1.3A1.5,1.5,0,0,1,23.2,7a1.9,1.9,0,0,1-1.3-.2h-.2A2.3,2.3,0,0,0,21,6c-.1-.1-.2-.3-.4-.3a1.5,1.5,0,0,0-.6-.5l-.4-.3-1-.5h-.2l-1.3-.5h-.4a5.3,5.3,0,0,0-1.2-.3c-.1,0-.2-.1-.4,0l-1.2-.2c-.2-.1-.4,0-.5,0a3.8,3.8,0,0,0-1.5,0c-.2,0-.4-.1-.6,0l-1.7.2L9,3.6a5.7,5.7,0,0,0-2.2.7,2.4,2.4,0,0,0-1.1.6,9.5,9.5,0,0,0-2,1.5,2,2,0,0,1-1.6.7l-.4-.2A1.8,1.8,0,0,1,1,6.4L.8,5.9a1.8,1.8,0,0,1,.6-1.7A15.5,15.5,0,0,1,9.4.3,5.8,5.8,0,0,0,10.8,0h3.4L16,.3l3.3,1h.3l1.1.6H21l.9.6Z"/>
          <path class="cls-2" d="M5.7,11.1a2.7,2.7,0,0,1-.2-1.3,3.6,3.6,0,0,1,.7-1A10.9,10.9,0,0,1,7.9,7.5a9.2,9.2,0,0,1,2.3-.9l.7-.2h3.8l1,.3H16l1.1.5.4.2.8.6.3.2.7.7v.2a2,2,0,0,1,.2,1.3,1.9,1.9,0,0,1-1.1,1.2,1.9,1.9,0,0,1-1.3-.3H17l-.6-.7-.4-.3a2,2,0,0,0-.9-.5l-.5-.2-1.1-.2H11.4l-.7.2a4.3,4.3,0,0,0-2.3,1.4,1.9,1.9,0,0,1-1.2.7H6.7l-.8-.5Z"/>
          <path class="cls-1" d="M17.1,29.9l.2.5a2.7,2.7,0,0,1-.3,1.5h-.2a2.1,2.1,0,0,1-1.5.4l-.5-.2a1.5,1.5,0,0,1-.6-.9v-.2c.1-1.4.5-1.8,1.9-1.9h.2A1.5,1.5,0,0,1,17.1,29.9Z"/>
          <path class="cls-1" d="M17.3,25.7v.5c-.2,1-.5,1.3-1.5,1.5h-.5a2.4,2.4,0,0,1-.8-.6h-.1a2,2,0,0,1-.2-1.3,1.5,1.5,0,0,1,1.1-1.2,2.5,2.5,0,0,1,1.2.2h.3A4.1,4.1,0,0,1,17.3,25.7Z"/>
          <path class="cls-1" d="M8.1,31.7l-.2-.4a2.2,2.2,0,0,1,.3-1.6h.2a2,2,0,0,1,1.5-.3h.4l.7.9v.2c0,1.4-.5,1.9-1.9,1.9H8.9A1.6,1.6,0,0,1,8.1,31.7Z"/>
          <path class="cls-3" d="M12.3,45l-.4-.2a1.8,1.8,0,0,1-.7-.5l-.2-.5V42.1q.1-.3-.3-.3H9.1a1.9,1.9,0,0,1-.9-.5v-.2a1.9,1.9,0,0,1-.2-1.3A1.7,1.7,0,0,1,9,38.7h1.7c.3,0,.3-.1.3-.3V36.7a1.8,1.8,0,0,1,1.2-1.2h1.1l.3.2a2,2,0,0,1,.5.9v1.7c-.1.2,0,.3.2.2h1.8l.4.2.6.7v.3c0,1.4-.5,1.8-1.9,1.9s-1.3-.1-1.2,1.3-.4,1.6-1.2,1.8Z"/>
          <path class="cls-1" d="M9.7,19.8h.2a1.5,1.5,0,0,1,.9.6l.2.4a2.2,2.2,0,0,1-.3,1.6h-.2a2.1,2.1,0,0,1-1.5.3H8.6a2.8,2.8,0,0,1-.7-.9v-.2C7.9,20.3,8.3,19.8,9.7,19.8Z"/>
          <path class="cls-1" d="M7.9,26.1v-.5a1.4,1.4,0,0,1,1.1-1h.4a2.1,2.1,0,0,1,1.1.4h.2a2.3,2.3,0,0,1,.3,1.1v.5a1.6,1.6,0,0,1-1.1,1H9.4a2.1,2.1,0,0,1-1-.4H8.2A2.3,2.3,0,0,1,7.9,26.1Z"/>
          <path class="cls-1" d="M15.6,19.8h.5l.9.5c0,.1,0,.2.1.2a2.7,2.7,0,0,1,.2,1.3,1.5,1.5,0,0,1-1.2,1.1,3,3,0,0,1-1.3-.1c0-.1,0-.1-.1-.2a1.4,1.4,0,0,1-.5-.8v-.5A1.6,1.6,0,0,1,15.6,19.8Z"/>
        </g>
      </g>
    </g>
  </g>
</svg>
