<svg xmlns="http://www.w3.org/2000/svg" width="469" height="300.1" viewBox="0 0 469 300.1">
  <defs>
    <style>
      .cls-1 {
        fill: #eeefee;
      }

      .cls-2 {
        fill: #faba61;
      }

      .cls-3 {
        fill: #f9c562;
      }

      .cls-4 {
        fill: #fab360;
      }

      .cls-5 {
        fill: #faad60;
      }

      .cls-6 {
        fill: #fba760;
      }

      .cls-7 {
        fill: #f8cb62;
      }

      .cls-8 {
        fill: #f9eac9;
      }

      .cls-9 {
        fill: #fcba8c;
      }

      .cls-10 {
        fill: #ed6246;
      }

      .cls-11 {
        fill: #f26e41;
      }

      .cls-12 {
        fill: #f67a3b;
      }

      .cls-13 {
        fill: #faeaca;
      }

      .cls-14 {
        fill: #fafafa;
      }

      .cls-15 {
        fill: #f8c252;
      }
    </style>
  </defs>
  <title>sbjUTI.tif</title>
  <g id="Layer_2" data-name="Layer 2">
    <g id="Layer_1-2" data-name="Layer 1">
      <g id="sbjUTI.tif">
        <g>
          <path class="cls-1" d="M19.5,190c-5.6,3.3-11.3,6.5-17.1,9.4A5.3,5.3,0,0,1,0,200v-1.5c4.1-1.3,7.7-3.6,11.4-5.7s5.7-3.2,8.6-4.8C19.8,188.6,19.7,189.3,19.5,190Z"/>
          <path class="cls-2" d="M342.5,55.9c3.6,3.5,5.9,7.8,8.4,12a141.9,141.9,0,0,1,15.5,38.6c.1.3,0,.7.1,1-1.9.9-3.6,2-5.8,2a1.3,1.3,0,0,0-1.1.9c-1.1,2-3,2.7-5.1,3.1a8,8,0,0,0-3.2,1.3c-3,2.6-7.7,2.3-10.1,6l-.7.2a14.6,14.6,0,0,0-6.6,2.6,9.1,9.1,0,0,1-5,1.9,1.7,1.7,0,0,0-1.4.9c-1,2-2.8,2.7-4.8,3.1a6.4,6.4,0,0,0-3,1.1c-2.1,1.3-4.1,2.8-6.7,2.9a1.5,1.5,0,0,0-1.4.9c-1.1,2-2.9,2.7-5.1,3.1a6.1,6.1,0,0,0-3.1,1.3c-3.1,2.5-7.8,2.3-10.2,6l-.7.2a14.6,14.6,0,0,0-6.6,2.6,9.1,9.1,0,0,1-5,1.9,1.7,1.7,0,0,0-1.4.9c-1,2-2.8,2.7-4.8,3.1a6.4,6.4,0,0,0-3,1.1c-2.1,1.3-4.1,2.8-6.7,2.9a1.6,1.6,0,0,0-1.4.8c-1.1,2.1-2.9,2.8-5.1,3.2a6.8,6.8,0,0,0-2.5.9c-2.2,1.4-4.4,3-7.2,3.1a1.4,1.4,0,0,0-1.2.8c-1.1,2.1-3,2.8-5.2,3.2a5.9,5.9,0,0,0-2.6,1c-3,2.8-8.1,2.3-10.5,6.3l-.7.2a14.6,14.6,0,0,0-6.6,2.6,9.1,9.1,0,0,1-5,1.9,1.6,1.6,0,0,0-1.5,1,6.1,6.1,0,0,1-4.5,2.9c-3.8.9-3.6.9-3.1,4.8.1,1.1,2,2.2.6,2.9s-1.9-1.3-2.8-2.2-4.7-2-6.7.3a4.1,4.1,0,0,1-2.6,1.8,18,18,0,0,0-9.4,5h-1l-.5-.4c-.5-3.1-.9-6.2-1.5-9.3A85.6,85.6,0,0,0,166,151c-1.5-1.8-3.8-3.1-4.5-5.5,1.8-.6,1.7-3.2,4-3.6s4.9-.4,6.8-2.4,2.1-.7,2.9.7a35.4,35.4,0,0,0,3.2,4.4c.5.6.8,2.1,1.7,1.5s-.2-1.5-.5-2.3-.7-1.7-.9-2.6c-.9-3.1.9-7.3,3.9-7.5s7.8-3,11.5-4.7,5.4-2.8,8.2-4.1,7.9-2.9,11-5.8c1.4-1.4,3.8-1,5.1-2.1,3.9-3.1,9.3-3.3,13-6.9,1.2-1.2,4-1.6,5.8-2.8s8-1.2,10.2-5.4c.2-.3.9-.3,1.4-.4,2.4-.3,4.8-.5,6.3-2.8.2-.4.8-.5,1.3-.7,2.3-1,5.4-.7,6.6-3.7.2-.6,1-.8,1.7-.8,2.4-.3,4.9-.4,6.4-2.8.4-.7,1.3-.5,2-.8s5.3.2,5.8-3.5c.2-.8,1.3-1,2.2-.9s2.9-1.4,4.6-.9c1.1-3.3,4.3-2.7,6.6-3.4s2.3-.5,2.4-2.2,1-1.4,2.2-1.4,4.9.3,6-2.6c.2-.7.9-.9,1.6-1l4.6-1c.5-.1,1.3-.1,1.2-.6,0-2.6,1.9-2.2,3.4-2.6s4.1-.4,5.5-2.8c.4-.6,3.1-1.1,4.8-1.7s2.7-.4,2.7-2.4.9-.8,1.6-.9c2.5-.6,5.3-.3,7-3,.2-.3.7-.2,1.1-.3A18.8,18.8,0,0,0,342.5,55.9Z"/>
          <path class="cls-3" d="M187,198a18,18,0,0,1,9.4-5,4.1,4.1,0,0,0,2.6-1.8c2-2.3,4.4-2.4,6.7-.3s1.8,2.7,2.8,2.2-.5-1.8-.6-2.9c-.5-3.9-.7-3.9,3.1-4.8a6.1,6.1,0,0,0,4.5-2.9,1.6,1.6,0,0,1,1.5-1,9.1,9.1,0,0,0,5-1.9,14.6,14.6,0,0,1,6.6-2.6l.7-.2c2.4-4,7.5-3.5,10.5-6.3a5.9,5.9,0,0,1,2.6-1c2.2-.4,4.1-1.1,5.2-3.2a1.4,1.4,0,0,1,1.2-.8c2.8-.1,5-1.7,7.2-3.1a6.8,6.8,0,0,1,2.5-.9c2.2-.4,4-1.1,5.1-3.2a1.6,1.6,0,0,1,1.4-.8c2.6-.1,4.6-1.6,6.7-2.9a6.4,6.4,0,0,1,3-1.1c2-.4,3.8-1.1,4.8-3.1a1.7,1.7,0,0,1,1.4-.9,9.1,9.1,0,0,0,5-1.9,14.6,14.6,0,0,1,6.6-2.6l.7-.2c2.4-3.7,7.1-3.5,10.2-6a6.1,6.1,0,0,1,3.1-1.3c2.2-.4,4-1.1,5.1-3.1a1.5,1.5,0,0,1,1.4-.9c2.6-.1,4.6-1.6,6.7-2.9a6.4,6.4,0,0,1,3-1.1c2-.4,3.8-1.1,4.8-3.1a1.7,1.7,0,0,1,1.4-.9,9.1,9.1,0,0,0,5-1.9,14.6,14.6,0,0,1,6.6-2.6l.7-.2c2.4-3.7,7.1-3.4,10.1-6a8,8,0,0,1,3.2-1.3c2.1-.4,4-1.1,5.1-3.1a1.3,1.3,0,0,1,1.1-.9c2.2,0,3.9-1.1,5.8-2,1.4,4.5,1.6,9.4,2.7,14H369a14.2,14.2,0,0,1-2,.4,76.5,76.5,0,0,0-23.4,6.2A83.2,83.2,0,0,0,293.5,198c-5.7,2.3-7.6,5.9-5.9,11l.9,2.5c-1.6,1.7-4.2,1.4-6.2,2.5l-6,3.4c-3.7,2.2-7.7,3.5-11.4,5.5-1.1.5-1.3,1.7-2.4,2-4.7,1.4-8.8,4.2-13.3,5.9-1.7.7-2.7,2.6-4.9,2.5s-.9,1.4-.5,2.3a18.8,18.8,0,0,0,2.7,4.2c.3.3.6.7.1,1a.9.9,0,0,1-.9-.1,3.8,3.8,0,0,1-1.2-1c-3.5-3.7-6.3-3.8-10.8-1.3-1.2.7-2.1,2.2-3.3,2.4-4.2.8-7.4,3.8-11.5,5.2s-7,3.8-10.7,5.5c-.8.3-1,1.4-1.9,1.4-4.5.3-7.3,4.1-11.3,5.3-2,.6-3.4,2.4-5.4,2.8-3.6.6-6,2.9-8.6,5a58.6,58.6,0,0,1-10.6-4.6c.3-.6.5-1.3.8-1.8a81.4,81.4,0,0,0,7.7-16.7c2.8-8.9,4.2-18.1,6-27.2a1.9,1.9,0,0,1,1.7-1.9c4.6-1.3,6.5-4.1,6.3-8.8a6.6,6.6,0,0,0-2.9-5.1C189.4,198.7,187.9,198.8,187,198Z"/>
          <path class="cls-4" d="M342.5,55.9a18.8,18.8,0,0,1-6.1,2.8c-.4.1-.9,0-1.1.3-1.7,2.7-4.5,2.4-7,3-.7.1-1.6.2-1.6.9s-1.4,2-2.7,2.4-4.4,1.1-4.8,1.7c-1.4,2.4-3.6,2.2-5.5,2.8s-3.4,0-3.4,2.6c.1.5-.7.5-1.2.6l-4.6,1c-.7.1-1.4.3-1.6,1-1.1,2.9-3.8,2.5-6,2.6s-2.2.4-2.2,1.4-1.1,1.8-2.4,2.2-5.5.1-6.6,3.4c-1.7-.5-3,1.1-4.6.9s-2,.1-2.2.9c-.5,3.7-3.7,2.6-5.8,3.5s-1.6.1-2,.8c-1.5,2.4-4,2.5-6.4,2.8-.7,0-1.5.2-1.7.8-1.2,3-4.3,2.7-6.6,3.7-.5.2-1.1.3-1.3.7-1.5,2.3-3.9,2.5-6.3,2.8-.5.1-1.2.1-1.4.4-2.2,4.2-7,3.3-10.2,5.4s-4.6,1.6-5.8,2.8c-3.7,3.6-9.1,3.8-13,6.9-1.3,1.1-3.7.7-5.1,2.1-3.1,2.9-7.3,4-11,5.8s-5.4,2.9-8.2,4.1-7.1,4.4-11.5,4.7-4.8,4.4-3.9,7.5c.2.9.7,1.7.9,2.6s1.5,1.7.5,2.3-1.2-.9-1.7-1.5a35.4,35.4,0,0,1-3.2-4.4c-.8-1.4-2-1.5-2.9-.7s-4.5,1.9-6.8,2.4-2.2,3-4,3.6-1.3-.6-1.9-1.1c-5.9-6.2-13.1-10.4-20.5-14.4-3.7-2-7.8-3.3-11.6-5,0-1,.2-2,1.4-2,3.2.1,4.9-2.8,7.7-3.6s4.5-3.7,7.7-3c.2,0,.6-.4.7-.7a2.2,2.2,0,0,1,2.3-1.2,2.8,2.8,0,0,0,2.5-1.3c.4-1,1.2-1.1,2-1.6s4-.8,5.4-2.1,3.2-.3,4.4,1.2,1.4,3.1,3.1,4.2c.5-1.5,0-2.6-.3-3.8a5.6,5.6,0,0,1,.7-5.4c1.5-2.2,3.8-2.4,5.5-3s3.7-3.9,6.6-2.3h.3c1.3-2.7,4.3-2.3,6.5-3.4s.8-2.6,2.2-2.4,4-3.8,7-2.2c.1.1.6-.2.6-.3.3-1.8,2-1.5,3.1-2s3.4-.7,3.6-1.4c.8-2.8,3.2-2.1,4.9-3s4-.2,4.8-1.7,1.8-1.5,2.8-1.9,3.5-.9,3.7-1.7,2.2-1.9,3.6-2.4,4.2-.4,5.6-1.5a20.5,20.5,0,0,1,6.5-3.5c.6-.2,1-.4,1.1-1.1s1-1.2,1.9-1.5c3.3-1,6.8-1.6,9.4-3.8s4.6-.9,5.4-3.8c.2-.7,2.5.5,3.5-.8a2.6,2.6,0,0,1,2.5-1c1.2.1,2.1-.7,3.2-1,3.7-1.1,5.7-4.6,9.5-5.8s5.7-.9,8.1-3a7.1,7.1,0,0,1,3-2.1c3.7-.9,6.7-3.3,10.2-4.7s7-2.4,9.9-5.1,6.3-2.6,9.3-4.3c.9-.5,1.7-1.6,3-1.5s3.6-2,4.6-3.9a73,73,0,0,1,14.1,12.5c3.5,3.8,6.7,7.9,10.1,11.8A8.6,8.6,0,0,1,342.5,55.9Z"/>
          <path class="cls-5" d="M317,29.6c-1,1.9-1.9,4-4.6,3.9s-2.1,1-3,1.5c-3,1.7-6.8,2-9.3,4.3s-6.6,3.8-9.9,5.1-6.5,3.8-10.2,4.7a7.1,7.1,0,0,0-3,2.1c-2.4,2.1-5.5,2.2-8.1,3s-5.8,4.7-9.5,5.8c-1.1.3-2,1.1-3.2,1a2.6,2.6,0,0,0-2.5,1c-1,1.3-3.3.1-3.5.8-.8,2.9-3.7,2.4-5.4,3.8s-6.1,2.8-9.4,3.8c-.9.3-1.8.3-1.9,1.5s-.5.9-1.1,1.1a20.5,20.5,0,0,0-6.5,3.5c-1.4,1.1-3.7.9-5.6,1.5s-3,.2-3.6,2.4-2.4,1.1-3.7,1.7-2.1.5-2.8,1.9-3.2.9-4.8,1.7-4.1.2-4.9,3c-.2.7-2.4.9-3.6,1.4s-2.8.2-3.1,2c0,.1-.5.4-.6.3-3-1.6-4.3,2.5-7,2.2s-1.1,1.8-2.2,2.4-5.2.7-6.5,3.4h-.3c-2.9-1.6-4.4,1.6-6.6,2.3s-4,.8-5.5,3a5.6,5.6,0,0,0-.7,5.4c.3,1.2.8,2.3.3,3.8-1.7-1.1-2-3-3.1-4.2s-2.1-3.4-4.4-1.2-3.7,1-5.4,2.1-1.6.6-2,1.6a2.8,2.8,0,0,1-2.5,1.3,2.2,2.2,0,0,0-2.3,1.2c-.1.3-.5.7-.7.7-3.2-.7-5.1,2.2-7.7,3s-4.5,3.7-7.7,3.6c-1.2,0-1.4,1-1.4,2a146.4,146.4,0,0,0-17.5-3.5c-.6-.8-.4-2-1.4-2.5a3,3,0,0,0-1-1.7c-3-2.8-7.7-3.7-12,.7a79.2,79.2,0,0,1,2.9-14.5c.3-.1.8-.1.9-.3,1.2-2.8,3.7-2.9,6.2-3.2s3.5-.6,4.3-2.4a1.7,1.7,0,0,1,2.3-1,2.3,2.3,0,0,0,3.1-1.3c1.3-2.4,3.2-3.1,5.8-2.8a4.3,4.3,0,0,0,1.6-.5c2.6-.6,3.7-4.6,7.3-3.4.2.1.7-.8,1.2-1.1s2.5-3,4.5-2.9a7.7,7.7,0,0,0,4.8-1.6c1.7-1.3,2.9-3.4,5.6-2.2.1.1.7-.6,1-1s1.5-1,2.2.2a9.8,9.8,0,0,0,3.6,3.7c-.6-1.6-.2-3.2-.6-4.7s-.4-1.6.3-1.7,2.9-1.4,4-2.4,5.9-1.4,7.9-4.1,2.7-3.1,5.1-1.9a1.4,1.4,0,0,0,1.1-.4c3.1-3.3,8.4-3.3,11.3-7a1.2,1.2,0,0,1,1.1-.4c2.7.6,4.3-1.4,6.3-2.5a13.1,13.1,0,0,1,3.3-1.2c1.8-.5,4.4-.1,4.6-3.2,0-.7,1.1-1.2,1.8-1.1,2.2.2,3.9-.8,5.6-2.1a12.2,12.2,0,0,1,4.9-1.9c1.2-.2,3.1.1,3.3-1.6s1.2-2,2.7-2.1,4.2,0,5.2-1.6a5.6,5.6,0,0,1,4.2-2.5c1.4-.1,3.6.5,3.9-1.7s1.4-2,2.8-2.1,4.8-.3,6-3a2.4,2.4,0,0,1,2.4-1c1.4.2,2.6-.4,3.9-.6s1.4-.3,1.3-1c-.6-3,1.6-2.2,3.1-2.4s4.1,0,5.1-2.6c.4-1.1,1.7-1.5,3-1.4a11.5,11.5,0,0,0,3.6-.7c.6-.1,1.4-.3,1.2-1-.7-2.4,1.1-2.1,2.4-2.3s5.3.6,6.2-3c.2-.7,1.1-.2,1.8-.3a16.6,16.6,0,0,0,5.6-2.1c-.6-3.6,2.2-2.1,3.8-2.7s4,.5,4.9-2c5.3,1.8,10,4.5,14.8,7.2A124.8,124.8,0,0,1,317,29.6Z"/>
          <path class="cls-6" d="M286,11.4c-.9,2.5-3.3,1.4-4.9,2s-4.4-.9-3.8,2.7a16.6,16.6,0,0,1-5.6,2.1c-.7.1-1.6-.4-1.8.3-.9,3.6-3.9,2.6-6.2,3s-3.1-.1-2.4,2.3c.2.7-.6.9-1.2,1a11.5,11.5,0,0,1-3.6.7c-1.3-.1-2.6.3-3,1.4-1,2.6-3.1,2.4-5.1,2.6s-3.7-.6-3.1,2.4c.1.7-.7.9-1.3,1s-2.5.8-3.9.6a2.4,2.4,0,0,0-2.4,1c-1.2,2.7-3.7,2.7-6,3s-2.5.2-2.8,2.1-2.5,1.6-3.9,1.7a5.6,5.6,0,0,0-4.2,2.5c-1,1.6-3.3,1.6-5.2,1.6s-2.5.2-2.7,2.1-2.1,1.4-3.3,1.6a12.2,12.2,0,0,0-4.9,1.9c-1.7,1.3-3.4,2.3-5.6,2.1-.7-.1-1.8.4-1.8,1.1-.2,3.1-2.8,2.7-4.6,3.2a13.1,13.1,0,0,0-3.3,1.2c-2,1.1-3.6,3.1-6.3,2.5a1.2,1.2,0,0,0-1.1.4c-2.9,3.7-8.2,3.7-11.3,7a1.4,1.4,0,0,1-1.1.4c-2.4-1.2-4,.3-5.1,1.9s-5.6,2.1-7.9,4.1-2.3,2.2-4,2.4-.6,1-.3,1.7,0,3.1.6,4.7a9.8,9.8,0,0,1-3.6-3.7c-.7-1.2-1.4-1.3-2.2-.2s-.9,1.1-1,1c-2.7-1.2-3.9.9-5.6,2.2a7.7,7.7,0,0,1-4.8,1.6c-2-.1-3,2-4.5,2.9s-1,1.2-1.2,1.1c-3.6-1.2-4.7,2.8-7.3,3.4a4.3,4.3,0,0,1-1.6.5c-2.6-.3-4.5.4-5.8,2.8a2.3,2.3,0,0,1-3.1,1.3,1.7,1.7,0,0,0-2.3,1c-.8,1.8-2.6,2.1-4.3,2.4s-5,.4-6.2,3.2c-.1.2-.6.2-.9.3a116.1,116.1,0,0,1,8.3-23.6,138.4,138.4,0,0,1,29.8-41.7,12.9,12.9,0,0,0,1.6-1.7,1.7,1.7,0,0,0,1.2-1A147.6,147.6,0,0,1,173,13.2,138.8,138.8,0,0,1,222,.4,137.1,137.1,0,0,1,278.4,8,43,43,0,0,1,286,11.4ZM247,9.5c-1.6-4.1-6.6-5.3-9.9-4s-6,5.8-4.5,10.5,6.8,6.3,11.1,4.1A7.8,7.8,0,0,0,247,9.5Z"/>
          <path class="cls-7" d="M181,266c2.6-2.1,5-4.4,8.6-5,2-.4,3.4-2.2,5.4-2.8,4-1.2,6.8-5,11.3-5.3.9,0,1.1-1.1,1.9-1.4,3.7-1.7,7-4.2,10.7-5.5s7.3-4.4,11.5-5.2c1.2-.2,2.1-1.7,3.3-2.4,4.5-2.5,7.3-2.4,10.8,1.3a3.8,3.8,0,0,0,1.2,1,.9.9,0,0,0,.9.1c.5-.3.2-.7-.1-1a18.8,18.8,0,0,1-2.7-4.2c-.4-.9-.5-2.4.5-2.3s3.2-1.8,4.9-2.5c4.5-1.7,8.6-4.5,13.3-5.9,1.1-.3,1.3-1.5,2.4-2,3.7-2,7.7-3.3,11.4-5.5l6-3.4c2-1.1,4.6-.8,6.2-2.5,1.9.8,3.4,2.2,5.5,2.5.2,2.3.3,4.5.7,6.7a80.5,80.5,0,0,0,9,24.7c1.5,2.4,2.5,5.3,4.8,7.1v.5A157.9,157.9,0,0,1,276,268.9c-.6.1-1.1.1-1.5.6-5.8,1.4-11.5,3.1-17.4,4.2a137.1,137.1,0,0,1-75.5-7.3C181.4,266.4,181.2,266.2,181,266Z"/>
          <path class="cls-8" d="M468.8,208.3a76.7,76.7,0,0,1-2.9,27.3,80,80,0,0,1-16.8,31.3A83.1,83.1,0,0,1,384,296c-.8-.1-1.8.3-2.5-.6,2.6-1.8,4.4-4.1,4.6-7.4a20.6,20.6,0,0,0,3.5-.2,85.1,85.1,0,0,0,52.9-30.5,86.7,86.7,0,0,0,12-20.6,67.6,67.6,0,0,0,5.6-22.6A8.7,8.7,0,0,0,468.8,208.3Z"/>
          <path class="cls-8" d="M444.5,155c3.1,1.3,4.8,4.2,6.8,6.7a85.3,85.3,0,0,1,16.6,37.2,24.3,24.3,0,0,1,0,2.7,9.6,9.6,0,0,0-7.4-3.7c-.1-1.2-.4-2.4-.5-3.7a76.1,76.1,0,0,0-9.4-29C448.7,161.7,446.5,158.4,444.5,155Z"/>
          <path class="cls-9" d="M444.5,155c2,3.4,4.2,6.7,6.1,10.2a76.1,76.1,0,0,1,9.4,29c.1,1.3.4,2.5.5,3.7H459c-.1-.7-.4-1.4-.5-2.2a80.7,80.7,0,0,0-10.9-32.7A78,78,0,0,0,429.5,142l-.5-.5h0A75.3,75.3,0,0,0,408.3,129a70.9,70.9,0,0,0-22.3-5.5v-1.6a72.7,72.7,0,0,1,23.7,6.1,80.8,80.8,0,0,1,25.7,17.1C438.7,148.2,442,151.2,444.5,155Z"/>
          <path class="cls-8" d="M373.6,294.9a47.6,47.6,0,0,1-13.9-3.2,80.2,80.2,0,0,1-24.6-13.2c-.6-.4-1.1-.7-1.1-1.5a3.2,3.2,0,0,1,.9.3c10.8,6.5,22.6,9.9,35.1,11.2a4.4,4.4,0,0,0,.9,2.7C371.1,292.9,372.7,293.7,373.6,294.9Z"/>
          <path class="cls-9" d="M370,288.5c-12.5-1.3-24.3-4.7-35.1-11.2a3.2,3.2,0,0,0-.9-.3c-10-6.4-18.8-14.1-25.5-24v-.5l1-.5h.4c2.3,4.5,6.2,7.9,9.6,11.6l.9.9.6.5c.5,1.2,1.7,1.6,2.6,2.3a80.7,80.7,0,0,0,33.9,17.4c4.1.9,8.3,1.4,12.4,2.2A8.1,8.1,0,0,0,370,288.5Z"/>
          <path class="cls-10" d="M459,198h1.5a9.6,9.6,0,0,1,7.4,3.7,18,18,0,0,1,.5,1.9,127.7,127.7,0,0,0-13.8,7l-.5-.6C451.5,205.3,453.3,200.9,459,198Z"/>
          <path class="cls-11" d="M386.1,121.9v1.6c-.2,2.7-1.7,4.7-3.8,6.4a10.9,10.9,0,0,1-6.4,1c-2-1.2-4.2-2.1-4.9-4.7,4.2-3.2,9.1-5,13.8-7.3A9.1,9.1,0,0,1,386.1,121.9Z"/>
          <path class="cls-12" d="M373.6,294.9c-.9-1.2-2.5-2-2.7-3.7a2.9,2.9,0,0,1,1.8-1.3l12-6c.8.7.9,1.7,1.3,2.6s.1,1,.1,1.5c-.2,3.3-2,5.6-4.6,7.4A10.3,10.3,0,0,1,373.6,294.9Z"/>
          <path class="cls-10" d="M384.7,118.9c-4.7,2.3-9.6,4.1-13.8,7.3-1.1-1.4-.9-3.1-1-4.7s2.9-5.4,6.2-6.3S382.5,116.1,384.7,118.9Z"/>
          <path class="cls-12" d="M454.6,210.5a127.7,127.7,0,0,1,13.8-7c1,1.5.5,3.2.4,4.8a8.7,8.7,0,0,1-8.7,5.8l-1.4-.2C457.2,212.9,455.4,212.3,454.6,210.5Z"/>
          <path class="cls-1" d="M369.9,121.5c.1,1.6-.1,3.3,1,4.7s2.9,3.5,4.9,4.7l-5.8.6-.4-.2a34.2,34.2,0,0,0-.6-7.8,2.8,2.8,0,0,0,0-2h.9Z"/>
          <path class="cls-12" d="M192.9,205c.2,4.7-1.7,7.5-6.3,8.8a1.9,1.9,0,0,0-1.7,1.9c-1.8,9.1-3.2,18.3-6,27.2a81.4,81.4,0,0,1-7.7,16.7c-.3.5-.5,1.2-.8,1.8h-.9a10.1,10.1,0,0,0-4-2l-1.3-.9a26.1,26.1,0,0,0-2.8-1.7,135.3,135.3,0,0,1-40.7-37.2c4.2-1.8,7.5-4.9,11.2-7.5,8.9-6.1,17.6-12.6,26.5-18.7a135.2,135.2,0,0,0,13.7-10.2A3.9,3.9,0,0,1,175,182c.5.8,1,1.5,1.4,2.3a112.1,112.1,0,0,1,4.6,14.6c-3.7,3-4.7,5.4-3.5,8.6a4.1,4.1,0,0,0,2.1,4.2c1.6.8,2.4-1,3.6-1.6C186.5,208.5,189.4,206.1,192.9,205Z"/>
          <path class="cls-13" d="M165.5,259.3a10.1,10.1,0,0,1,4,2c.2,1.2-.6,2.1-1.2,2.9a82.8,82.8,0,0,1-41.9,31.5,79.6,79.6,0,0,1-31.7,4.2,83.1,83.1,0,0,1-48.9-20c-3.1-2.6-5.9-5.6-8.8-8.4l-.5-.5c-.8-2.2-2.5-3.7-3.8-5.5A84.8,84.8,0,0,1,17,213.9l1.9.2c.8,10.9,4.3,20.9,9.3,30.4a84.8,84.8,0,0,0,17.7,22.7c7.9,7.2,17,12.3,26.8,16.3,6.9,2.7,14.1,3.9,21.3,5,.3,1.4.4,2.9,1.6,4a7.1,7.1,0,0,0,7.8,3.3c3.9-.7,6.1-3.4,6.6-7.3l8.1-1.3c13.1-2.4,24.7-8.1,35.2-16A57.4,57.4,0,0,0,165.5,259.3Z"/>
          <path class="cls-11" d="M246,283a7.4,7.4,0,0,1,.9,8.9,8,8,0,0,1-7.9,4,7.5,7.5,0,0,1-6.5-5.9,4,4,0,0,0,2.6-.6c2.6-1.8,5.7-2.9,8.5-4.5A5,5,0,0,0,246,283Z"/>
          <path class="cls-10" d="M246,283a5,5,0,0,1-2.4,1.9c-2.8,1.6-5.9,2.7-8.5,4.5a4,4,0,0,1-2.6.6,7.4,7.4,0,0,1,3.3-8.8c2.4-1.6,7.2-1.9,9.1.9Z"/>
          <path class="cls-9" d="M19.5,190c.2-.7.3-1.4.5-2a82.9,82.9,0,0,1,17.3-36.2,74.8,74.8,0,0,1,21-18.2c.8-.4,1.5-1,2.3-1.5a4.4,4.4,0,0,0,2-1.1A102.1,102.1,0,0,1,84,123l2-.4,8-1.1v2a73,73,0,0,0-32.1,9.9l-1.4.9c-6.6,3.2-11.9,7.9-17,13a78.3,78.3,0,0,0-16.7,24.6c-2.2,5-4.2,10.1-4.8,15.6-1.4,3.4-1.3,7-1.6,10.5H18.5Z"/>
          <path class="cls-10" d="M18.5,198h1.9c2.9.9,5.2,2.4,6,5.5a25.2,25.2,0,0,1-2.9,1.2c-3.9,1.5-6.9,4.5-10.9,5.8C9,205.2,11.8,199.2,18.5,198Z"/>
          <path class="cls-12" d="M12.6,210.5c4-1.3,7-4.3,10.9-5.8a25.2,25.2,0,0,0,2.9-1.2c1.7,4.6-.5,8.5-5.9,10.5H18.9l-1.9-.2C15.3,213,13.4,212.4,12.6,210.5Z"/>
          <path class="cls-10" d="M94,123.5v-2c.5-1.1,1.1-2.3,1.6-3.5,4.3-4.4,9-3.5,12-.7a3,3,0,0,1,1,1.7,121.9,121.9,0,0,1-14,7A5.4,5.4,0,0,1,94,123.5Z"/>
          <path class="cls-6" d="M110,121.5a146.4,146.4,0,0,1,17.5,3.5c3.8,1.7,7.9,3,11.6,5,7.4,4,14.6,8.2,20.5,14.4.6.5,1,1.1,1.9,1.1.7,2.4,3,3.7,4.5,5.5a85.6,85.6,0,0,1,18,37.2c.6,3.1,1,6.2,1.5,9.3v.4H184a25.6,25.6,0,0,1-.5-2.7,76.7,76.7,0,0,0-10-30.6c-4.8-8.2-10.2-15.9-18-21.6a6.1,6.1,0,0,0-2.2-2.3c-5.8-4.2-11.7-8.2-18.3-11s-16.2-5.9-24.9-6.2Z"/>
          <path class="cls-10" d="M184,197.9h3c.9.8,2.4.7,3,1.9s-.5,1.3-1.2,1.7c-2.6,1.5-5.3,2.7-7.6,4.7a4.5,4.5,0,0,1-3.7,1.2c-1.2-3.2-.2-5.6,3.5-8.6Z"/>
          <path class="cls-3" d="M186,197.9h-.5v-.4Z"/>
          <path class="cls-6" d="M369,121.5a2.8,2.8,0,0,1,0,2,17.7,17.7,0,0,0-5.1.5,76.5,76.5,0,0,0-25.6,8.5,84.3,84.3,0,0,0-23.9,19.3,80.6,80.6,0,0,0-10.7,15.9,88.2,88.2,0,0,0-8.7,30.2h-1.5a83.2,83.2,0,0,1,50.1-69.9,76.5,76.5,0,0,1,23.4-6.2A14.2,14.2,0,0,0,369,121.5Z"/>
          <path class="cls-12" d="M294,214c-2.1-.3-3.6-1.7-5.5-2.5l-.9-2.5a101.6,101.6,0,0,0,14-7c1.2,1,1.3,2.5,1.4,4v2.4c-1.7,3-3.8,5.3-7.5,5.6Z"/>
          <path class="cls-10" d="M301.6,202a101.6,101.6,0,0,1-14,7c-1.7-5.1.2-8.7,5.9-11H295C297.9,198.2,300.3,199.3,301.6,202Z"/>
          <path class="cls-11" d="M177.5,207.5a4.5,4.5,0,0,0,3.7-1.2c2.3-2,5-3.2,7.6-4.7.7-.4,1.2-.8,1.2-1.7a6.6,6.6,0,0,1,2.9,5.1c-3.5,1.1-6.4,3.5-9.7,5.1-1.2.6-2,2.4-3.6,1.6A4.1,4.1,0,0,1,177.5,207.5Z"/>
          <path class="cls-12" d="M110,121.5v2a7.5,7.5,0,0,1-1.8,4.5c-4,4.6-9.6,3.9-13.6-1.5V126a121.9,121.9,0,0,0,14-7C109.6,119.5,109.4,120.7,110,121.5Z"/>
          <path class="cls-12" d="M247,9.5a7.8,7.8,0,0,1-3.3,10.6c-4.3,2.2-8.8.5-11.1-4.1,2.7-.9,5.2-2.6,7.8-3.7S244.5,9.7,247,9.5Z"/>
          <path class="cls-10" d="M247,9.5c-2.5.2-4.4,1.8-6.6,2.8s-5.1,2.8-7.8,3.7c-1.5-4.7.4-8.9,4.5-10.5S245.4,5.4,247,9.5Z"/>
          <path class="cls-6" d="M294,214h1.5c.2,1.8.3,3.7.6,5.4A84.1,84.1,0,0,0,309.5,252l-1,.5c-2.3-1.8-3.3-4.7-4.8-7.1a80.5,80.5,0,0,1-9-24.7C294.3,218.5,294.2,216.3,294,214Z"/>
          <path class="cls-9" d="M458.7,213.9l1.4.2a67.6,67.6,0,0,1-5.6,22.6,86.7,86.7,0,0,1-12,20.6,85.1,85.1,0,0,1-52.9,30.5,20.6,20.6,0,0,1-3.5.2c0-.5-.1-1-.1-1.5a81.7,81.7,0,0,0,20.5-4.9,80.2,80.2,0,0,0,34.3-24.9A82.1,82.1,0,0,0,458.7,213.9Z"/>
          <path class="cls-8" d="M458.7,213.9a82.1,82.1,0,0,1-17.9,42.8,80.2,80.2,0,0,1-34.3,24.9,81.7,81.7,0,0,1-20.5,4.9c-.4-.9-.5-1.9-1.3-2.6-2-2.9-4.7-4.6-8.4-3.8s-5.5,3.4-6.4,6.8c-4.1-.8-8.3-1.3-12.4-2.2a80.7,80.7,0,0,1-33.9-17.4c-.9-.7-2.1-1.1-2.6-2.3l-.6-.5-.9-.9c.2-1.5-1-2.5-1.8-3.6-2-3.1-4.2-6-5.2-9.6a5.2,5.2,0,0,1,1-1.1A138.2,138.2,0,0,0,334,230.8a136.2,136.2,0,0,0,27.6-45.5,142.8,142.8,0,0,0,8.4-53.8l5.8-.6a10.9,10.9,0,0,0,6.4-1,112.7,112.7,0,0,1,15.4,1,81.7,81.7,0,0,1,28.9,9.7,4,4,0,0,0,2.5.9h0l.5.5a78,78,0,0,1,18.1,21.1,80.7,80.7,0,0,1,10.9,32.7c.1.8.4,1.5.5,2.2-5.7,2.9-7.5,7.3-4.9,11.9l.5.6C455.4,212.3,457.2,212.9,458.7,213.9Z"/>
          <path class="cls-14" d="M429,141.5a4,4,0,0,1-2.5-.9,81.7,81.7,0,0,0-28.9-9.7,112.7,112.7,0,0,0-15.4-1c2.1-1.7,3.6-3.7,3.8-6.4a70.9,70.9,0,0,1,22.3,5.5A75.3,75.3,0,0,1,429,141.5Z"/>
          <path class="cls-14" d="M429.5,142l-.5-.5Z"/>
          <path class="cls-10" d="M369.9,286.9c.9-3.4,2.9-5.9,6.4-6.8s6.4.9,8.4,3.8l-12,6a2.9,2.9,0,0,0-1.8,1.3,4.4,4.4,0,0,1-.9-2.7A8.1,8.1,0,0,1,369.9,286.9Z"/>
          <path class="cls-7" d="M309.5,252a84.1,84.1,0,0,1-13.4-32.6c-.3-1.7-.4-3.6-.6-5.4,3.7-.3,5.8-2.6,7.5-5.6.2,4,0,8.1.4,12.1a84.5,84.5,0,0,0,5.2,22.2c1,2.6,2.4,5,2.9,7.8l-1.6,1.5Z"/>
          <path class="cls-14" d="M309.9,252l1.6-1.5h1c1,3.6,3.2,6.5,5.2,9.6.8,1.1,2,2.1,1.8,3.6C316.1,259.9,312.2,256.5,309.9,252Z"/>
          <path class="cls-14" d="M320.4,264.5l.6.5Z"/>
          <path class="cls-15" d="M312.5,250.4h-1c-.5-2.8-1.9-5.2-2.9-7.8a84.5,84.5,0,0,1-5.2-22.2c-.4-4-.2-8.1-.4-12.1V206a1.6,1.6,0,0,0,.5-1.4,80.4,80.4,0,0,1,7.3-26.7A82.9,82.9,0,0,1,333,149.2a79.4,79.4,0,0,1,28.1-15.3l8.5-2.6.4.2a142.8,142.8,0,0,1-8.4,53.8A136.2,136.2,0,0,1,334,230.8a138.2,138.2,0,0,1-20.5,18.5A5.2,5.2,0,0,0,312.5,250.4Z"/>
          <path class="cls-3" d="M369.6,131.3l-8.5,2.6A79.4,79.4,0,0,0,333,149.2a82.9,82.9,0,0,0-22.2,28.7,80.4,80.4,0,0,0-7.3,26.7,1.6,1.6,0,0,1-.5,1.4c-.1-1.5-.2-3-1.4-4-1.3-2.7-3.7-3.8-6.6-4.1a88.2,88.2,0,0,1,8.7-30.2,80.6,80.6,0,0,1,10.7-15.9,84.3,84.3,0,0,1,23.9-19.3,76.5,76.5,0,0,1,25.6-8.5,17.7,17.7,0,0,1,5.1-.5A34.2,34.2,0,0,1,369.6,131.3Z"/>
          <path class="cls-13" d="M120.7,219.5a135.3,135.3,0,0,0,40.7,37.2,26.1,26.1,0,0,1,2.8,1.7c-14.3,16.7-32.5,25.9-54.3,28.2l-.5-.6a3.8,3.8,0,0,0-1.1-2.9,7.5,7.5,0,0,0-7.7-3c-3.5.7-5.6,3-6.6,6.4a68.7,68.7,0,0,1-21.4-4.9c-12.3-4.8-23.2-11.7-31.6-22.1,1.8-6.2,3.9-12.3,5.4-18.6s3.2-12.2,4.5-18.5,2.5-12.1,3.6-18.2c1.5-7.9,2.6-15.8,3.7-23.7s1.7-15,2.2-22.5a7.7,7.7,0,0,1,1.5-3.6c1.3-1.6,2.8-3.2,4.2-4.8A83,83,0,0,0,75,138a60.8,60.8,0,0,1,18.9-3.5A150.6,150.6,0,0,0,97,166.6c2.1,9.6,4.8,19,9.1,27.9A118.4,118.4,0,0,0,120.7,219.5Z"/>
          <path class="cls-11" d="M120.7,219.5a118.4,118.4,0,0,1-14.6-25,5.1,5.1,0,0,0,2.4-1.3c6.5-5.2,13.7-9.5,20.3-14.5s13.1-9.3,19.6-13.9c3.3-2.2,6.5-4.6,9.7-6.9A70.2,70.2,0,0,1,175,182a3.9,3.9,0,0,0-2.9,1.1,135.2,135.2,0,0,1-13.7,10.2c-8.9,6.1-17.6,12.6-26.5,18.7C128.2,214.6,124.9,217.7,120.7,219.5Z"/>
          <path class="cls-2" d="M175,182a70.2,70.2,0,0,0-16.9-24.1l-4.3-4c-2.5-2.2-5.2-4.2-7.8-6.3.7-2.4,2.9-2.3,4.4-2s4-.6,5.1-2.6c7.8,5.7,13.2,13.4,18,21.6a76.7,76.7,0,0,1,10,30.6,25.6,25.6,0,0,0,.5,2.7l-3,1a112.1,112.1,0,0,0-4.6-14.6C176,183.5,175.5,182.8,175,182Z"/>
          <path class="cls-9" d="M109.9,286.6c21.8-2.3,40-11.5,54.3-28.2l1.3.9a57.4,57.4,0,0,1-12.2,11.9c-10.5,7.9-22.1,13.6-35.2,16l-8.1,1.3C110,287.9,109.9,287.2,109.9,286.6Z"/>
          <path class="cls-9" d="M41,259.5c8.4,10.4,19.3,17.3,31.6,22.1A68.7,68.7,0,0,0,94,286.5v2c-7.2-1.1-14.4-2.3-21.3-5-9.8-4-18.9-9.1-26.8-16.3a84.8,84.8,0,0,1-17.7-22.7c-5-9.5-8.5-19.5-9.3-30.4h1.6c.2,2,.4,4.1.8,6.1a81.7,81.7,0,0,0,10.4,27.3c2.4,3.9,4.9,7.9,8.3,11.1Z"/>
          <path class="cls-10" d="M94,288.5v-2c1-3.4,3.1-5.7,6.6-6.4a7.5,7.5,0,0,1,7.7,3,3.8,3.8,0,0,1,1.1,2.9l-1.9.5c-4.2,1.6-7.9,4-11.9,6C94.4,291.4,94.3,289.9,94,288.5Z"/>
          <path class="cls-12" d="M95.6,292.5c4-2,7.7-4.4,11.9-6l1.9-.5.5.6c0,.6.1,1.3.1,1.9-.5,3.9-2.7,6.6-6.6,7.3A7.1,7.1,0,0,1,95.6,292.5Z"/>
          <path class="cls-13" d="M40,258.5c-3.4-3.2-5.9-7.2-8.3-11.1a81.7,81.7,0,0,1-10.4-27.3c-.4-2-.6-4.1-.8-6.1,5.4-2,7.6-5.9,5.9-10.5-.8-3.1-3.1-4.6-6-5.5.3-3.5.2-7.1,1.6-10.5h.5c2-.2,3.2-1.9,4.8-3a157.2,157.2,0,0,0,20.9-16.4c3.2-2.8,6.1-5.8,9.2-8.7.3-.4.7-.9,1.2-.6s.4.9.4,1.3c-.7,5.9-1.4,11.7-2,17.5-.8,9.4-2.5,18.7-4.1,27.9-2,11.5-4.8,22.9-7.7,34.1C43.5,245.9,41.7,252.2,40,258.5Z"/>
          <path class="cls-14" d="M93.9,134.5A60.8,60.8,0,0,0,75,138a5.4,5.4,0,0,0-3,1c-3.5.8-6.6,2.8-10,4-.7-.6-.4-1.5-.5-2.3-.3-2.5.6-4.9.4-7.3A73,73,0,0,1,94,123.5a5.4,5.4,0,0,0,.6,2.5v.5c-.1,2.5-.7,5-.5,7.5Z"/>
          <path class="cls-14" d="M22.5,187.5H22c.6-5.5,2.6-10.6,4.8-15.6a78.3,78.3,0,0,1,16.7-24.6c5.1-5.1,10.4-9.8,17-13-.9,3.2-.4,6.5-.5,9.7v.4l-.5.2A81.9,81.9,0,0,0,29,174c-2,3.3-4.1,6.6-5,10.5A5.4,5.4,0,0,0,22.5,187.5Z"/>
          <path class="cls-1" d="M60,144c.1-3.2-.4-6.5.5-9.7l1.4-.9c.2,2.4-.7,4.8-.4,7.3.1.8-.2,1.7.5,2.3l-.5.5Z"/>
          <path class="cls-4" d="M94.1,134c-.2-2.5.4-5,.5-7.5,4,5.4,9.6,6.1,13.6,1.5a7.5,7.5,0,0,0,1.8-4.5c8.8.3,17,2.9,25,6.2s12.5,6.8,18.3,11a6.1,6.1,0,0,1,2.2,2.3c-1.1,2-2.4,3.2-5.1,2.6s-3.7-.4-4.4,2a10.1,10.1,0,0,1-1.8-.9,87.5,87.5,0,0,0-18.9-8.7A89.3,89.3,0,0,0,94.1,134Z"/>
          <path class="cls-10" d="M94.1,134a89.3,89.3,0,0,1,31.2,4,87.5,87.5,0,0,1,18.9,8.7,10.1,10.1,0,0,0,1.8.9c2.6,2.1,5.3,4.1,7.8,6.3l4.3,4c-3.2,2.3-6.4,4.7-9.7,6.9-6.5,4.6-13.2,9-19.6,13.9S115,188,108.5,193.2a5.1,5.1,0,0,1-2.4,1.3c-4.3-8.9-7-18.3-9.1-27.9a150.6,150.6,0,0,1-3.1-32.1Z"/>
          <path class="cls-8" d="M60,144l1.5-.5c.1,2.5-.8,4.9-.5,7.4.1.4-.2,1.1.4,1.3s.8-.4,1.1-.8,3.3-3.5,4.7-5.4,4.2-4,4.8-7a5.4,5.4,0,0,1,3-1,83,83,0,0,1-8.9,11.6c-1.4,1.6-2.9,3.2-4.2,4.8a7.7,7.7,0,0,0-1.5,3.6c-.5,7.5-1.3,15-2.2,22.5s-2.2,15.8-3.7,23.7c-1.1,6.1-2.4,12.1-3.6,18.2s-2.9,12.4-4.5,18.5-3.6,12.4-5.4,18.6l-1-1c1.7-6.3,3.5-12.6,5.2-18.9,2.9-11.2,5.7-22.6,7.7-34.1,1.6-9.2,3.3-18.5,4.1-27.9.6-5.8,1.3-11.6,2-17.5,0-.4.2-1-.4-1.3s-.9.2-1.2.6c-3.1,2.9-6,5.9-9.2,8.7a157.2,157.2,0,0,1-20.9,16.4c-1.6,1.1-2.8,2.8-4.8,3a5.4,5.4,0,0,1,1.5-3c2.7-.4,4.3-2.5,6.4-4a172.9,172.9,0,0,0,27.7-24.3,4.5,4.5,0,0,0,1.4-3.1,42.4,42.4,0,0,1,.5-8.7Z"/>
          <path class="cls-13" d="M72,139c-.6,3-3.2,4.6-4.8,7s-3.1,3.6-4.7,5.4-.5,1-1.1.8-.3-.9-.4-1.3c-.3-2.5.6-4.9.5-7.4l.5-.5C65.4,141.8,68.5,139.8,72,139Z"/>
          <path class="cls-13" d="M60,144.4a42.4,42.4,0,0,0-.5,8.7,4.5,4.5,0,0,1-1.4,3.1,172.9,172.9,0,0,1-27.7,24.3c-2.1,1.5-3.7,3.6-6.4,4,.9-3.9,3-7.2,5-10.5a81.9,81.9,0,0,1,30.5-29.4Z"/>
        </g>
      </g>
    </g>
  </g>
</svg>
