<svg xmlns="http://www.w3.org/2000/svg" width="48.2" height="47.2" viewBox="0 0 48.2 57.2">
  <title>Z4YS14.tif</title>
  <g id="Layer_2" data-name="Layer 2">
    <g id="Layer_1-2" data-name="Layer 1">
      <g id="Z4YS14.tif">
        <g>
          <path d="M48.2,41.9h0c-.1.1-.1.1-.1.2l-1.2,2.9a32.1,32.1,0,0,1-5.6,8.5A11.8,11.8,0,0,1,38.7,56a6.7,6.7,0,0,1-3.8,1.1,7.1,7.1,0,0,1-2.1-.3l-3.4-1.2a12.5,12.5,0,0,0-4.7-.7,14.3,14.3,0,0,0-4.1.9c-1.2.4-2.5.9-3.8,1.2a7.9,7.9,0,0,1-2.2.1,5.8,5.8,0,0,1-3.2-1.4A18.8,18.8,0,0,1,8,52.2a35.3,35.3,0,0,1-5.4-8.9A36.1,36.1,0,0,1,.1,33c0-.3-.1-.6-.1-.9V29.3a17.6,17.6,0,0,1,.7-4A15.9,15.9,0,0,1,6,16.8a14.2,14.2,0,0,1,8.3-3.1,13.1,13.1,0,0,1,4.4.7l4.1,1.5a4.7,4.7,0,0,0,3.1,0l3.7-1.3a18.6,18.6,0,0,1,4.8-1,15.7,15.7,0,0,1,4.3.4,15.3,15.3,0,0,1,5.6,2.7,14.3,14.3,0,0,1,2.3,2.6h-.1l-1.9,1.4a11.5,11.5,0,0,0-4,6.1,13.7,13.7,0,0,0-.2,5.7,11.7,11.7,0,0,0,2.5,5.4A13.8,13.8,0,0,0,48.2,41.9Z"/>
          <path d="M36.1,0V2a11.7,11.7,0,0,1-1.5,4.8A15.9,15.9,0,0,1,29.8,12a9.3,9.3,0,0,1-3.9,1.5H24.1v-.7a11.3,11.3,0,0,1,1.6-6.2A13.1,13.1,0,0,1,33.8.4L35.6,0h.5Z"/>
        </g>
      </g>
    </g>
  </g>
</svg>
