<svg xmlns="http://www.w3.org/2000/svg" xmlns:xlink="http://www.w3.org/1999/xlink" width="101.2" height="75" viewBox="0 0 101.2 65">
  <defs>
    <style>
      .cls-1 {
        clip-path: url(#clip-path);
      }
    </style>
    <clipPath id="clip-path">
      <path d="M30.9,56.4a1.5,1.5,0,0,1-.7-1.4,2.4,2.4,0,0,1,.9-1.8h.1a2.9,2.9,0,0,0,1.3-1.9,2.8,2.8,0,0,0,1.2,1.9.1.1,0,0,0,.1.1h0a2.3,2.3,0,0,1,.9,1.8,1.6,1.6,0,0,1-1.6,1.7h-.6a3.4,3.4,0,0,1-1.6-.4M25,55.6a2.1,2.1,0,0,1-1.4-.9,1.6,1.6,0,0,1-.3-1.5,2.3,2.3,0,0,1,1.5-1.4h.1a2.8,2.8,0,0,0,1.8-1.4,2.9,2.9,0,0,0,.6,2.2h.1a2.4,2.4,0,0,1,.3,2,1.7,1.7,0,0,1-1.3,1.2H26l-1-.2m13.3.1a1.6,1.6,0,0,1-1-1.1,2.4,2.4,0,0,1,.3-2h.1a4,4,0,0,0,.6-2.2,2.8,2.8,0,0,0,1.8,1.4h.1a2,2,0,0,1,1.4,1.4c.5,1.6-1.1,2.2-1.6,2.4H38.3M29.2,53a2.4,2.4,0,0,1-1.5-.7h0a2.9,2.9,0,0,1-.5-2A2.5,2.5,0,0,1,30,47.9a2.5,2.5,0,0,1,2,3,2.7,2.7,0,0,1-1,1.8h-.1l-.6.2H29.2m4.9-.2H34a2.5,2.5,0,0,1-1.1-1.8,2.7,2.7,0,0,1,2-3,2.6,2.6,0,0,1,2.9,2.3,2.9,2.9,0,0,1-.5,2h-.1a2.1,2.1,0,0,1-1.5.7H35a1.3,1.3,0,0,1-.9-.2M19.8,48.4a3.8,3.8,0,0,0,1.7-.8,3.7,3.7,0,0,0-.2,2.3h.1a2.4,2.4,0,0,1-.3,2c-1,1.3-2.5.4-2.9.1a2.9,2.9,0,0,1-1.1-1.4,1.5,1.5,0,0,1,.3-1.4,2.1,2.1,0,0,1,1.8-.9h.6m24.1,3.7a2.6,2.6,0,0,1-.3-2.1h0a3.1,3.1,0,0,0-.1-2.3,2.9,2.9,0,0,0,2.1.9h.2a2.3,2.3,0,0,1,1.8.9c.9,1.3-.4,2.4-.8,2.8a2.7,2.7,0,0,1-1.3.5h-.3a1.7,1.7,0,0,1-1.3-.7M23.1,51c-.7-.4-1.1-.6-1.3-1.2h0a3,3,0,0,1,.2-2.1,2.6,2.6,0,0,1,3.4-1.3,2.5,2.5,0,0,1,.9,3.5,2.9,2.9,0,0,1-1.5,1.4h-.5a2.8,2.8,0,0,1-1.2-.4m17.2.3h-.1a2.8,2.8,0,0,1-1.6-1.4,2.7,2.7,0,0,1,1-3.5A2.6,2.6,0,0,1,43,47.7a3,3,0,0,1,.2,2.1h-.1c-.2.5-.6.7-1.2,1.1l-1,.3h-.6M30.1,47.4h-.3l-.5-.6a1.1,1.1,0,0,1-.3-.8,1.2,1.2,0,0,1,.5-.8l.7-.3a.4.4,0,0,1,.6.1l.6.5a1.9,1.9,0,0,1,.2.8h0c-.1.3-.2.6-.5.7l-.7.4h-.3m4.4,0-.7-.4a.8.8,0,0,1-.4-.7.9.9,0,0,1,.2-.9l.5-.5c.2-.2.4-.3.6-.1l.7.3a1.3,1.3,0,0,1,.5.7h0a.8.8,0,0,1-.2.8l-.6.6h-.6m-3.7.3.5-.3a1.5,1.5,0,0,0,.8-1.1h0l.4-2.6h0l.4,2.6a1.4,1.4,0,0,0,.7,1.1l.5.3a3.1,3.1,0,0,0-1.6,2.1,3,3,0,0,0-1.7-2.1M17.3,43.5a3.2,3.2,0,0,0-.8,2.1h0a2.6,2.6,0,0,1-.9,1.8c-.3.1-.5.3-.8.3s-1.7-.8-2-1.1a2.9,2.9,0,0,1-.6-1.6,1.5,1.5,0,0,1,.7-1.3,2.4,2.4,0,0,1,2-.3H15l1,.2a2.8,2.8,0,0,0,1.3-.3m32.1,4.1a2.3,2.3,0,0,1-.9-1.9h0a2.9,2.9,0,0,0-.9-2.1,3.1,3.1,0,0,0,2.3.1h.2a2.4,2.4,0,0,1,2,.3c1.3,1,.4,2.4.1,2.9a2.6,2.6,0,0,1-1.4,1c0,.1-.1.1-.2.1h-.2a1.7,1.7,0,0,1-1-.3M25.6,46l-.2-.3L25,45a1,1,0,0,1,.1-.9.8.8,0,0,1,.7-.5h.7a.4.4,0,0,1,.6.2l.3.7a1.1,1.1,0,0,1,0,.8h0a1.3,1.3,0,0,1-.7.6H25.6M39,46h-.7a1.1,1.1,0,0,1-.7-.6,1,1,0,0,1-.1-.9l.4-.7a.4.4,0,0,1,.5-.2h.8a.7.7,0,0,1,.6.5h.1a1.1,1.1,0,0,1,0,.8l-.3.7-.3.3H39m-12.8.4h.6a1.1,1.1,0,0,0,1-.8h0L29,43.2h0l-.4,2.7a1.2,1.2,0,0,0,.3,1.2l.4.4A3.2,3.2,0,0,0,27.1,49a3.1,3.1,0,0,0-.9-2.6m9.4,1,.4-.3a1.8,1.8,0,0,0,.4-1.3h-.1l-.4-2.5H36l1.2,2.4a1.1,1.1,0,0,0,1,.8h.5a3.5,3.5,0,0,0-.9,2.6,3,3,0,0,0-2.2-1.6m-17.8-.2a2.2,2.2,0,0,1-.8-1.5h0a2.7,2.7,0,0,1,.8-1.9,2.5,2.5,0,0,1,3.6-.1,2.4,2.4,0,0,1-.1,3.5,2.7,2.7,0,0,1-1.6.8h-.5a3.4,3.4,0,0,1-1.4-.8m25.9-.1a2.4,2.4,0,1,1,3.4-3.4,2.5,2.5,0,0,1,.9,1.9h0a2.5,2.5,0,0,1-.8,1.4,3.1,3.1,0,0,1-1.3.9h-.3a2.5,2.5,0,0,1-1.9-.9M29.5,43.2a.8.8,0,0,1,.5-.7l.6-.4a.6.6,0,0,1,.7.1l.5.6a.8.8,0,0,1,.2.8l-.2,1.6h-.1l-.5-.6-.6-.3H30l-.7.4h-.1Zm3.4.4a1.1,1.1,0,0,1,.3-.8l.5-.6a.5.5,0,0,1,.6-.1l.7.4c.3.1.4.4.5.7l.2,1.6h-.1l-.6-.3a1,1,0,0,0-.7-.2l-.5.3-.5.6c-.1,0-.1,0-.1.1Zm-9.8.3a2,2,0,0,0,.9-.5h0l1.9-1.8h0l-1.2,2.3a1.5,1.5,0,0,0-.1,1.3l.3.5a3.5,3.5,0,0,0-2.6.8,2.9,2.9,0,0,0-.1-2.7h.9m17.2,1.4a1.7,1.7,0,0,0,0-1.4h-.1l-1.1-2.3c0-.1,0-.1-.1-.1h.1L41,43.4a1.2,1.2,0,0,0,1.2.5h.5a3.2,3.2,0,0,0,0,2.7,3.5,3.5,0,0,0-2.6-.8Zm-8.2-2.9-.5-.5a1.3,1.3,0,0,0,.9-.7,1.3,1.3,0,0,0,.9.7l-.6.5a1.1,1.1,0,0,0-.3.8,2,2,0,0,0-.4-.8m-5.8-.6c.2-.3.4-.6.7-.6h.7a.4.4,0,0,1,.6.3l.3.7a.6.6,0,0,1,0,.8l-.7,1.4h-.1l-.3-.7a.8.8,0,0,0-.4-.4H25.7a.1.1,0,0,0-.1.1Zm10.1,1.1a1,1,0,0,1-.1-.9l.4-.6c.1-.3.3-.4.5-.3H38c.2,0,.5.3.7.6l.7,1.4H37.9a.8.8,0,0,0-.4.4l-.4.7h0Zm4.9.2a.7.7,0,0,1-.3-.8v-.8a.4.4,0,0,1,.4-.4h.8a.9.9,0,0,1,.8.2h0a.7.7,0,0,1,.3.8v.8a.4.4,0,0,1-.1.3H42a1.1,1.1,0,0,1-.7-.3m-18.5.3h-1c-.1-.1-.2-.2-.2-.3v-.8a1.1,1.1,0,0,1,.3-.8.9.9,0,0,1,.9-.3h.7c.3,0,.4.2.5.4v.8a1.6,1.6,0,0,1-.3.8h0a.9.9,0,0,1-.6.3h-.3M29,41.2a2,2,0,0,0,.8-.4,1.5,1.5,0,0,0,.6.9l-.7.4a1,1,0,0,0-.5.6,2.8,2.8,0,0,0-.1-.9l-.4-.6H29m6.2.9-.6-.4a1.5,1.5,0,0,0,.6-.9,1.3,1.3,0,0,0,1,.4l-.3.6a1.4,1.4,0,0,0-.1.9.9.9,0,0,0-.6-.6m2.9-1.4h-.8a1.3,1.3,0,0,0,.3-1,2,2,0,0,0,1.1,0v.7a2.9,2.9,0,0,0,.2.9,1.5,1.5,0,0,0-.7-.5M27.3,39.6a1.9,1.9,0,0,0,.3,1h-.7a1.8,1.8,0,0,0-.7.5,1.4,1.4,0,0,0,.1-.9v-.7h1.1m3.7,2a1.3,1.3,0,0,1-.9-1.3,1.1,1.1,0,0,1,2.2.4,1.4,1.4,0,0,1-.9.9H31m1.7-.9a1.1,1.1,0,0,1,.9-1.3,1,1,0,0,1,1.2.9,1.1,1.1,0,0,1-.9,1.3h-.2a1.1,1.1,0,0,1-1-.9m-8.3,1.5v-.7a.8.8,0,0,0-.2-.6l-.6-.3h-.9l1.1-1.1c.3-.2.6-.4.9-.3h.7c.3,0,.4.2.5.4v.8a.9.9,0,0,1-.4.8l-1,1.1h-.1m15-1a.8.8,0,0,1-.3-.8v-.8a.4.4,0,0,1,.4-.4h.8a.8.8,0,0,1,.8.3l1.1,1.1h-.8l-.6.3a1.6,1.6,0,0,0-.3.6v.7h0Zm-18.9-.8h.6l2.3-1.1h0L21.5,41a1.4,1.4,0,0,0-.4,1.2v.5a3.2,3.2,0,0,0-2.7,0,2.9,2.9,0,0,0,.8-2.6l.5.2.6.2h.2m23.4,1.8a1.2,1.2,0,0,0-.5-1.2h0l-1.8-1.8c-.1,0-.1,0-.1-.1a.1.1,0,0,0,.1.1l2.3,1.2a1.5,1.5,0,0,0,1.3,0l.5-.2a3.5,3.5,0,0,0,.8,2.6,3.2,3.2,0,0,0-2.7,0ZM28.3,40.7a1.3,1.3,0,0,1-.5-1.5,1.1,1.1,0,0,1,1.5-.4,1,1,0,0,1,.4,1.4,1.1,1.1,0,0,1-.7.6h-.7m6.9-.5a1,1,0,0,1,.5-1.4,1,1,0,0,1,1.4.4,1.1,1.1,0,0,1-.5,1.5h-.4a1.1,1.1,0,0,1-1-.6m-20,3h-.1A2.2,2.2,0,0,1,14,41.9a1.9,1.9,0,0,1-.3-1.6h0a2.5,2.5,0,0,1,1.4-1.6,2.5,2.5,0,0,1,3.4,1A2.6,2.6,0,0,1,17.3,43l-.9.2H15.2M47.7,43a2.6,2.6,0,0,1-1.3-3.4,2.7,2.7,0,0,1,3.5-1,2.5,2.5,0,0,1,1.4,1.6h0a2.4,2.4,0,0,1-.3,1.6,2,2,0,0,1-1.2,1.2H49a2.8,2.8,0,0,1-1.3-.3M32.3,39.4l-.4-.2a1.4,1.4,0,0,1-.2-.6.8.8,0,0,1,.8-.8,1.2,1.2,0,0,1,.8.8.8.8,0,0,1-.7.8h-.3M34,39a.8.8,0,0,1-.4-.4.8.8,0,0,1,.5-1,.6.6,0,0,1,.6,0,.7.7,0,0,1,.4.5c.2.4-.1.8-.5,1H34m-3.7.1a.1.1,0,0,0-.1-.1l-.3-.3a1.3,1.3,0,0,1-.1-.6c.2-.4.6-.7,1-.5a.7.7,0,0,1,.5.4.8.8,0,0,1-.6,1.1h-.4m13.8.8a1,1,0,0,1-.5-.7v-.8a.4.4,0,0,1,.2-.5l.7-.4a1.1,1.1,0,0,1,.8,0h.1a1.1,1.1,0,0,1,.6.7v1.1l-.3.2-.7.3c0,.1-.1.1-.2.1h-.7m-24.2,0-.7-.3c-.1-.1-.2-.2-.2-.3a.4.4,0,0,1-.1-.3l.2-.7a.8.8,0,0,1,.5-.7,1,1,0,0,1,.9-.1l.7.4a.5.5,0,0,1,.3.5v.8a1.5,1.5,0,0,1-.5.6h-1M24.2,38v-.7a1.4,1.4,0,0,0,1.1.3,1.1,1.1,0,0,0,0,1.1h-.8l-.8.2a1.2,1.2,0,0,0,.4-.8m15.7-.4a.9.9,0,0,0,.7-.3V38a2.2,2.2,0,0,0,.5.8,1.5,1.5,0,0,0-.9-.2h-.7a2,2,0,0,0,0-1.1h.3m11.3.6a2.4,2.4,0,0,0,1.3-.5.1.1,0,0,1,.1-.1h0a2.4,2.4,0,0,1,2-.3c1.6.5,1.2,2.2,1,2.7a2.8,2.8,0,0,1-.9,1.4,1.6,1.6,0,0,1-1.5.2,2.1,2.1,0,0,1-1.4-1.5h-.1a2.9,2.9,0,0,0-1.4-1.7h.9M9.3,40a2.5,2.5,0,0,1,0-1.7,1.4,1.4,0,0,1,1-1,2.6,2.6,0,0,1,2.1.3h0a4.6,4.6,0,0,0,2.3.6,3.4,3.4,0,0,0-1.5,1.8h0a2.3,2.3,0,0,1-1.5,1.4h-.5c-1.2,0-1.7-1.3-1.9-1.7M26,39a1.1,1.1,0,0,1,0-1.5.9.9,0,0,1,1.5,0,1.1,1.1,0,0,1,0,1.5l-.6.3h-.2A1.1,1.1,0,0,1,26,39m11.5,0A1.1,1.1,0,0,1,39,37.5,1.1,1.1,0,0,1,39,39l-.6.3h-.2a.9.9,0,0,1-.7-.3M36,38.2a.5.5,0,0,1-.5-.3.8.8,0,0,1,.1-1.1.7.7,0,0,1,.6-.1.5.5,0,0,1,.5.3.8.8,0,0,1-.1,1.1H36m-7.6-.1h-.1a.8.8,0,0,1-.2-.4.7.7,0,0,1,.1-.6.8.8,0,0,1,1.1-.2.5.5,0,0,1,.3.5.7.7,0,0,1-.1.6.5.5,0,0,1-.5.3h-.6m-6.6,1.2.2-.8a1.3,1.3,0,0,0-.1-.6,1,1,0,0,0-.5-.4l-.7-.4h-.1l1.4-.7a1,1,0,0,1,.9-.1l.7.4a.5.5,0,0,1,.3.5V38a1.9,1.9,0,0,1-.6.7l-1.4.7h0m20-.6c-.3-.2-.6-.5-.6-.7v-.8c-.1-.2.1-.4.3-.6l.7-.3a.8.8,0,0,1,.8.1l1.4.7h-.1l-.7.3a1,1,0,0,0-.4.5,1.3,1.3,0,0,0-.1.6v.9ZM47,36l.4-.4A3,3,0,0,0,49,37.8a3.5,3.5,0,0,0-2.6.9v-.5a1.1,1.1,0,0,0-.8-1h0l-2.3-1.2h0l2.6.5H46a1.5,1.5,0,0,0,1-.4m-29.5-.4.4.4a1.8,1.8,0,0,0,1.3.4h0l2.6-.4h.1c-.1,0-.1,0-.1.1l-2.4,1.2a1.6,1.6,0,0,0-.8,1v.5a3.2,3.2,0,0,0-2.5-.9,2.9,2.9,0,0,0,1.5-2.2M37,36.7c-.4-.2-.4-.7-.2-1.1a.9.9,0,0,1,.5-.3.7.7,0,0,1,.6.2c.4.2.4.7.2,1.1a.1.1,0,0,0-.1.1l-.4.2h-.2l-.4-.2m-10.1-.1c-.1-.1-.1-.1-.1-.2a.6.6,0,0,1-.1-.4l.3-.5a.8.8,0,0,1,1.1.1.7.7,0,0,1,.2.6l-.3.5-.4.2h-.1a.7.7,0,0,1-.6-.3m-2.6,0a1.1,1.1,0,1,1,1.4.5h-.5a1.1,1.1,0,0,1-.9-.6m14.9.5a1,1,0,0,1-.4-1.4,1,1,0,0,1,1.4-.5,1.1,1.1,0,0,1,.5,1.4.9.9,0,0,1-.8.6h-.7M22.9,35.2l.3-.6a1.7,1.7,0,0,0,1,.6,1.3,1.3,0,0,0-.4,1l-.7-.3a1.3,1.3,0,0,0-.9-.1,1.1,1.1,0,0,0,.7-.6m17.9,0a1.3,1.3,0,0,0,.9-.7l.4.7a.9.9,0,0,0,.6.6,1.4,1.4,0,0,0-.9.1l-.6.3a1.3,1.3,0,0,0-.4-1m-2.7-.1a.7.7,0,0,1-.5-1c0-.2.2-.3.4-.4h.6a.9.9,0,0,1,.5,1,.1.1,0,0,1-.1.1c0,.2-.2.3-.3.4h-.6m-12.2-.5a.1.1,0,0,0-.1-.1.9.9,0,0,1,.1-.5,1,1,0,0,1,.5-.4.9.9,0,0,1,1,.5,1.3,1.3,0,0,1-.1.6c-.1.2-.2.4-.4.4s-.1,0-.1.1h-.2a.9.9,0,0,1-.7-.6m20,1.3c-.4-.1-.7-.2-.8-.5l-.3-.7c-.2-.2-.1-.4.1-.6l.5-.5a1.1,1.1,0,0,1,.8-.3h.1a.8.8,0,0,1,.7.4l.4.7v.4c0,.1,0,.2-.1.2l-.6.6-.5.2h-.3m-27.7-.2-.5-.6c-.1-.1-.2-.2-.2-.3a.4.4,0,0,1,.1-.3l.3-.7a1.2,1.2,0,0,1,.8-.4,1,1,0,0,1,.9.2l.5.5a.5.5,0,0,1,.1.6l-.4.7a1,1,0,0,1-.6.5h-.3l-.7-.2m2-.1.4-.6a1.7,1.7,0,0,0,.1-.7c0-.2-.1-.3-.3-.5l-.5-.5h-.1l1.5-.3a1.2,1.2,0,0,1,.9.3l.5.5a.5.5,0,0,1,.1.6l-.3.7a1.1,1.1,0,0,1-.8.5h0l-1.5.2h0m23-.1a1.3,1.3,0,0,1-.7-.5l-.4-.7a.5.5,0,0,1,.1-.6l.6-.5a1.1,1.1,0,0,1,.8-.3l1.6.3h-.1l-.6.6-.3.5a1.3,1.3,0,0,0,.1.6l.4.7c0,.1,0,.1.1.1ZM12.7,37.3h0c-.5-.3-.6-.8-.7-1.5a2.1,2.1,0,0,1,.2-1.6h0A2.7,2.7,0,0,1,14,32.9a2.6,2.6,0,0,1,3,2,2.6,2.6,0,0,1-2.2,2.9h-.5a3,3,0,0,1-1.6-.5m37.5.5a2.6,2.6,0,0,1-2.3-2.9,2.7,2.7,0,0,1,3-2A2.5,2.5,0,0,1,52.7,34h.1a2.1,2.1,0,0,1,.2,1.6,2.1,2.1,0,0,1-.7,1.5h-.1l-1.1.5h-.9M23.4,33.9a1.1,1.1,0,1,1,1.2.9h-.1a1.1,1.1,0,0,1-1.1-.9m16.9.9a1,1,0,0,1-.9-1.2,1.1,1.1,0,0,1,1.3-.9,1.2,1.2,0,0,1,.9,1.2,1.2,1.2,0,0,1-.9.9h-.4m-2.5-2.3a.9.9,0,0,1,.3-.6l.5-.2a.7.7,0,0,1,.8.8h0a.5.5,0,0,1-.2.4c-.1.2-.3.2-.5.3h-.1a.9.9,0,0,1-.8-.8m-12.3,0v-.2l.3-.4.5-.2a.7.7,0,0,1,.8.8.8.8,0,0,1-.2.5l-.4.3h-.2a.9.9,0,0,1-.8-.8m-3,.3a1.1,1.1,0,0,0-.8-.3h.1l.7-.4.5-.5a1.6,1.6,0,0,0,.7.9,1.6,1.6,0,0,0-.7.9Zm18.7-.3a1.3,1.3,0,0,0,.7-.9l.5.5.8.4a1.1,1.1,0,0,0-.8.3l-.5.6a1.3,1.3,0,0,0-.7-.9m6.2,1.1a1.8,1.8,0,0,0-1.1-.7h0l-2.6-.4h0l2.6-.4h0a1.5,1.5,0,0,0,1.1-.8l.3-.5a3,3,0,0,0,2.1,1.7,3.1,3.1,0,0,0-2.1,1.6ZM15.1,32.5a3,3,0,0,0,2.2-1.7l.2.5a1.5,1.5,0,0,0,1.1.8h.1l2.5.4h.1l-2.7.4a1.4,1.4,0,0,0-1.1.7l-.2.5a3.1,3.1,0,0,0-2.2-1.6m38.1,1.3h-.1a2.8,2.8,0,0,0-1.9-1.2,2.9,2.9,0,0,0,1.9-1.3h.1a2.3,2.3,0,0,1,1.8-.9c1.7,0,1.8,1.7,1.8,2.3a3.8,3.8,0,0,1-.4,1.6,1.5,1.5,0,0,1-1.1.6H55a2.1,2.1,0,0,1-1.8-.9m-45-1.3a2.5,2.5,0,0,1,.4-1.6,1.4,1.4,0,0,1,1.3-.7,2.8,2.8,0,0,1,1.9.9h0a3.4,3.4,0,0,0,2,1.3,3.2,3.2,0,0,0-2,1.2h-.1a2.2,2.2,0,0,1-1.4.9H9.9c-1.6,0-1.7-1.7-1.7-2.2m16.1-.2a1.1,1.1,0,0,1-.9-1.3,1.2,1.2,0,0,1,1.2-.9,1.1,1.1,0,0,1,.9,1.3,1.2,1.2,0,0,1-.9.9h-.3m15.1-.9a1.1,1.1,0,0,1,.9-1.3,1.3,1.3,0,0,1,1.3.9,1.3,1.3,0,0,1-.9,1.3h-.2a1.2,1.2,0,0,1-1.1-.9m-1.8-.6a.6.6,0,0,1,0-.6,1,1,0,0,1,.5-.4.9.9,0,0,1,1,.5v.2a.6.6,0,0,1-.1.4c-.1.2-.2.4-.4.4h-.3a.7.7,0,0,1-.7-.6m-11.2.5a.7.7,0,0,1-.5-1h0c.1-.1.2-.3.4-.3h.6a.9.9,0,0,1,.5,1,1,1,0,0,1-.4.5h-.6m16.4.5-.6-.6c-.2-.1-.2-.4-.1-.6l.4-.7a.8.8,0,0,1,.7-.4l1.6-.3h-.1l-.3.7a.7.7,0,0,0-.2.6l.3.6.6.5h.1l-1.6.2h-.2l-.6-.2M21.3,32l-1.5-.2c0-.1,0-.1.1-.1l.5-.5a.9.9,0,0,0,.3-.6,1.3,1.3,0,0,0-.1-.6l-.3-.7c-.1,0-.1,0-.1-.1l1.5.3a.8.8,0,0,1,.8.5l.3.6a.6.6,0,0,1-.1.7l-.5.5-.5.2h-.4m24.1-.6-.5-.6a.4.4,0,0,1-.1-.6l.3-.7a.8.8,0,0,1,.7-.4h.1a.8.8,0,0,1,.8.2l.6.5a.4.4,0,0,1,.1.3v.3l-.4.7c-.1.3-.4.4-.7.5h-.2l-.7-.2m-26.6.2h-.1a1.1,1.1,0,0,1-.8-.5l-.3-.7a.4.4,0,0,1-.1-.3c0-.1.1-.2.2-.3l.5-.5a1.4,1.4,0,0,1,.9-.3,1.3,1.3,0,0,1,.7.5l.4.7c.1.2.1.5-.1.6l-.6.6a.5.5,0,0,1-.4.2h-.3m4-2.4h.3l.7-.4a1.5,1.5,0,0,0,.4,1.1,1.7,1.7,0,0,0-1,.6l-.3-.7a1.3,1.3,0,0,0-.7-.5h.6m18,.6a1.5,1.5,0,0,0,.4-1.1l.6.3a1,1,0,0,0,.9.1,1.7,1.7,0,0,0-.6.6l-.4.7a1.5,1.5,0,0,0-.9-.6m-4-.5a.6.6,0,0,1-.1-.6.5.5,0,0,1,.3-.5.8.8,0,0,1,1.1.2.1.1,0,0,0,.1.1c0,.2.1.3,0,.5a.5.5,0,0,1-.3.5h-.4a1,1,0,0,1-.7-.4m-9.8.2a.8.8,0,0,1-.1-1.1h0l.5-.2a.7.7,0,0,1,.6.1.8.8,0,0,1,.1,1.1.5.5,0,0,1-.5.3H27m-2.2.2a1,1,0,0,1-.5-1.4,1.1,1.1,0,0,1,1.4-.5,1.1,1.1,0,0,1,.5,1.5,1,1,0,0,1-.8.5h-.2l-.4-.2m14-.4a1.1,1.1,0,0,1,.4-1.5,1.3,1.3,0,0,1,1.5.5,1.1,1.1,0,0,1-.5,1.4h-.5a1,1,0,0,1-.9-.6M14,32a2.9,2.9,0,0,1-1.8-1h0a2.4,2.4,0,0,1-.2-1.7,2,2,0,0,1,.7-1.5h0a2.6,2.6,0,0,1,2.1-.5A2.5,2.5,0,0,1,17,30a2.3,2.3,0,0,1-2.1,2H14m33.9-2a2.5,2.5,0,0,1,2.3-2.8,2.9,2.9,0,0,1,2,.5h.1a2.4,2.4,0,0,1,.7,1.5,2.4,2.4,0,0,1-.2,1.7h-.1a2.7,2.7,0,0,1-1.8,1h-.4A2.6,2.6,0,0,1,47.9,30M30.8,27.7h.1a.9.9,0,0,0,.7-.6h.1a.7.7,0,0,0,.6.3h.2a1.2,1.2,0,0,0,.8-.4h.1a.8.8,0,0,0,.5.5H34a1.1,1.1,0,0,0,1-.1h0a.9.9,0,0,0,.3.6h.1a1.2,1.2,0,0,0,1,.2h-.1a1.7,1.7,0,0,0,.1.7.1.1,0,0,1,.1.1,1.1,1.1,0,0,0,.9.5c-.1,0-.1,0-.1.1a1.5,1.5,0,0,0-.1.7h0a1.2,1.2,0,0,0,.7.7h-.1a1.1,1.1,0,0,0-.3.6v.2a.9.9,0,0,0,.4.8h-.1l-.5.5a.1.1,0,0,1-.1.1,1.2,1.2,0,0,0,.2,1h-.1a.9.9,0,0,0-.7.3.1.1,0,0,1-.1.1,1.1,1.1,0,0,0-.1,1h-1a1,1,0,0,0-.4.9H34a2.3,2.3,0,0,0-.7.7h0l-.6-.3h-.2a1,1,0,0,0-.9.4h0a1.2,1.2,0,0,0-.5-.5h-.2a1,1,0,0,0-.9.2h0l-.3-.7h-.2a1,1,0,0,0-.9-.1h0a.8.8,0,0,0-.1-.7c0-.1,0-.1-.1-.2a.9.9,0,0,0-.8-.4h0a.9.9,0,0,0,.1-.7V34a1.3,1.3,0,0,0-.6-.7h0a.9.9,0,0,0,.3-.6.3.3,0,0,0,.1-.2,1.3,1.3,0,0,0-.4-.9h0a.8.8,0,0,0,.5-.5c.1-.1.1-.1.1-.2a1,1,0,0,0-.1-.9h.1l.6-.3c0-.1.1-.1.1-.2a1,1,0,0,0,.2-.9h.1a.9.9,0,0,0,.7-.1.1.1,0,0,0,.1-.1,1,1,0,0,0,.5-.8h.1l.5.2h.2m4.8.4a.9.9,0,0,1-.3-.5.7.7,0,0,1,.2-.6.8.8,0,0,1,1.1-.1h.1l.2.5a.7.7,0,0,1-.2.6l-.5.3h-.1l-.5-.2m-6.9.2-.5-.3c-.2-.4-.2-.9.2-1.1H29l.5.3a.7.7,0,0,1-.2,1.1l-.3.2h-.3m14.4.7,2.4-1.2a1.1,1.1,0,0,0,.8-1v-.6a3.1,3.1,0,0,0,2.6.9,3.2,3.2,0,0,0-1.6,2.2l-.3-.3a1.5,1.5,0,0,0-1.3-.4h-.1l-2.5.4h-.1M16.8,27.1a2.6,2.6,0,0,0,1.7-.9v.6a1.6,1.6,0,0,0,.8,1h.1L21.8,29h0l-2.6-.4a1.4,1.4,0,0,0-1.3.3l-.4.4A3.1,3.1,0,0,0,16,27.1h.8m7.4-.2a1,1,0,0,0-.4-.7,1.1,1.1,0,0,0,.8.1h.8a1.1,1.1,0,0,0,0,1.1,2,2,0,0,0-1.1.3Zm17-.7a1.2,1.2,0,0,0-.5.7v.7a1.9,1.9,0,0,0-1-.3,2,2,0,0,0,0-1.1h1.6m-7.1,1.2a.8.8,0,0,1-.4-.4,1.3,1.3,0,0,1-.1-.6c.2-.4.6-.7,1-.5h.1l.4.4a.8.8,0,0,1-.6,1.1h-.4m-3.9-.1a.8.8,0,0,1-.4-.4.8.8,0,0,1,.5-1h.6a.7.7,0,0,1,.4.5c.2.4-.1.8-.5,1h-.6m-4.2.2a1.1,1.1,0,1,1,1.5,0,.9.9,0,0,1-.6.3h-.2a1.1,1.1,0,0,1-.7-.3m11.5,0a.9.9,0,0,1,0-1.5A1.1,1.1,0,0,1,39,27.5a.9.9,0,0,1-.6.3h-.2a.9.9,0,0,1-.7-.3M42,28.6l-.6-.3a.4.4,0,0,1-.3-.6V27a1.1,1.1,0,0,1,.6-.7l1.4-.7h-.1v.7a1.5,1.5,0,0,0,.1.7c.1.1.2.3.4.4l.7.3h.1l-1.4.7H42m-20,0-1.4-.7h.1l.7-.3a1,1,0,0,0,.5-.4.6.6,0,0,0,0-.6v-.8h0l1.4.7c.3.2.5.4.5.7l.2.7a.6.6,0,0,1-.3.6l-.7.3H22m9.9-1.7a1.4,1.4,0,0,1-.2-.6.8.8,0,0,1,.8-.8h.1l.4.3a.5.5,0,0,1,.3.5.8.8,0,0,1-.7.8h-.1l-.6-.2m12.5.5-.7-.3a.4.4,0,0,1-.2-.6v-.7c0-.3.2-.5.5-.7h.1A.8.8,0,0,1,45,25l.7.4.3.2v1.1a1.3,1.3,0,0,1-.6.7h-.9m-24.7,0h-.1c-.3-.2-.5-.4-.5-.7l-.2-.8a.4.4,0,0,1,.1-.3.2.2,0,0,1,.2-.2l.7-.4a1,1,0,0,1,.9.1,1.1,1.1,0,0,1,.6.7v.7a.6.6,0,0,1-.3.6l-.7.3c0,.1-.1.1-.2.1h-.6m16-1.2a1.1,1.1,0,1,1,1.4-.5,1,1,0,0,1-.8.6h-.6m-7.9-.5a1.1,1.1,0,0,1,.5-1.4,1,1,0,0,1,1.4.5,1,1,0,0,1-.4,1.4h-.5a1.1,1.1,0,0,1-1-.6m-1.5-1.1a1.2,1.2,0,0,0-.1-.8,1,1,0,0,0,.7.4h.7a2,2,0,0,0-.3,1.1,1.1,1.1,0,0,0-1.1,0Zm11-.3H38a1.2,1.2,0,0,0,.8-.4,1.1,1.1,0,0,0-.2.8v.8a1.1,1.1,0,0,0-1.1,0,1.4,1.4,0,0,0-.3-1.1m-7.2.3a1.2,1.2,0,0,1,.9-1.2,1.1,1.1,0,0,1,1.3.9,1,1,0,0,1-.9,1.2h-.2a1.1,1.1,0,0,1-1.1-.9m3.5.9a1.1,1.1,0,1,1,1.2-.9,1.1,1.1,0,0,1-.9.9h-.3m18.1-.6h.1a2.2,2.2,0,0,1,1.4-1.4c1.6-.6,2.2,1.1,2.4,1.6a3,3,0,0,1,.1,1.6,1.7,1.7,0,0,1-1.1,1.1h-.3a2.1,2.1,0,0,1-1.7-.4h-.1a2.9,2.9,0,0,0-2.2-.6,2.8,2.8,0,0,0,1.4-1.8M10.3,27.7c-1.5-.5-1.1-2.2-1-2.7a2.7,2.7,0,0,1,1-1.4,1.4,1.4,0,0,1,1.4-.3,2.5,2.5,0,0,1,1.5,1.5h0a3.4,3.4,0,0,0,1.5,1.8,3.2,3.2,0,0,0-2.3.6h-.1a1.6,1.6,0,0,1-.9.3H10.3m13.4-2.2-1.1-1.1h.9l.5-.2a.9.9,0,0,0,.3-.6v-.8h.1l1,1.1a1.2,1.2,0,0,1,.4.9v.7a.8.8,0,0,1-.5.5h-.9a.9.9,0,0,1-.7-.4m16.7.4h-.8a.7.7,0,0,1-.4-.5v-.7c-.1-.3.1-.6.3-.9l1.1-1.1h0v.8l.3.5a.6.6,0,0,0,.6.3h.7a.1.1,0,0,1,.1.1l-1.1,1-.6.4h-.2M29,23.1c.2-.2.2-.5.1-.9a2.2,2.2,0,0,0,.6.7l.7.3a1.7,1.7,0,0,0-.6,1,1.5,1.5,0,0,0-1.1-.4Zm5.5.1.7-.3a1.1,1.1,0,0,0,.6-.7,1.3,1.3,0,0,0,.1.9l.3.7a1.3,1.3,0,0,0-1,.4,1.4,1.4,0,0,0-.7-1m-13.4-1v.6a1.5,1.5,0,0,0,.4,1.2h.1l1.8,1.9h0L21,24.7a1.2,1.2,0,0,0-1.3-.1l-.5.3a2.9,2.9,0,0,0-.8-2.6l1.3.3a3.3,3.3,0,0,0,1.4-.4m20.4,3.7L43.4,24a1.2,1.2,0,0,0,.5-1.2v-.6a2.9,2.9,0,0,0,2.7.1,3.5,3.5,0,0,0-.8,2.6l-.4-.3a1.4,1.4,0,0,0-1.4.1h0l-2.3,1.2h-.1M31.6,23l.5-.5a2,2,0,0,0,.4-.8,1.1,1.1,0,0,0,.3.8l.6.5a1.6,1.6,0,0,0-.9.7,1.6,1.6,0,0,0-.9-.7M15.1,26.3a2.6,2.6,0,0,1-1.4-1.5h-.1a2.5,2.5,0,0,1,.4-1.6,2.1,2.1,0,0,1,1.1-1.3h.1a3.1,3.1,0,0,1,2.1.2,2.6,2.6,0,0,1,1.2,3.4,2.1,2.1,0,0,1-1.7,1.2h-.5a2.7,2.7,0,0,1-1.2-.3m31.3-.9A2.6,2.6,0,0,1,47.7,22a3,3,0,0,1,2.1-.2h.1A2.1,2.1,0,0,1,51,23.1a2.4,2.4,0,0,1,.3,1.6h0a2.9,2.9,0,0,1-1.4,1.5l-.8.3h-.5a2.4,2.4,0,0,1-2.2-1.2M42.3,24h-.8c-.2-.1-.4-.2-.4-.5v-.7a.8.8,0,0,1,.2-.8h.1a1.3,1.3,0,0,1,.8-.3h.8l.3.2a.4.4,0,0,1,.1.3v.7a.9.9,0,0,1-.3.9c-.2.1-.4.3-.6.3h-.2m-20.4-.3h-.1a1.6,1.6,0,0,1-.3-.9v-.7c.1-.2.1-.3.2-.3l.3-.2h.7a1.6,1.6,0,0,1,.9.3,1.6,1.6,0,0,1,.3.9v.7a.6.6,0,0,1-.5.5h-.8a.9.9,0,0,1-.7-.3M26.8,22h.3l.4-.5.3-.7h.1l.7,1.4c.1.3.2.7,0,.9l-.3.7a.6.6,0,0,1-.6.3l-.7-.2a.8.8,0,0,1-.7-.5l-.7-1.4h.1l.7.2h.4m9.8,1.6-.3-.7a1,1,0,0,1,.1-.9l.7-1.4h0l.3.7a1.2,1.2,0,0,0,.5.5.6.6,0,0,0,.6,0h.9l-.7,1.4a1,1,0,0,1-.7.5l-.8.2h-.1a.5.5,0,0,1-.5-.3m-6-2.9a.9.9,0,0,0,.6-.3l.5-.5h.1l.2,1.5a.9.9,0,0,1-.2.9l-.6.5a.2.2,0,0,1-.2.2h-.4l-.7-.3a1,1,0,0,1-.4-.8l-.3-1.5h.1l.7.4h.6m3.1,2-.5-.5a1.2,1.2,0,0,1-.3-.9l.3-1.5h.1l.5.5a.5.5,0,0,0,.5.3h.6l.7-.3h.1l-.2,1.5a1.2,1.2,0,0,1-.5.8l-.7.3h-.2a.5.5,0,0,1-.4-.2m4.2-1.5-.4-.7a1.1,1.1,0,0,1,0-.8h.1a.8.8,0,0,1,.7-.5l.7-.2h.4c.1,0,.1.1.2.2l.3.7a1.4,1.4,0,0,1,0,.9,1.9,1.9,0,0,1-.7.6h-.9c-.2,0-.3-.1-.4-.3m-11.4.3h-.7a1.8,1.8,0,0,1-.7-.5h0a1,1,0,0,1-.1-.9l.4-.7a.2.2,0,0,1,.2-.2h.3l.8.2c.3,0,.5.2.7.5s.2.7,0,.9l-.3.7c-.1.2-.2.3-.4.3h-.2m-4.2-3.1a2.9,2.9,0,0,0,2.6.8l-.3.5a1.5,1.5,0,0,0,.1,1.3h0l1.2,2.3h0L24,21.5a1.4,1.4,0,0,0-1.2-.4h-.6a2.9,2.9,0,0,0,.1-2.7m18.8.8a3,3,0,0,0,1.6-.8,3.2,3.2,0,0,0,0,2.7h-.5a1.4,1.4,0,0,0-1.2.4.1.1,0,0,0-.1.1l-1.8,1.8h0L40.3,21a1.5,1.5,0,0,0,0-1.3l-.2-.5h1m-7,.9-.5-.6a.8.8,0,0,1-.3-.7h.1a1,1,0,0,1,.4-.8l.7-.3h.4a.2.2,0,0,1,.2.2l.6.5a1,1,0,0,1,.2.9c-.1.3-.2.6-.5.7l-.7.4a.1.1,0,0,0-.1.1h-.1a.5.5,0,0,1-.4-.2m-3.9.1-.7-.4a.7.7,0,0,1-.4-.6h0a.9.9,0,0,1,.2-.9l.5-.5.3-.2h.3l.7.3a1.4,1.4,0,0,1,.5.8,1,1,0,0,1-.2.9l-.6.5-.3.2h-.3m18.3-.9h0a2.1,2.1,0,0,1,.9-1.8c1.3-1,2.4.4,2.8.8a5.2,5.2,0,0,1,.6,1.6,1.9,1.9,0,0,1-.7,1.3,2.6,2.6,0,0,1-2.1.3h-.1a3.1,3.1,0,0,0-2.3.2,3.1,3.1,0,0,0,.9-2.2M12.9,21.1c-1.3-1-.4-2.5-.1-2.9a2.7,2.7,0,0,1,1.3-1.1,1.7,1.7,0,0,1,1.5.3,2.4,2.4,0,0,1,.9,1.8h0a3.5,3.5,0,0,0,.8,2.2,3,3,0,0,0-2.3-.2h-.8a3.3,3.3,0,0,1-1.3-.4m4.9.2a3.2,3.2,0,0,1-.8-2h0a2.1,2.1,0,0,1,.8-1.4,2.1,2.1,0,0,1,1.5-.8h0a3,3,0,0,1,2,.8,2.5,2.5,0,0,1,.1,3.6,2.1,2.1,0,0,1-1.7.7,3.1,3.1,0,0,1-1.9-.8m25.7.1a2.6,2.6,0,0,1,.2-3.6,2.7,2.7,0,0,1,1.9-.8h.1a1.7,1.7,0,0,1,1.4.8c.5.5.9.9.9,1.5h0a2.7,2.7,0,0,1-.9,2,2.1,2.1,0,0,1-1.5.7h-.4a2.3,2.3,0,0,1-1.7-.7M29,21.8l-1.2-2.4a1.6,1.6,0,0,0-1-.8h-.6a2.9,2.9,0,0,0,.9-2.5,3.1,3.1,0,0,0,2.2,1.5l-.3.4a1.5,1.5,0,0,0-.4,1.3h0l.4,2.6h0m6.9,0,.5-2.6a1.8,1.8,0,0,0-.4-1.3l-.4-.4h.1A2.7,2.7,0,0,0,37.8,16a3.2,3.2,0,0,0,.9,2.5h-.5a1.6,1.6,0,0,0-1,.8h-.1l-1.2,2.3h0m-3.4-.5-.4-2.7a1.5,1.5,0,0,0-.8-1.1l-.5-.2a3,3,0,0,0,1.7-2.2,3.1,3.1,0,0,0,1.6,2.2l-.5.2a1.8,1.8,0,0,0-.7,1.1h0l-.4,2.5h0M22,17.3a3.1,3.1,0,0,1-.2-2.1h0A2.1,2.1,0,0,1,23.1,14a1.9,1.9,0,0,1,1.6-.3h.1a2.6,2.6,0,0,1,1.5,1.4,2.4,2.4,0,0,1-.9,3.4,2.3,2.3,0,0,1-1.1.3A2.8,2.8,0,0,1,22,17.3m18.3-3.7h0a2.5,2.5,0,0,1,1.6.4,2.2,2.2,0,0,1,1.2,1.1h.1a3.1,3.1,0,0,1-.2,2.1,2.6,2.6,0,0,1-3.4,1.2,2.5,2.5,0,0,1-1-3.4,2.7,2.7,0,0,1,1.6-1.4h.1ZM43.6,15h0a2.4,2.4,0,0,1,.3-2c1-1.3,2.4-.4,2.9-.1a2.4,2.4,0,0,1,1,1.3,1.6,1.6,0,0,1-.2,1.5,2.6,2.6,0,0,1-1.9.9h-.1a2.9,2.9,0,0,0-2.1.9,3.3,3.3,0,0,0,.1-2.4M19.2,16.5a2.4,2.4,0,0,1-1.8-.9c-1-1.4.4-2.5.8-2.8a2.7,2.7,0,0,1,1.6-.6,1.6,1.6,0,0,1,1.3.7,2.4,2.4,0,0,1,.3,2h-.1a3.3,3.3,0,0,0,.2,2.4,3.1,3.1,0,0,0-2.2-.9h-.1m8-1.7a3,3,0,0,1,.5-2.1h0a2,2,0,0,1,1.5-.7,2.4,2.4,0,0,1,1.7.2H31A2.9,2.9,0,0,1,32,14a2.4,2.4,0,0,1-2,3h-.3a2.6,2.6,0,0,1-2.5-2.2m6.9-2.6h0a2.1,2.1,0,0,1,1.6-.2c.7.1,1.2.2,1.5.7h.1a3,3,0,0,1,.5,2.1A2.6,2.6,0,0,1,34.9,17a2.6,2.6,0,0,1-2-3A2.7,2.7,0,0,1,34,12.2h.1Zm3.6.2h-.1a2.4,2.4,0,0,1-.3-2c.5-1.5,2.2-1.1,2.7-1a3,3,0,0,1,1.4,1,1.4,1.4,0,0,1,.2,1.4,2.3,2.3,0,0,1-1.5,1.5H40a3.5,3.5,0,0,0-1.7,1.5,4.6,4.6,0,0,0-.6-2.3m-12.8.8h-.1a2.3,2.3,0,0,1-1.4-1.5c-.6-1.5,1.1-2.2,1.6-2.4a2.2,2.2,0,0,1,1.6,0,1.6,1.6,0,0,1,1.1,1,2.3,2.3,0,0,1-.4,2.1h0a3.2,3.2,0,0,0-.6,2.3,3.4,3.4,0,0,0-1.8-1.5m6.3-1.4h-.1a2.1,2.1,0,0,1-.9-1.8c0-1.6,1.7-1.7,2.3-1.7a2.7,2.7,0,0,1,1.6.4,1.5,1.5,0,0,1,.6,1.3,2.5,2.5,0,0,1-.9,1.9h-.1a3.2,3.2,0,0,0-1.2,2,3.4,3.4,0,0,0-1.3-2m1.3-4.1h-.7a2.2,2.2,0,0,0-2.1,2.2,2.5,2.5,0,0,0,.5,1.5H29.1l-.9.2a2.6,2.6,0,0,0-.1-1.5,2,2,0,0,0-1.3-1.4,2.8,2.8,0,0,0-2,.1c-1.6.5-2.3,1.7-1.9,3a3.8,3.8,0,0,0,.9,1.3l-1,.4-.8.5a3.8,3.8,0,0,0-.5-1.5,2.3,2.3,0,0,0-1.8-.9,3.7,3.7,0,0,0-1.8.7c-1.4,1-1.7,2.3-.9,3.4a2.3,2.3,0,0,0,1.2,1,2.3,2.3,0,0,0-.7.7,2.3,2.3,0,0,0-.7.7,2.3,2.3,0,0,0-1-1.2,1.7,1.7,0,0,0-1.8-.3,3,3,0,0,0-1.6,1.2c-1,1.4-.9,2.7.2,3.5a3.2,3.2,0,0,0,1.5.6l-.6.8-.3,1a2.8,2.8,0,0,0-1.3-.9,2.1,2.1,0,0,0-1.9.3,2.7,2.7,0,0,0-1.1,1.6c-.5,1.6,0,2.9,1.3,3.3a2.6,2.6,0,0,0,1.5.1,3,3,0,0,0-.2,1,3.1,3.1,0,0,0-.1,1,2.5,2.5,0,0,0-1.5-.5,2,2,0,0,0-1.7.9,2.9,2.9,0,0,0-.5,1.9c0,1.7.8,2.7,2.2,2.7a2.4,2.4,0,0,0,1.5-.4,3.4,3.4,0,0,0,.1,1,3.6,3.6,0,0,0,.2,1,2.6,2.6,0,0,0-1.5,0,2,2,0,0,0-1.4,1.4,2.5,2.5,0,0,0,.1,1.9c.5,1.7,1.7,2.4,3,2a3.8,3.8,0,0,0,1.3-.9,3.6,3.6,0,0,0,.4.9,4.1,4.1,0,0,0,.5.9,2.7,2.7,0,0,0-1.5.5,2,2,0,0,0-.9,1.7,4,4,0,0,0,.7,1.9c1,1.3,2.3,1.7,3.5.9a3.8,3.8,0,0,0,.9-1.3,2.7,2.7,0,0,0,.7.8c.2.2.4.5.7.6a2.9,2.9,0,0,0-1.2,1,1.9,1.9,0,0,0-.3,1.9,2.5,2.5,0,0,0,1.2,1.5c1.4,1,2.7,1,3.6-.2a3.4,3.4,0,0,0,.5-1.4l.8.5,1,.4a2.4,2.4,0,0,0-.9,1.3,2.1,2.1,0,0,0,.3,1.9,3.3,3.3,0,0,0,1.6,1.1c1.6.5,2.9,0,3.3-1.3a2.9,2.9,0,0,0,.1-1.6l1,.3a3.3,3.3,0,0,0,1,0,3,3,0,0,0-.5,1.5,2,2,0,0,0,.9,1.8,3.6,3.6,0,0,0,1.9.5h0c1.7,0,2.7-.9,2.7-2.3a2.8,2.8,0,0,0-.4-1.5,3.4,3.4,0,0,0,1,0l1-.3a2.9,2.9,0,0,0,0,1.6,2,2,0,0,0,1.4,1.4,4.2,4.2,0,0,0,1.9-.1c1.7-.6,2.4-1.7,2-3a3,3,0,0,0-.9-1.3l.9-.4.9-.5a2.4,2.4,0,0,0,.5,1.4,2,2,0,0,0,1.7.9,3.2,3.2,0,0,0,1.9-.7c1.3-1,1.7-2.3.9-3.4a4.1,4.1,0,0,0-1.3-1,3.5,3.5,0,0,0,1.4-1.4,4.1,4.1,0,0,0,1,1.3,2.2,2.2,0,0,0,1.9.3,2.9,2.9,0,0,0,1.5-1.2c1-1.4,1-2.8-.2-3.6a2.4,2.4,0,0,0-1.4-.5,4.1,4.1,0,0,0,.5-.9,3.6,3.6,0,0,0,.4-.9,3,3,0,0,0,1.3.9,2.1,2.1,0,0,0,1.9-.3,3.6,3.6,0,0,0,1.1-1.7c.5-1.6,0-2.8-1.3-3.3a2.9,2.9,0,0,0-1.6,0l.3-1a3.4,3.4,0,0,0,0-1,2.8,2.8,0,0,0,1.5.4,2.2,2.2,0,0,0,1.8-.8,3.8,3.8,0,0,0,.5-1.9,1.5,1.5,0,0,0-.1-.7h0A2.2,2.2,0,0,0,55,29.7a3,3,0,0,0-1.5.5,4.1,4.1,0,0,0,0-1.1l-.3-.9a2.9,2.9,0,0,0,1.6-.1,2,2,0,0,0,1.4-1.3,4.6,4.6,0,0,0-.1-2c-.6-1.6-1.7-2.3-3-1.9a3,3,0,0,0-1.3.9,3,3,0,0,0-.4-1,2.2,2.2,0,0,0-.5-.8,2.5,2.5,0,0,0,1.4-.6,2,2,0,0,0,.9-1.7,2.9,2.9,0,0,0-.7-1.8c-1-1.4-2.3-1.7-3.4-.9a2.9,2.9,0,0,0-1,1.2c-.1-.3-.4-.5-.6-.7a2.7,2.7,0,0,0-.8-.7,3.1,3.1,0,0,0,1.3-1,1.9,1.9,0,0,0,.3-1.8,3.6,3.6,0,0,0-1.2-1.6c-1.4-1-2.8-.9-3.6.2a3,3,0,0,0-.5,1.5l-.9-.6-.9-.3a3.8,3.8,0,0,0,.9-1.3,2.1,2.1,0,0,0-.3-1.9,3,3,0,0,0-1.7-1.1c-1.6-.5-2.8,0-3.3,1.3a2.6,2.6,0,0,0,0,1.5l-1-.2h-1a2.4,2.4,0,0,0,.4-1.5,2.1,2.1,0,0,0-.8-1.7,3,3,0,0,0-1.9-.5Z"/>
    </clipPath>
  </defs>
  <title>Asset 3</title>
  <g id="Layer_2" data-name="Layer 2">
    <g id="Layer_1-2" data-name="Layer 1">
      <g>
        <g>
          <polygon points="64.2 11.5 70.7 11.5 70.7 12.8 65.9 12.8 65.9 15.3 70.3 15.3 70.5 16.7 65.9 16.7 65.9 19.4 70.9 19.4 70.9 20.7 64.2 20.7 64.2 11.5"/>
          <polygon points="75.5 17.1 72.9 20.7 71.1 20.7 74.5 15.9 71.4 11.6 73.2 11.3 75.6 14.8 77.9 11.5 79.7 11.5 76.6 15.9 80 20.6 78.2 20.8 75.5 17.1"/>
          <path d="M88.1,14.5c0,1.9-1.3,3.1-3.6,3.1H82.2v3.1H80.6V11.5h3.9c2.3,0,3.6,1.2,3.6,3m-1.7,0a1.7,1.7,0,0,0-1.9-1.7H82.2v3.5h2.3a1.7,1.7,0,0,0,1.9-1.8"/>
          <path d="M88.6,16.1a5,5,0,0,1,9.9,0,5,5,0,0,1-9.9,0m1.6,0a3.3,3.3,0,1,0,6.6,0,3.3,3.3,0,1,0-6.6,0"/>
          <path d="M64.2,33.2h3.2a4.5,4.5,0,0,1,4.7,4.7,4.4,4.4,0,0,1-4.7,4.6H64.2Zm7.4,4.7a3.9,3.9,0,0,0-4.2-4.1H64.8V42h2.6a3.9,3.9,0,0,0,4.2-4.1"/>
          <path d="M74.1,33.2v5.9c0,1.7,1.1,3,3.3,3a3,3,0,0,0,3.3-3V33.3h.5v5.9a3.8,3.8,0,0,1-7.6,0V33.3Z"/>
          <path d="M89.9,35.6a2.2,2.2,0,0,1-1.5,2.2A2,2,0,0,1,90.1,40c0,1.7-1,2.5-3,2.5H83.2V33.2h3.5c2,0,3.2.7,3.2,2.4m-.6,0c0-1.7-1.3-1.8-2.8-1.8H83.7v3.7h2.8c1.5,0,2.8-.1,2.8-1.9M83.7,42h3.2c1.5,0,2.7-.3,2.7-2s-1.2-2-2.7-2H83.7Z"/>
          <path d="M97.7,40.1H92.3l-1.1,2.4h-.5l4-9.3h.6l4.1,9.4h-.5Zm-.2-.6L95,33.9l-2.5,5.6Z"/>
          <polygon points="100.6 42.5 100.6 33.3 101.2 33.2 101.2 42.2 101.2 42.5 100.6 42.5"/>
          <path d="M64.8,44.1V50A2.9,2.9,0,0,0,68,53c2.2,0,3.3-1.3,3.3-3V44.2h.6V50c0,1.9-1.2,3.6-3.9,3.6A3.5,3.5,0,0,1,64.2,50V44.2Z"/>
          <path d="M79.8,51H74.3l-1,2.4h-.6l4.1-9.3h.5l4.1,9.3-.5.2Zm-.3-.6L77,44.7l-2.4,5.7Z"/>
          <polygon points="82.6 44.1 88.9 44.1 88.9 44.7 83.2 44.7 83.2 48.4 88.5 48.4 88.6 48.9 83.2 48.9 83.2 52.9 89.1 52.9 89.1 53.4 82.6 53.4 82.6 44.1"/>
          <path d="M67.3,22.2c1.8,0,3.4.8,3.4,2.7s-4.9,3.4-4.9,5.4h4.9l.2,1.3H64v-.8c0-3.5,5.1-3.6,5.1-5.8s-.9-1.5-2-1.5a5.4,5.4,0,0,0-2.6.9l-.3-1.3a6.9,6.9,0,0,1,3.1-.9"/>
          <path d="M71.4,27c0-2.7,1.4-4.8,4.1-4.8s4.2,2.1,4.2,4.8-1.4,4.8-4.2,4.8-4.1-2.1-4.1-4.8m1.7,0c0,2.1.8,3.5,2.4,3.5S78,29.1,78,27s-.8-3.5-2.5-3.5-2.4,1.4-2.4,3.5"/>
          <path d="M83.5,22.2c1.8,0,3.4.8,3.4,2.7S82,28.3,82,30.3h4.9l.2,1.3H80.2v-.8c0-3.5,5-3.6,5-5.8s-.9-1.5-1.9-1.5a5.1,5.1,0,0,0-2.6.9l-.3-1.3a6.9,6.9,0,0,1,3.1-.9"/>
          <path d="M87.6,27c0-2.7,1.3-4.8,4.1-4.8s4.1,2.1,4.1,4.8-1.3,4.8-4.1,4.8-4.1-2.1-4.1-4.8m1.7,0c0,2.1.7,3.5,2.4,3.5s2.5-1.4,2.5-3.5-.8-3.5-2.5-3.5-2.4,1.4-2.4,3.5"/>
        </g>
        <g>
          <path d="M30.9,56.4a1.5,1.5,0,0,1-.7-1.4,2.4,2.4,0,0,1,.9-1.8h.1a2.9,2.9,0,0,0,1.3-1.9,2.8,2.8,0,0,0,1.2,1.9.1.1,0,0,0,.1.1h0a2.3,2.3,0,0,1,.9,1.8,1.6,1.6,0,0,1-1.6,1.7h-.6a3.4,3.4,0,0,1-1.6-.4M25,55.6a2.1,2.1,0,0,1-1.4-.9,1.6,1.6,0,0,1-.3-1.5,2.3,2.3,0,0,1,1.5-1.4h.1a2.8,2.8,0,0,0,1.8-1.4,2.9,2.9,0,0,0,.6,2.2h.1a2.4,2.4,0,0,1,.3,2,1.7,1.7,0,0,1-1.3,1.2H26l-1-.2m13.3.1a1.6,1.6,0,0,1-1-1.1,2.4,2.4,0,0,1,.3-2h.1a4,4,0,0,0,.6-2.2,2.8,2.8,0,0,0,1.8,1.4h.1a2,2,0,0,1,1.4,1.4c.5,1.6-1.1,2.2-1.6,2.4H38.3M29.2,53a2.4,2.4,0,0,1-1.5-.7h0a2.9,2.9,0,0,1-.5-2A2.5,2.5,0,0,1,30,47.9a2.5,2.5,0,0,1,2,3,2.7,2.7,0,0,1-1,1.8h-.1l-.6.2H29.2m4.9-.2H34a2.5,2.5,0,0,1-1.1-1.8,2.7,2.7,0,0,1,2-3,2.6,2.6,0,0,1,2.9,2.3,2.9,2.9,0,0,1-.5,2h-.1a2.1,2.1,0,0,1-1.5.7H35a1.3,1.3,0,0,1-.9-.2M19.8,48.4a3.8,3.8,0,0,0,1.7-.8,3.7,3.7,0,0,0-.2,2.3h.1a2.4,2.4,0,0,1-.3,2c-1,1.3-2.5.4-2.9.1a2.9,2.9,0,0,1-1.1-1.4,1.5,1.5,0,0,1,.3-1.4,2.1,2.1,0,0,1,1.8-.9h.6m24.1,3.7a2.6,2.6,0,0,1-.3-2.1h0a3.1,3.1,0,0,0-.1-2.3,2.9,2.9,0,0,0,2.1.9h.2a2.3,2.3,0,0,1,1.8.9c.9,1.3-.4,2.4-.8,2.8a2.7,2.7,0,0,1-1.3.5h-.3a1.7,1.7,0,0,1-1.3-.7M23.1,51c-.7-.4-1.1-.6-1.3-1.2h0a3,3,0,0,1,.2-2.1,2.6,2.6,0,0,1,3.4-1.3,2.5,2.5,0,0,1,.9,3.5,2.9,2.9,0,0,1-1.5,1.4h-.5a2.8,2.8,0,0,1-1.2-.4m17.2.3h-.1a2.8,2.8,0,0,1-1.6-1.4,2.7,2.7,0,0,1,1-3.5A2.6,2.6,0,0,1,43,47.7a3,3,0,0,1,.2,2.1h-.1c-.2.5-.6.7-1.2,1.1l-1,.3h-.6M30.1,47.4h-.3l-.5-.6a1.1,1.1,0,0,1-.3-.8,1.2,1.2,0,0,1,.5-.8l.7-.3a.4.4,0,0,1,.6.1l.6.5a1.9,1.9,0,0,1,.2.8h0c-.1.3-.2.6-.5.7l-.7.4h-.3m4.4,0-.7-.4a.8.8,0,0,1-.4-.7.9.9,0,0,1,.2-.9l.5-.5c.2-.2.4-.3.6-.1l.7.3a1.3,1.3,0,0,1,.5.7h0a.8.8,0,0,1-.2.8l-.6.6h-.6m-3.7.3.5-.3a1.5,1.5,0,0,0,.8-1.1h0l.4-2.6h0l.4,2.6a1.4,1.4,0,0,0,.7,1.1l.5.3a3.1,3.1,0,0,0-1.6,2.1,3,3,0,0,0-1.7-2.1M17.3,43.5a3.2,3.2,0,0,0-.8,2.1h0a2.6,2.6,0,0,1-.9,1.8c-.3.1-.5.3-.8.3s-1.7-.8-2-1.1a2.9,2.9,0,0,1-.6-1.6,1.5,1.5,0,0,1,.7-1.3,2.4,2.4,0,0,1,2-.3H15l1,.2a2.8,2.8,0,0,0,1.3-.3m32.1,4.1a2.3,2.3,0,0,1-.9-1.9h0a2.9,2.9,0,0,0-.9-2.1,3.1,3.1,0,0,0,2.3.1h.2a2.4,2.4,0,0,1,2,.3c1.3,1,.4,2.4.1,2.9a2.6,2.6,0,0,1-1.4,1c0,.1-.1.1-.2.1h-.2a1.7,1.7,0,0,1-1-.3M25.6,46l-.2-.3L25,45a1,1,0,0,1,.1-.9.8.8,0,0,1,.7-.5h.7a.4.4,0,0,1,.6.2l.3.7a1.1,1.1,0,0,1,0,.8h0a1.3,1.3,0,0,1-.7.6H25.6M39,46h-.7a1.1,1.1,0,0,1-.7-.6,1,1,0,0,1-.1-.9l.4-.7a.4.4,0,0,1,.5-.2h.8a.7.7,0,0,1,.6.5h.1a1.1,1.1,0,0,1,0,.8l-.3.7-.3.3H39m-12.8.4h.6a1.1,1.1,0,0,0,1-.8h0L29,43.2h0l-.4,2.7a1.2,1.2,0,0,0,.3,1.2l.4.4A3.2,3.2,0,0,0,27.1,49a3.1,3.1,0,0,0-.9-2.6m9.4,1,.4-.3a1.8,1.8,0,0,0,.4-1.3h-.1l-.4-2.5H36l1.2,2.4a1.1,1.1,0,0,0,1,.8h.5a3.5,3.5,0,0,0-.9,2.6,3,3,0,0,0-2.2-1.6m-17.8-.2a2.2,2.2,0,0,1-.8-1.5h0a2.7,2.7,0,0,1,.8-1.9,2.5,2.5,0,0,1,3.6-.1,2.4,2.4,0,0,1-.1,3.5,2.7,2.7,0,0,1-1.6.8h-.5a3.4,3.4,0,0,1-1.4-.8m25.9-.1a2.4,2.4,0,1,1,3.4-3.4,2.5,2.5,0,0,1,.9,1.9h0a2.5,2.5,0,0,1-.8,1.4,3.1,3.1,0,0,1-1.3.9h-.3a2.5,2.5,0,0,1-1.9-.9M29.5,43.2a.8.8,0,0,1,.5-.7l.6-.4a.6.6,0,0,1,.7.1l.5.6a.8.8,0,0,1,.2.8l-.2,1.6h-.1l-.5-.6-.6-.3H30l-.7.4h-.1Zm3.4.4a1.1,1.1,0,0,1,.3-.8l.5-.6a.5.5,0,0,1,.6-.1l.7.4c.3.1.4.4.5.7l.2,1.6h-.1l-.6-.3a1,1,0,0,0-.7-.2l-.5.3-.5.6c-.1,0-.1,0-.1.1Zm-9.8.3a2,2,0,0,0,.9-.5h0l1.9-1.8h0l-1.2,2.3a1.5,1.5,0,0,0-.1,1.3l.3.5a3.5,3.5,0,0,0-2.6.8,2.9,2.9,0,0,0-.1-2.7h.9m17.2,1.4a1.7,1.7,0,0,0,0-1.4h-.1l-1.1-2.3c0-.1,0-.1-.1-.1h.1L41,43.4a1.2,1.2,0,0,0,1.2.5h.5a3.2,3.2,0,0,0,0,2.7,3.5,3.5,0,0,0-2.6-.8Zm-8.2-2.9-.5-.5a1.3,1.3,0,0,0,.9-.7,1.3,1.3,0,0,0,.9.7l-.6.5a1.1,1.1,0,0,0-.3.8,2,2,0,0,0-.4-.8m-5.8-.6c.2-.3.4-.6.7-.6h.7a.4.4,0,0,1,.6.3l.3.7a.6.6,0,0,1,0,.8l-.7,1.4h-.1l-.3-.7a.8.8,0,0,0-.4-.4H25.7a.1.1,0,0,0-.1.1Zm10.1,1.1a1,1,0,0,1-.1-.9l.4-.6c.1-.3.3-.4.5-.3H38c.2,0,.5.3.7.6l.7,1.4H37.9a.8.8,0,0,0-.4.4l-.4.7h0Zm4.9.2a.7.7,0,0,1-.3-.8v-.8a.4.4,0,0,1,.4-.4h.8a.9.9,0,0,1,.8.2h0a.7.7,0,0,1,.3.8v.8a.4.4,0,0,1-.1.3H42a1.1,1.1,0,0,1-.7-.3m-18.5.3h-1c-.1-.1-.2-.2-.2-.3v-.8a1.1,1.1,0,0,1,.3-.8.9.9,0,0,1,.9-.3h.7c.3,0,.4.2.5.4v.8a1.6,1.6,0,0,1-.3.8h0a.9.9,0,0,1-.6.3h-.3M29,41.2a2,2,0,0,0,.8-.4,1.5,1.5,0,0,0,.6.9l-.7.4a1,1,0,0,0-.5.6,2.8,2.8,0,0,0-.1-.9l-.4-.6H29m6.2.9-.6-.4a1.5,1.5,0,0,0,.6-.9,1.3,1.3,0,0,0,1,.4l-.3.6a1.4,1.4,0,0,0-.1.9.9.9,0,0,0-.6-.6m2.9-1.4h-.8a1.3,1.3,0,0,0,.3-1,2,2,0,0,0,1.1,0v.7a2.9,2.9,0,0,0,.2.9,1.5,1.5,0,0,0-.7-.5M27.3,39.6a1.9,1.9,0,0,0,.3,1h-.7a1.8,1.8,0,0,0-.7.5,1.4,1.4,0,0,0,.1-.9v-.7h1.1m3.7,2a1.3,1.3,0,0,1-.9-1.3,1.1,1.1,0,0,1,2.2.4,1.4,1.4,0,0,1-.9.9H31m1.7-.9a1.1,1.1,0,0,1,.9-1.3,1,1,0,0,1,1.2.9,1.1,1.1,0,0,1-.9,1.3h-.2a1.1,1.1,0,0,1-1-.9m-8.3,1.5v-.7a.8.8,0,0,0-.2-.6l-.6-.3h-.9l1.1-1.1c.3-.2.6-.4.9-.3h.7c.3,0,.4.2.5.4v.8a.9.9,0,0,1-.4.8l-1,1.1h-.1m15-1a.8.8,0,0,1-.3-.8v-.8a.4.4,0,0,1,.4-.4h.8a.8.8,0,0,1,.8.3l1.1,1.1h-.8l-.6.3a1.6,1.6,0,0,0-.3.6v.7h0Zm-18.9-.8h.6l2.3-1.1h0L21.5,41a1.4,1.4,0,0,0-.4,1.2v.5a3.2,3.2,0,0,0-2.7,0,2.9,2.9,0,0,0,.8-2.6l.5.2.6.2h.2m23.4,1.8a1.2,1.2,0,0,0-.5-1.2h0l-1.8-1.8c-.1,0-.1,0-.1-.1a.1.1,0,0,0,.1.1l2.3,1.2a1.5,1.5,0,0,0,1.3,0l.5-.2a3.5,3.5,0,0,0,.8,2.6,3.2,3.2,0,0,0-2.7,0ZM28.3,40.7a1.3,1.3,0,0,1-.5-1.5,1.1,1.1,0,0,1,1.5-.4,1,1,0,0,1,.4,1.4,1.1,1.1,0,0,1-.7.6h-.7m6.9-.5a1,1,0,0,1,.5-1.4,1,1,0,0,1,1.4.4,1.1,1.1,0,0,1-.5,1.5h-.4a1.1,1.1,0,0,1-1-.6m-20,3h-.1A2.2,2.2,0,0,1,14,41.9a1.9,1.9,0,0,1-.3-1.6h0a2.5,2.5,0,0,1,1.4-1.6,2.5,2.5,0,0,1,3.4,1A2.6,2.6,0,0,1,17.3,43l-.9.2H15.2M47.7,43a2.6,2.6,0,0,1-1.3-3.4,2.7,2.7,0,0,1,3.5-1,2.5,2.5,0,0,1,1.4,1.6h0a2.4,2.4,0,0,1-.3,1.6,2,2,0,0,1-1.2,1.2H49a2.8,2.8,0,0,1-1.3-.3M32.3,39.4l-.4-.2a1.4,1.4,0,0,1-.2-.6.8.8,0,0,1,.8-.8,1.2,1.2,0,0,1,.8.8.8.8,0,0,1-.7.8h-.3M34,39a.8.8,0,0,1-.4-.4.8.8,0,0,1,.5-1,.6.6,0,0,1,.6,0,.7.7,0,0,1,.4.5c.2.4-.1.8-.5,1H34m-3.7.1a.1.1,0,0,0-.1-.1l-.3-.3a1.3,1.3,0,0,1-.1-.6c.2-.4.6-.7,1-.5a.7.7,0,0,1,.5.4.8.8,0,0,1-.6,1.1h-.4m13.8.8a1,1,0,0,1-.5-.7v-.8a.4.4,0,0,1,.2-.5l.7-.4a1.1,1.1,0,0,1,.8,0h.1a1.1,1.1,0,0,1,.6.7v1.1l-.3.2-.7.3c0,.1-.1.1-.2.1h-.7m-24.2,0-.7-.3c-.1-.1-.2-.2-.2-.3a.4.4,0,0,1-.1-.3l.2-.7a.8.8,0,0,1,.5-.7,1,1,0,0,1,.9-.1l.7.4a.5.5,0,0,1,.3.5v.8a1.5,1.5,0,0,1-.5.6h-1M24.2,38v-.7a1.4,1.4,0,0,0,1.1.3,1.1,1.1,0,0,0,0,1.1h-.8l-.8.2a1.2,1.2,0,0,0,.4-.8m15.7-.4a.9.9,0,0,0,.7-.3V38a2.2,2.2,0,0,0,.5.8,1.5,1.5,0,0,0-.9-.2h-.7a2,2,0,0,0,0-1.1h.3m11.3.6a2.4,2.4,0,0,0,1.3-.5.1.1,0,0,1,.1-.1h0a2.4,2.4,0,0,1,2-.3c1.6.5,1.2,2.2,1,2.7a2.8,2.8,0,0,1-.9,1.4,1.6,1.6,0,0,1-1.5.2,2.1,2.1,0,0,1-1.4-1.5h-.1a2.9,2.9,0,0,0-1.4-1.7h.9M9.3,40a2.5,2.5,0,0,1,0-1.7,1.4,1.4,0,0,1,1-1,2.6,2.6,0,0,1,2.1.3h0a4.6,4.6,0,0,0,2.3.6,3.4,3.4,0,0,0-1.5,1.8h0a2.3,2.3,0,0,1-1.5,1.4h-.5c-1.2,0-1.7-1.3-1.9-1.7M26,39a1.1,1.1,0,0,1,0-1.5.9.9,0,0,1,1.5,0,1.1,1.1,0,0,1,0,1.5l-.6.3h-.2A1.1,1.1,0,0,1,26,39m11.5,0A1.1,1.1,0,0,1,39,37.5,1.1,1.1,0,0,1,39,39l-.6.3h-.2a.9.9,0,0,1-.7-.3M36,38.2a.5.5,0,0,1-.5-.3.8.8,0,0,1,.1-1.1.7.7,0,0,1,.6-.1.5.5,0,0,1,.5.3.8.8,0,0,1-.1,1.1H36m-7.6-.1h-.1a.8.8,0,0,1-.2-.4.7.7,0,0,1,.1-.6.8.8,0,0,1,1.1-.2.5.5,0,0,1,.3.5.7.7,0,0,1-.1.6.5.5,0,0,1-.5.3h-.6m-6.6,1.2.2-.8a1.3,1.3,0,0,0-.1-.6,1,1,0,0,0-.5-.4l-.7-.4h-.1l1.4-.7a1,1,0,0,1,.9-.1l.7.4a.5.5,0,0,1,.3.5V38a1.9,1.9,0,0,1-.6.7l-1.4.7h0m20-.6c-.3-.2-.6-.5-.6-.7v-.8c-.1-.2.1-.4.3-.6l.7-.3a.8.8,0,0,1,.8.1l1.4.7h-.1l-.7.3a1,1,0,0,0-.4.5,1.3,1.3,0,0,0-.1.6v.9ZM47,36l.4-.4A3,3,0,0,0,49,37.8a3.5,3.5,0,0,0-2.6.9v-.5a1.1,1.1,0,0,0-.8-1h0l-2.3-1.2h0l2.6.5H46a1.5,1.5,0,0,0,1-.4m-29.5-.4.4.4a1.8,1.8,0,0,0,1.3.4h0l2.6-.4h.1c-.1,0-.1,0-.1.1l-2.4,1.2a1.6,1.6,0,0,0-.8,1v.5a3.2,3.2,0,0,0-2.5-.9,2.9,2.9,0,0,0,1.5-2.2M37,36.7c-.4-.2-.4-.7-.2-1.1a.9.9,0,0,1,.5-.3.7.7,0,0,1,.6.2c.4.2.4.7.2,1.1a.1.1,0,0,0-.1.1l-.4.2h-.2l-.4-.2m-10.1-.1c-.1-.1-.1-.1-.1-.2a.6.6,0,0,1-.1-.4l.3-.5a.8.8,0,0,1,1.1.1.7.7,0,0,1,.2.6l-.3.5-.4.2h-.1a.7.7,0,0,1-.6-.3m-2.6,0a1.1,1.1,0,1,1,1.4.5h-.5a1.1,1.1,0,0,1-.9-.6m14.9.5a1,1,0,0,1-.4-1.4,1,1,0,0,1,1.4-.5,1.1,1.1,0,0,1,.5,1.4.9.9,0,0,1-.8.6h-.7M22.9,35.2l.3-.6a1.7,1.7,0,0,0,1,.6,1.3,1.3,0,0,0-.4,1l-.7-.3a1.3,1.3,0,0,0-.9-.1,1.1,1.1,0,0,0,.7-.6m17.9,0a1.3,1.3,0,0,0,.9-.7l.4.7a.9.9,0,0,0,.6.6,1.4,1.4,0,0,0-.9.1l-.6.3a1.3,1.3,0,0,0-.4-1m-2.7-.1a.7.7,0,0,1-.5-1c0-.2.2-.3.4-.4h.6a.9.9,0,0,1,.5,1,.1.1,0,0,1-.1.1c0,.2-.2.3-.3.4h-.6m-12.2-.5a.1.1,0,0,0-.1-.1.9.9,0,0,1,.1-.5,1,1,0,0,1,.5-.4.9.9,0,0,1,1,.5,1.3,1.3,0,0,1-.1.6c-.1.2-.2.4-.4.4s-.1,0-.1.1h-.2a.9.9,0,0,1-.7-.6m20,1.3c-.4-.1-.7-.2-.8-.5l-.3-.7c-.2-.2-.1-.4.1-.6l.5-.5a1.1,1.1,0,0,1,.8-.3h.1a.8.8,0,0,1,.7.4l.4.7v.4c0,.1,0,.2-.1.2l-.6.6-.5.2h-.3m-27.7-.2-.5-.6c-.1-.1-.2-.2-.2-.3a.4.4,0,0,1,.1-.3l.3-.7a1.2,1.2,0,0,1,.8-.4,1,1,0,0,1,.9.2l.5.5a.5.5,0,0,1,.1.6l-.4.7a1,1,0,0,1-.6.5h-.3l-.7-.2m2-.1.4-.6a1.7,1.7,0,0,0,.1-.7c0-.2-.1-.3-.3-.5l-.5-.5h-.1l1.5-.3a1.2,1.2,0,0,1,.9.3l.5.5a.5.5,0,0,1,.1.6l-.3.7a1.1,1.1,0,0,1-.8.5h0l-1.5.2h0m23-.1a1.3,1.3,0,0,1-.7-.5l-.4-.7a.5.5,0,0,1,.1-.6l.6-.5a1.1,1.1,0,0,1,.8-.3l1.6.3h-.1l-.6.6-.3.5a1.3,1.3,0,0,0,.1.6l.4.7c0,.1,0,.1.1.1ZM12.7,37.3h0c-.5-.3-.6-.8-.7-1.5a2.1,2.1,0,0,1,.2-1.6h0A2.7,2.7,0,0,1,14,32.9a2.6,2.6,0,0,1,3,2,2.6,2.6,0,0,1-2.2,2.9h-.5a3,3,0,0,1-1.6-.5m37.5.5a2.6,2.6,0,0,1-2.3-2.9,2.7,2.7,0,0,1,3-2A2.5,2.5,0,0,1,52.7,34h.1a2.1,2.1,0,0,1,.2,1.6,2.1,2.1,0,0,1-.7,1.5h-.1l-1.1.5h-.9M23.4,33.9a1.1,1.1,0,1,1,1.2.9h-.1a1.1,1.1,0,0,1-1.1-.9m16.9.9a1,1,0,0,1-.9-1.2,1.1,1.1,0,0,1,1.3-.9,1.2,1.2,0,0,1,.9,1.2,1.2,1.2,0,0,1-.9.9h-.4m-2.5-2.3a.9.9,0,0,1,.3-.6l.5-.2a.7.7,0,0,1,.8.8h0a.5.5,0,0,1-.2.4c-.1.2-.3.2-.5.3h-.1a.9.9,0,0,1-.8-.8m-12.3,0v-.2l.3-.4.5-.2a.7.7,0,0,1,.8.8.8.8,0,0,1-.2.5l-.4.3h-.2a.9.9,0,0,1-.8-.8m-3,.3a1.1,1.1,0,0,0-.8-.3h.1l.7-.4.5-.5a1.6,1.6,0,0,0,.7.9,1.6,1.6,0,0,0-.7.9Zm18.7-.3a1.3,1.3,0,0,0,.7-.9l.5.5.8.4a1.1,1.1,0,0,0-.8.3l-.5.6a1.3,1.3,0,0,0-.7-.9m6.2,1.1a1.8,1.8,0,0,0-1.1-.7h0l-2.6-.4h0l2.6-.4h0a1.5,1.5,0,0,0,1.1-.8l.3-.5a3,3,0,0,0,2.1,1.7,3.1,3.1,0,0,0-2.1,1.6ZM15.1,32.5a3,3,0,0,0,2.2-1.7l.2.5a1.5,1.5,0,0,0,1.1.8h.1l2.5.4h.1l-2.7.4a1.4,1.4,0,0,0-1.1.7l-.2.5a3.1,3.1,0,0,0-2.2-1.6m38.1,1.3h-.1a2.8,2.8,0,0,0-1.9-1.2,2.9,2.9,0,0,0,1.9-1.3h.1a2.3,2.3,0,0,1,1.8-.9c1.7,0,1.8,1.7,1.8,2.3a3.8,3.8,0,0,1-.4,1.6,1.5,1.5,0,0,1-1.1.6H55a2.1,2.1,0,0,1-1.8-.9m-45-1.3a2.5,2.5,0,0,1,.4-1.6,1.4,1.4,0,0,1,1.3-.7,2.8,2.8,0,0,1,1.9.9h0a3.4,3.4,0,0,0,2,1.3,3.2,3.2,0,0,0-2,1.2h-.1a2.2,2.2,0,0,1-1.4.9H9.9c-1.6,0-1.7-1.7-1.7-2.2m16.1-.2a1.1,1.1,0,0,1-.9-1.3,1.2,1.2,0,0,1,1.2-.9,1.1,1.1,0,0,1,.9,1.3,1.2,1.2,0,0,1-.9.9h-.3m15.1-.9a1.1,1.1,0,0,1,.9-1.3,1.3,1.3,0,0,1,1.3.9,1.3,1.3,0,0,1-.9,1.3h-.2a1.2,1.2,0,0,1-1.1-.9m-1.8-.6a.6.6,0,0,1,0-.6,1,1,0,0,1,.5-.4.9.9,0,0,1,1,.5v.2a.6.6,0,0,1-.1.4c-.1.2-.2.4-.4.4h-.3a.7.7,0,0,1-.7-.6m-11.2.5a.7.7,0,0,1-.5-1h0c.1-.1.2-.3.4-.3h.6a.9.9,0,0,1,.5,1,1,1,0,0,1-.4.5h-.6m16.4.5-.6-.6c-.2-.1-.2-.4-.1-.6l.4-.7a.8.8,0,0,1,.7-.4l1.6-.3h-.1l-.3.7a.7.7,0,0,0-.2.6l.3.6.6.5h.1l-1.6.2h-.2l-.6-.2M21.3,32l-1.5-.2c0-.1,0-.1.1-.1l.5-.5a.9.9,0,0,0,.3-.6,1.3,1.3,0,0,0-.1-.6l-.3-.7c-.1,0-.1,0-.1-.1l1.5.3a.8.8,0,0,1,.8.5l.3.6a.6.6,0,0,1-.1.7l-.5.5-.5.2h-.4m24.1-.6-.5-.6a.4.4,0,0,1-.1-.6l.3-.7a.8.8,0,0,1,.7-.4h.1a.8.8,0,0,1,.8.2l.6.5a.4.4,0,0,1,.1.3v.3l-.4.7c-.1.3-.4.4-.7.5h-.2l-.7-.2m-26.6.2h-.1a1.1,1.1,0,0,1-.8-.5l-.3-.7a.4.4,0,0,1-.1-.3c0-.1.1-.2.2-.3l.5-.5a1.4,1.4,0,0,1,.9-.3,1.3,1.3,0,0,1,.7.5l.4.7c.1.2.1.5-.1.6l-.6.6a.5.5,0,0,1-.4.2h-.3m4-2.4h.3l.7-.4a1.5,1.5,0,0,0,.4,1.1,1.7,1.7,0,0,0-1,.6l-.3-.7a1.3,1.3,0,0,0-.7-.5h.6m18,.6a1.5,1.5,0,0,0,.4-1.1l.6.3a1,1,0,0,0,.9.1,1.7,1.7,0,0,0-.6.6l-.4.7a1.5,1.5,0,0,0-.9-.6m-4-.5a.6.6,0,0,1-.1-.6.5.5,0,0,1,.3-.5.8.8,0,0,1,1.1.2.1.1,0,0,0,.1.1c0,.2.1.3,0,.5a.5.5,0,0,1-.3.5h-.4a1,1,0,0,1-.7-.4m-9.8.2a.8.8,0,0,1-.1-1.1h0l.5-.2a.7.7,0,0,1,.6.1.8.8,0,0,1,.1,1.1.5.5,0,0,1-.5.3H27m-2.2.2a1,1,0,0,1-.5-1.4,1.1,1.1,0,0,1,1.4-.5,1.1,1.1,0,0,1,.5,1.5,1,1,0,0,1-.8.5h-.2l-.4-.2m14-.4a1.1,1.1,0,0,1,.4-1.5,1.3,1.3,0,0,1,1.5.5,1.1,1.1,0,0,1-.5,1.4h-.5a1,1,0,0,1-.9-.6M14,32a2.9,2.9,0,0,1-1.8-1h0a2.4,2.4,0,0,1-.2-1.7,2,2,0,0,1,.7-1.5h0a2.6,2.6,0,0,1,2.1-.5A2.5,2.5,0,0,1,17,30a2.3,2.3,0,0,1-2.1,2H14m33.9-2a2.5,2.5,0,0,1,2.3-2.8,2.9,2.9,0,0,1,2,.5h.1a2.4,2.4,0,0,1,.7,1.5,2.4,2.4,0,0,1-.2,1.7h-.1a2.7,2.7,0,0,1-1.8,1h-.4A2.6,2.6,0,0,1,47.9,30M30.8,27.7h.1a.9.9,0,0,0,.7-.6h.1a.7.7,0,0,0,.6.3h.2a1.2,1.2,0,0,0,.8-.4h.1a.8.8,0,0,0,.5.5H34a1.1,1.1,0,0,0,1-.1h0a.9.9,0,0,0,.3.6h.1a1.2,1.2,0,0,0,1,.2h-.1a1.7,1.7,0,0,0,.1.7.1.1,0,0,1,.1.1,1.1,1.1,0,0,0,.9.5c-.1,0-.1,0-.1.1a1.5,1.5,0,0,0-.1.7h0a1.2,1.2,0,0,0,.7.7h-.1a1.1,1.1,0,0,0-.3.6v.2a.9.9,0,0,0,.4.8h-.1l-.5.5a.1.1,0,0,1-.1.1,1.2,1.2,0,0,0,.2,1h-.1a.9.9,0,0,0-.7.3.1.1,0,0,1-.1.1,1.1,1.1,0,0,0-.1,1h-1a1,1,0,0,0-.4.9H34a2.3,2.3,0,0,0-.7.7h0l-.6-.3h-.2a1,1,0,0,0-.9.4h0a1.2,1.2,0,0,0-.5-.5h-.2a1,1,0,0,0-.9.2h0l-.3-.7h-.2a1,1,0,0,0-.9-.1h0a.8.8,0,0,0-.1-.7c0-.1,0-.1-.1-.2a.9.9,0,0,0-.8-.4h0a.9.9,0,0,0,.1-.7V34a1.3,1.3,0,0,0-.6-.7h0a.9.9,0,0,0,.3-.6.3.3,0,0,0,.1-.2,1.3,1.3,0,0,0-.4-.9h0a.8.8,0,0,0,.5-.5c.1-.1.1-.1.1-.2a1,1,0,0,0-.1-.9h.1l.6-.3c0-.1.1-.1.1-.2a1,1,0,0,0,.2-.9h.1a.9.9,0,0,0,.7-.1.1.1,0,0,0,.1-.1,1,1,0,0,0,.5-.8h.1l.5.2h.2m4.8.4a.9.9,0,0,1-.3-.5.7.7,0,0,1,.2-.6.8.8,0,0,1,1.1-.1h.1l.2.5a.7.7,0,0,1-.2.6l-.5.3h-.1l-.5-.2m-6.9.2-.5-.3c-.2-.4-.2-.9.2-1.1H29l.5.3a.7.7,0,0,1-.2,1.1l-.3.2h-.3m14.4.7,2.4-1.2a1.1,1.1,0,0,0,.8-1v-.6a3.1,3.1,0,0,0,2.6.9,3.2,3.2,0,0,0-1.6,2.2l-.3-.3a1.5,1.5,0,0,0-1.3-.4h-.1l-2.5.4h-.1M16.8,27.1a2.6,2.6,0,0,0,1.7-.9v.6a1.6,1.6,0,0,0,.8,1h.1L21.8,29h0l-2.6-.4a1.4,1.4,0,0,0-1.3.3l-.4.4A3.1,3.1,0,0,0,16,27.1h.8m7.4-.2a1,1,0,0,0-.4-.7,1.1,1.1,0,0,0,.8.1h.8a1.1,1.1,0,0,0,0,1.1,2,2,0,0,0-1.1.3Zm17-.7a1.2,1.2,0,0,0-.5.7v.7a1.9,1.9,0,0,0-1-.3,2,2,0,0,0,0-1.1h1.6m-7.1,1.2a.8.8,0,0,1-.4-.4,1.3,1.3,0,0,1-.1-.6c.2-.4.6-.7,1-.5h.1l.4.4a.8.8,0,0,1-.6,1.1h-.4m-3.9-.1a.8.8,0,0,1-.4-.4.8.8,0,0,1,.5-1h.6a.7.7,0,0,1,.4.5c.2.4-.1.8-.5,1h-.6m-4.2.2a1.1,1.1,0,1,1,1.5,0,.9.9,0,0,1-.6.3h-.2a1.1,1.1,0,0,1-.7-.3m11.5,0a.9.9,0,0,1,0-1.5A1.1,1.1,0,0,1,39,27.5a.9.9,0,0,1-.6.3h-.2a.9.9,0,0,1-.7-.3M42,28.6l-.6-.3a.4.4,0,0,1-.3-.6V27a1.1,1.1,0,0,1,.6-.7l1.4-.7h-.1v.7a1.5,1.5,0,0,0,.1.7c.1.1.2.3.4.4l.7.3h.1l-1.4.7H42m-20,0-1.4-.7h.1l.7-.3a1,1,0,0,0,.5-.4.6.6,0,0,0,0-.6v-.8h0l1.4.7c.3.2.5.4.5.7l.2.7a.6.6,0,0,1-.3.6l-.7.3H22m9.9-1.7a1.4,1.4,0,0,1-.2-.6.8.8,0,0,1,.8-.8h.1l.4.3a.5.5,0,0,1,.3.5.8.8,0,0,1-.7.8h-.1l-.6-.2m12.5.5-.7-.3a.4.4,0,0,1-.2-.6v-.7c0-.3.2-.5.5-.7h.1A.8.8,0,0,1,45,25l.7.4.3.2v1.1a1.3,1.3,0,0,1-.6.7h-.9m-24.7,0h-.1c-.3-.2-.5-.4-.5-.7l-.2-.8a.4.4,0,0,1,.1-.3.2.2,0,0,1,.2-.2l.7-.4a1,1,0,0,1,.9.1,1.1,1.1,0,0,1,.6.7v.7a.6.6,0,0,1-.3.6l-.7.3c0,.1-.1.1-.2.1h-.6m16-1.2a1.1,1.1,0,1,1,1.4-.5,1,1,0,0,1-.8.6h-.6m-7.9-.5a1.1,1.1,0,0,1,.5-1.4,1,1,0,0,1,1.4.5,1,1,0,0,1-.4,1.4h-.5a1.1,1.1,0,0,1-1-.6m-1.5-1.1a1.2,1.2,0,0,0-.1-.8,1,1,0,0,0,.7.4h.7a2,2,0,0,0-.3,1.1,1.1,1.1,0,0,0-1.1,0Zm11-.3H38a1.2,1.2,0,0,0,.8-.4,1.1,1.1,0,0,0-.2.8v.8a1.1,1.1,0,0,0-1.1,0,1.4,1.4,0,0,0-.3-1.1m-7.2.3a1.2,1.2,0,0,1,.9-1.2,1.1,1.1,0,0,1,1.3.9,1,1,0,0,1-.9,1.2h-.2a1.1,1.1,0,0,1-1.1-.9m3.5.9a1.1,1.1,0,1,1,1.2-.9,1.1,1.1,0,0,1-.9.9h-.3m18.1-.6h.1a2.2,2.2,0,0,1,1.4-1.4c1.6-.6,2.2,1.1,2.4,1.6a3,3,0,0,1,.1,1.6,1.7,1.7,0,0,1-1.1,1.1h-.3a2.1,2.1,0,0,1-1.7-.4h-.1a2.9,2.9,0,0,0-2.2-.6,2.8,2.8,0,0,0,1.4-1.8M10.3,27.7c-1.5-.5-1.1-2.2-1-2.7a2.7,2.7,0,0,1,1-1.4,1.4,1.4,0,0,1,1.4-.3,2.5,2.5,0,0,1,1.5,1.5h0a3.4,3.4,0,0,0,1.5,1.8,3.2,3.2,0,0,0-2.3.6h-.1a1.6,1.6,0,0,1-.9.3H10.3m13.4-2.2-1.1-1.1h.9l.5-.2a.9.9,0,0,0,.3-.6v-.8h.1l1,1.1a1.2,1.2,0,0,1,.4.9v.7a.8.8,0,0,1-.5.5h-.9a.9.9,0,0,1-.7-.4m16.7.4h-.8a.7.7,0,0,1-.4-.5v-.7c-.1-.3.1-.6.3-.9l1.1-1.1h0v.8l.3.5a.6.6,0,0,0,.6.3h.7a.1.1,0,0,1,.1.1l-1.1,1-.6.4h-.2M29,23.1c.2-.2.2-.5.1-.9a2.2,2.2,0,0,0,.6.7l.7.3a1.7,1.7,0,0,0-.6,1,1.5,1.5,0,0,0-1.1-.4Zm5.5.1.7-.3a1.1,1.1,0,0,0,.6-.7,1.3,1.3,0,0,0,.1.9l.3.7a1.3,1.3,0,0,0-1,.4,1.4,1.4,0,0,0-.7-1m-13.4-1v.6a1.5,1.5,0,0,0,.4,1.2h.1l1.8,1.9h0L21,24.7a1.2,1.2,0,0,0-1.3-.1l-.5.3a2.9,2.9,0,0,0-.8-2.6l1.3.3a3.3,3.3,0,0,0,1.4-.4m20.4,3.7L43.4,24a1.2,1.2,0,0,0,.5-1.2v-.6a2.9,2.9,0,0,0,2.7.1,3.5,3.5,0,0,0-.8,2.6l-.4-.3a1.4,1.4,0,0,0-1.4.1h0l-2.3,1.2h-.1M31.6,23l.5-.5a2,2,0,0,0,.4-.8,1.1,1.1,0,0,0,.3.8l.6.5a1.6,1.6,0,0,0-.9.7,1.6,1.6,0,0,0-.9-.7M15.1,26.3a2.6,2.6,0,0,1-1.4-1.5h-.1a2.5,2.5,0,0,1,.4-1.6,2.1,2.1,0,0,1,1.1-1.3h.1a3.1,3.1,0,0,1,2.1.2,2.6,2.6,0,0,1,1.2,3.4,2.1,2.1,0,0,1-1.7,1.2h-.5a2.7,2.7,0,0,1-1.2-.3m31.3-.9A2.6,2.6,0,0,1,47.7,22a3,3,0,0,1,2.1-.2h.1A2.1,2.1,0,0,1,51,23.1a2.4,2.4,0,0,1,.3,1.6h0a2.9,2.9,0,0,1-1.4,1.5l-.8.3h-.5a2.4,2.4,0,0,1-2.2-1.2M42.3,24h-.8c-.2-.1-.4-.2-.4-.5v-.7a.8.8,0,0,1,.2-.8h.1a1.3,1.3,0,0,1,.8-.3h.8l.3.2a.4.4,0,0,1,.1.3v.7a.9.9,0,0,1-.3.9c-.2.1-.4.3-.6.3h-.2m-20.4-.3h-.1a1.6,1.6,0,0,1-.3-.9v-.7c.1-.2.1-.3.2-.3l.3-.2h.7a1.6,1.6,0,0,1,.9.3,1.6,1.6,0,0,1,.3.9v.7a.6.6,0,0,1-.5.5h-.8a.9.9,0,0,1-.7-.3M26.8,22h.3l.4-.5.3-.7h.1l.7,1.4c.1.3.2.7,0,.9l-.3.7a.6.6,0,0,1-.6.3l-.7-.2a.8.8,0,0,1-.7-.5l-.7-1.4h.1l.7.2h.4m9.8,1.6-.3-.7a1,1,0,0,1,.1-.9l.7-1.4h0l.3.7a1.2,1.2,0,0,0,.5.5.6.6,0,0,0,.6,0h.9l-.7,1.4a1,1,0,0,1-.7.5l-.8.2h-.1a.5.5,0,0,1-.5-.3m-6-2.9a.9.9,0,0,0,.6-.3l.5-.5h.1l.2,1.5a.9.9,0,0,1-.2.9l-.6.5a.2.2,0,0,1-.2.2h-.4l-.7-.3a1,1,0,0,1-.4-.8l-.3-1.5h.1l.7.4h.6m3.1,2-.5-.5a1.2,1.2,0,0,1-.3-.9l.3-1.5h.1l.5.5a.5.5,0,0,0,.5.3h.6l.7-.3h.1l-.2,1.5a1.2,1.2,0,0,1-.5.8l-.7.3h-.2a.5.5,0,0,1-.4-.2m4.2-1.5-.4-.7a1.1,1.1,0,0,1,0-.8h.1a.8.8,0,0,1,.7-.5l.7-.2h.4c.1,0,.1.1.2.2l.3.7a1.4,1.4,0,0,1,0,.9,1.9,1.9,0,0,1-.7.6h-.9c-.2,0-.3-.1-.4-.3m-11.4.3h-.7a1.8,1.8,0,0,1-.7-.5h0a1,1,0,0,1-.1-.9l.4-.7a.2.2,0,0,1,.2-.2h.3l.8.2c.3,0,.5.2.7.5s.2.7,0,.9l-.3.7c-.1.2-.2.3-.4.3h-.2m-4.2-3.1a2.9,2.9,0,0,0,2.6.8l-.3.5a1.5,1.5,0,0,0,.1,1.3h0l1.2,2.3h0L24,21.5a1.4,1.4,0,0,0-1.2-.4h-.6a2.9,2.9,0,0,0,.1-2.7m18.8.8a3,3,0,0,0,1.6-.8,3.2,3.2,0,0,0,0,2.7h-.5a1.4,1.4,0,0,0-1.2.4.1.1,0,0,0-.1.1l-1.8,1.8h0L40.3,21a1.5,1.5,0,0,0,0-1.3l-.2-.5h1m-7,.9-.5-.6a.8.8,0,0,1-.3-.7h.1a1,1,0,0,1,.4-.8l.7-.3h.4a.2.2,0,0,1,.2.2l.6.5a1,1,0,0,1,.2.9c-.1.3-.2.6-.5.7l-.7.4a.1.1,0,0,0-.1.1h-.1a.5.5,0,0,1-.4-.2m-3.9.1-.7-.4a.7.7,0,0,1-.4-.6h0a.9.9,0,0,1,.2-.9l.5-.5.3-.2h.3l.7.3a1.4,1.4,0,0,1,.5.8,1,1,0,0,1-.2.9l-.6.5-.3.2h-.3m18.3-.9h0a2.1,2.1,0,0,1,.9-1.8c1.3-1,2.4.4,2.8.8a5.2,5.2,0,0,1,.6,1.6,1.9,1.9,0,0,1-.7,1.3,2.6,2.6,0,0,1-2.1.3h-.1a3.1,3.1,0,0,0-2.3.2,3.1,3.1,0,0,0,.9-2.2M12.9,21.1c-1.3-1-.4-2.5-.1-2.9a2.7,2.7,0,0,1,1.3-1.1,1.7,1.7,0,0,1,1.5.3,2.4,2.4,0,0,1,.9,1.8h0a3.5,3.5,0,0,0,.8,2.2,3,3,0,0,0-2.3-.2h-.8a3.3,3.3,0,0,1-1.3-.4m4.9.2a3.2,3.2,0,0,1-.8-2h0a2.1,2.1,0,0,1,.8-1.4,2.1,2.1,0,0,1,1.5-.8h0a3,3,0,0,1,2,.8,2.5,2.5,0,0,1,.1,3.6,2.1,2.1,0,0,1-1.7.7,3.1,3.1,0,0,1-1.9-.8m25.7.1a2.6,2.6,0,0,1,.2-3.6,2.7,2.7,0,0,1,1.9-.8h.1a1.7,1.7,0,0,1,1.4.8c.5.5.9.9.9,1.5h0a2.7,2.7,0,0,1-.9,2,2.1,2.1,0,0,1-1.5.7h-.4a2.3,2.3,0,0,1-1.7-.7M29,21.8l-1.2-2.4a1.6,1.6,0,0,0-1-.8h-.6a2.9,2.9,0,0,0,.9-2.5,3.1,3.1,0,0,0,2.2,1.5l-.3.4a1.5,1.5,0,0,0-.4,1.3h0l.4,2.6h0m6.9,0,.5-2.6a1.8,1.8,0,0,0-.4-1.3l-.4-.4h.1A2.7,2.7,0,0,0,37.8,16a3.2,3.2,0,0,0,.9,2.5h-.5a1.6,1.6,0,0,0-1,.8h-.1l-1.2,2.3h0m-3.4-.5-.4-2.7a1.5,1.5,0,0,0-.8-1.1l-.5-.2a3,3,0,0,0,1.7-2.2,3.1,3.1,0,0,0,1.6,2.2l-.5.2a1.8,1.8,0,0,0-.7,1.1h0l-.4,2.5h0M22,17.3a3.1,3.1,0,0,1-.2-2.1h0A2.1,2.1,0,0,1,23.1,14a1.9,1.9,0,0,1,1.6-.3h.1a2.6,2.6,0,0,1,1.5,1.4,2.4,2.4,0,0,1-.9,3.4,2.3,2.3,0,0,1-1.1.3A2.8,2.8,0,0,1,22,17.3m18.3-3.7h0a2.5,2.5,0,0,1,1.6.4,2.2,2.2,0,0,1,1.2,1.1h.1a3.1,3.1,0,0,1-.2,2.1,2.6,2.6,0,0,1-3.4,1.2,2.5,2.5,0,0,1-1-3.4,2.7,2.7,0,0,1,1.6-1.4h.1ZM43.6,15h0a2.4,2.4,0,0,1,.3-2c1-1.3,2.4-.4,2.9-.1a2.4,2.4,0,0,1,1,1.3,1.6,1.6,0,0,1-.2,1.5,2.6,2.6,0,0,1-1.9.9h-.1a2.9,2.9,0,0,0-2.1.9,3.3,3.3,0,0,0,.1-2.4M19.2,16.5a2.4,2.4,0,0,1-1.8-.9c-1-1.4.4-2.5.8-2.8a2.7,2.7,0,0,1,1.6-.6,1.6,1.6,0,0,1,1.3.7,2.4,2.4,0,0,1,.3,2h-.1a3.3,3.3,0,0,0,.2,2.4,3.1,3.1,0,0,0-2.2-.9h-.1m8-1.7a3,3,0,0,1,.5-2.1h0a2,2,0,0,1,1.5-.7,2.4,2.4,0,0,1,1.7.2H31A2.9,2.9,0,0,1,32,14a2.4,2.4,0,0,1-2,3h-.3a2.6,2.6,0,0,1-2.5-2.2m6.9-2.6h0a2.1,2.1,0,0,1,1.6-.2c.7.1,1.2.2,1.5.7h.1a3,3,0,0,1,.5,2.1A2.6,2.6,0,0,1,34.9,17a2.6,2.6,0,0,1-2-3A2.7,2.7,0,0,1,34,12.2h.1Zm3.6.2h-.1a2.4,2.4,0,0,1-.3-2c.5-1.5,2.2-1.1,2.7-1a3,3,0,0,1,1.4,1,1.4,1.4,0,0,1,.2,1.4,2.3,2.3,0,0,1-1.5,1.5H40a3.5,3.5,0,0,0-1.7,1.5,4.6,4.6,0,0,0-.6-2.3m-12.8.8h-.1a2.3,2.3,0,0,1-1.4-1.5c-.6-1.5,1.1-2.2,1.6-2.4a2.2,2.2,0,0,1,1.6,0,1.6,1.6,0,0,1,1.1,1,2.3,2.3,0,0,1-.4,2.1h0a3.2,3.2,0,0,0-.6,2.3,3.4,3.4,0,0,0-1.8-1.5m6.3-1.4h-.1a2.1,2.1,0,0,1-.9-1.8c0-1.6,1.7-1.7,2.3-1.7a2.7,2.7,0,0,1,1.6.4,1.5,1.5,0,0,1,.6,1.3,2.5,2.5,0,0,1-.9,1.9h-.1a3.2,3.2,0,0,0-1.2,2,3.4,3.4,0,0,0-1.3-2m1.3-4.1h-.7a2.2,2.2,0,0,0-2.1,2.2,2.5,2.5,0,0,0,.5,1.5H29.1l-.9.2a2.6,2.6,0,0,0-.1-1.5,2,2,0,0,0-1.3-1.4,2.8,2.8,0,0,0-2,.1c-1.6.5-2.3,1.7-1.9,3a3.8,3.8,0,0,0,.9,1.3l-1,.4-.8.5a3.8,3.8,0,0,0-.5-1.5,2.3,2.3,0,0,0-1.8-.9,3.7,3.7,0,0,0-1.8.7c-1.4,1-1.7,2.3-.9,3.4a2.3,2.3,0,0,0,1.2,1,2.3,2.3,0,0,0-.7.7,2.3,2.3,0,0,0-.7.7,2.3,2.3,0,0,0-1-1.2,1.7,1.7,0,0,0-1.8-.3,3,3,0,0,0-1.6,1.2c-1,1.4-.9,2.7.2,3.5a3.2,3.2,0,0,0,1.5.6l-.6.8-.3,1a2.8,2.8,0,0,0-1.3-.9,2.1,2.1,0,0,0-1.9.3,2.7,2.7,0,0,0-1.1,1.6c-.5,1.6,0,2.9,1.3,3.3a2.6,2.6,0,0,0,1.5.1,3,3,0,0,0-.2,1,3.1,3.1,0,0,0-.1,1,2.5,2.5,0,0,0-1.5-.5,2,2,0,0,0-1.7.9,2.9,2.9,0,0,0-.5,1.9c0,1.7.8,2.7,2.2,2.7a2.4,2.4,0,0,0,1.5-.4,3.4,3.4,0,0,0,.1,1,3.6,3.6,0,0,0,.2,1,2.6,2.6,0,0,0-1.5,0,2,2,0,0,0-1.4,1.4,2.5,2.5,0,0,0,.1,1.9c.5,1.7,1.7,2.4,3,2a3.8,3.8,0,0,0,1.3-.9,3.6,3.6,0,0,0,.4.9,4.1,4.1,0,0,0,.5.9,2.7,2.7,0,0,0-1.5.5,2,2,0,0,0-.9,1.7,4,4,0,0,0,.7,1.9c1,1.3,2.3,1.7,3.5.9a3.8,3.8,0,0,0,.9-1.3,2.7,2.7,0,0,0,.7.8c.2.2.4.5.7.6a2.9,2.9,0,0,0-1.2,1,1.9,1.9,0,0,0-.3,1.9,2.5,2.5,0,0,0,1.2,1.5c1.4,1,2.7,1,3.6-.2a3.4,3.4,0,0,0,.5-1.4l.8.5,1,.4a2.4,2.4,0,0,0-.9,1.3,2.1,2.1,0,0,0,.3,1.9,3.3,3.3,0,0,0,1.6,1.1c1.6.5,2.9,0,3.3-1.3a2.9,2.9,0,0,0,.1-1.6l1,.3a3.3,3.3,0,0,0,1,0,3,3,0,0,0-.5,1.5,2,2,0,0,0,.9,1.8,3.6,3.6,0,0,0,1.9.5h0c1.7,0,2.7-.9,2.7-2.3a2.8,2.8,0,0,0-.4-1.5,3.4,3.4,0,0,0,1,0l1-.3a2.9,2.9,0,0,0,0,1.6,2,2,0,0,0,1.4,1.4,4.2,4.2,0,0,0,1.9-.1c1.7-.6,2.4-1.7,2-3a3,3,0,0,0-.9-1.3l.9-.4.9-.5a2.4,2.4,0,0,0,.5,1.4,2,2,0,0,0,1.7.9,3.2,3.2,0,0,0,1.9-.7c1.3-1,1.7-2.3.9-3.4a4.1,4.1,0,0,0-1.3-1,3.5,3.5,0,0,0,1.4-1.4,4.1,4.1,0,0,0,1,1.3,2.2,2.2,0,0,0,1.9.3,2.9,2.9,0,0,0,1.5-1.2c1-1.4,1-2.8-.2-3.6a2.4,2.4,0,0,0-1.4-.5,4.1,4.1,0,0,0,.5-.9,3.6,3.6,0,0,0,.4-.9,3,3,0,0,0,1.3.9,2.1,2.1,0,0,0,1.9-.3,3.6,3.6,0,0,0,1.1-1.7c.5-1.6,0-2.8-1.3-3.3a2.9,2.9,0,0,0-1.6,0l.3-1a3.4,3.4,0,0,0,0-1,2.8,2.8,0,0,0,1.5.4,2.2,2.2,0,0,0,1.8-.8,3.8,3.8,0,0,0,.5-1.9,1.5,1.5,0,0,0-.1-.7h0A2.2,2.2,0,0,0,55,29.7a3,3,0,0,0-1.5.5,4.1,4.1,0,0,0,0-1.1l-.3-.9a2.9,2.9,0,0,0,1.6-.1,2,2,0,0,0,1.4-1.3,4.6,4.6,0,0,0-.1-2c-.6-1.6-1.7-2.3-3-1.9a3,3,0,0,0-1.3.9,3,3,0,0,0-.4-1,2.2,2.2,0,0,0-.5-.8,2.5,2.5,0,0,0,1.4-.6,2,2,0,0,0,.9-1.7,2.9,2.9,0,0,0-.7-1.8c-1-1.4-2.3-1.7-3.4-.9a2.9,2.9,0,0,0-1,1.2c-.1-.3-.4-.5-.6-.7a2.7,2.7,0,0,0-.8-.7,3.1,3.1,0,0,0,1.3-1,1.9,1.9,0,0,0,.3-1.8,3.6,3.6,0,0,0-1.2-1.6c-1.4-1-2.8-.9-3.6.2a3,3,0,0,0-.5,1.5l-.9-.6-.9-.3a3.8,3.8,0,0,0,.9-1.3,2.1,2.1,0,0,0-.3-1.9,3,3,0,0,0-1.7-1.1c-1.6-.5-2.8,0-3.3,1.3a2.6,2.6,0,0,0,0,1.5l-1-.2h-1a2.4,2.4,0,0,0,.4-1.5,2.1,2.1,0,0,0-.8-1.7,3,3,0,0,0-1.9-.5Z"/>
          <g class="cls-1">
            <rect x="4.1" y="4.1" width="56.8" height="56.77" transform="translate(-4.7 5.5) rotate(-9)"/>
          </g>
        </g>
        <polygon points="52.3 11.7 51.5 11.7 51.5 11.4 53.3 11.4 53.2 11.7 52.5 11.7 52.5 13.5 52.3 13.5 52.3 11.7"/>
        <polygon points="54.5 13 53.8 11.9 53.8 13.5 53.6 13.5 53.6 11.4 53.8 11.4 54.6 12.7 55.5 11.4 55.7 11.4 55.7 13.5 55.4 13.5 55.4 11.9 54.7 13 54.5 13"/>
      </g>
    </g>
  </g>
</svg>
