<svg xmlns="http://www.w3.org/2000/svg" width="152" height="32.9" viewBox="0 0 152 32.9">
  <title>PWYMpR</title>
  <g id="Layer_2" data-name="Layer 2">
    <g id="Layer_1-2" data-name="Layer 1">
      <g id="PWYMpR">
        <g>
          <path d="M0,16.6c.1.1.2.1.2.2S.1,17,0,17Z"/>
          <path d="M15.9,17.3c0,.1-.1.2-.1.3V32.3a.3.3,0,0,1,.1.2H1c-.6,0-.5,0-.5-.6V17.8a.7.7,0,0,0-.1-.5c0-.1.1-.1,0-.1h15A.5.5,0,0,1,15.9,17.3Z"/>
          <path d="M32.8.6V15.4c0,.2-.2.1-.4.1h-15V.6c0-.5,0-.5.5-.5H32.3C32.8.1,32.8.1,32.8.6Z"/>
          <path d="M32.8,17.3V32.5H17.7c-.2-.1-.3-.1-.3-.4v-15H32.3C32.5,17.2,32.7,17.1,32.8,17.3Z"/>
          <path d="M15.7,15.6H.4A1.1,1.1,0,0,0,.5,15V.2H15.4c.4,0,.4,0,.4.4V15.1C15.8,15.3,15.9,15.5,15.7,15.6Z"/>
          <path d="M42.5,6.8V6.6h4.3a.5.5,0,0,1,.5.3l1.8,4.7,1.2,3.1L52,18.6a18.4,18.4,0,0,1,.9,2.5H53a5,5,0,0,0,.5-1.3l.9-2.4,1.5-3.7c.2-.5.5-1,.7-1.6h0c.2-.1.2-.4.3-.6s1.1-2.6,1.6-4l.2-.4c.2-.4.2-.4.5-.4h3.9c.4,0,.4,0,.4.4V25.6c0,.5,0,.5-.5.5H60.5c-.4,0-.4,0-.4-.4V11.3c0-.1.1-.2-.1-.2s-.1.1-.1.2-1.4,3.3-2,5l-1.3,3.1c0,.1,0,.1-.1.2v.3l-1.2,2.9-1.2,3c-.1.2-.1.3-.3.3H52c-.2,0-.2-.1-.3-.3s-.9-2.1-1.3-3.2-1.2-2.8-1.7-4.2-1.1-2.6-1.6-3.8l-1-2.5c-.2-.2-.2-.5-.3-.7v-.2c-.1,0-.1.1-.1.2V26.1H42.8c-.1,0-.3,0-.3-.2V6.8Zm3.2,3.9a.6.6,0,0,0-.2-.5v.5a.1.1,0,0,1,.1.1h.1Zm14.6-.4h-.1a.9.9,0,0,0-.1.5V11h.1A1.3,1.3,0,0,0,60.3,10.3Z"/>
          <path d="M152,14.7c-.2.2-.3.1-.4.1H149c-.4,0-.4,0-.4.4v6.1c0,.3.1.7.1,1a1.6,1.6,0,0,0,2,1.4l1.1-.4c.1-.1.1,0,.2.1s-.1,1.4-.1,2.1,0,.4-.4.6h-.6c-.1,0-.2,0-.2.1h-2.3a3.4,3.4,0,0,1-2.9-2.5,11,11,0,0,1-.2-1.8c.1-2.2.1-4.4.1-6.7,0-.1-.1-.3-.1-.4h-4.6c-.2,0-.3.1-.3.2s0,.3,0,.4V25.6c0,.5.1.5-.4.5h-2.5c-.3,0-.3-.1-.3-.3V15.7c0-.2-.1-.5-.1-.7s0-.2-.2-.2h-1.8c-.2,0-.3,0-.3-.2V12.5c0-.4,0-.4.4-.4h1.6c.3,0,.4,0,.4-.3v-2a3.6,3.6,0,0,1,.5-2.1,4.2,4.2,0,0,1,2.7-2.2,7.6,7.6,0,0,1,3-.2h.1c.6.1.6.1.6.7V8c0,.3,0,.3-.3.2a5,5,0,0,0-1.3-.3,1.9,1.9,0,0,0-2,1.7c-.1.8,0,1.5-.1,2.3s.1.2.2.2h4.7a22.6,22.6,0,0,1,.1-2.6c0-.4,0-.4.3-.5l2.4-.8c.5-.2.5-.1.5.4s0,2.4.1,3.6h3.2Z"/>
          <path d="M100.9,11.8a7.5,7.5,0,0,1,3.7.8,5.1,5.1,0,0,1,2.5,2.5,7.8,7.8,0,0,1,.9,4.5,10.1,10.1,0,0,1-.9,3.4,6.9,6.9,0,0,1-2.4,2.4,3.8,3.8,0,0,1-1.3.6l-1.4.3a8.6,8.6,0,0,1-3.2-.1,5.9,5.9,0,0,1-4-2.8,5,5,0,0,1-.9-2.1,12.9,12.9,0,0,1-.1-3.4,5.9,5.9,0,0,1,.5-1.9,5.1,5.1,0,0,1,1.6-2.5,6.1,6.1,0,0,1,2.2-1.3A7.3,7.3,0,0,1,100.9,11.8Zm-3.8,7.3a3.9,3.9,0,0,0,.2,1.5,3.7,3.7,0,0,0,1.5,2.5,4.4,4.4,0,0,0,2.7.5,3,3,0,0,0,2.8-2.3,7.5,7.5,0,0,0,.1-4.2,3.5,3.5,0,0,0-2.9-2.6A3.7,3.7,0,0,0,97.4,17,7.6,7.6,0,0,0,97.1,19.1Z"/>
          <path d="M134.5,18.9a7.8,7.8,0,0,1-.9,4A6.1,6.1,0,0,1,130,26a10,10,0,0,1-4.2.3,6.1,6.1,0,0,1-1.8-.5,6.7,6.7,0,0,1-1.4-.9l-1-1a5.7,5.7,0,0,1-1.1-2.2,10.3,10.3,0,0,1-.2-3.9,5.9,5.9,0,0,1,.5-1.9,6.3,6.3,0,0,1,1.3-2l.9-.9a7.7,7.7,0,0,1,2.5-1,9.7,9.7,0,0,1,3.8,0,5.8,5.8,0,0,1,3.4,1.7,6.2,6.2,0,0,1,1.6,3A16.4,16.4,0,0,1,134.5,18.9Zm-10.9.4a7.8,7.8,0,0,0,.2,1.4,3.7,3.7,0,0,0,1.4,2.3,4,4,0,0,0,1.9.7,3.4,3.4,0,0,0,3.8-2.6,9.2,9.2,0,0,0,.1-3.7,3.4,3.4,0,0,0-3.1-2.9,3.6,3.6,0,0,0-4,2.5A8,8,0,0,0,123.6,19.3Z"/>
          <path d="M109.6,22.5l1.3.7a6,6,0,0,0,3,.6,2.1,2.1,0,0,0,1.1-.4c.3-.3.6-.6.5-1.1a1.1,1.1,0,0,0-.4-.9l-1.4-.8a12.6,12.6,0,0,1-2.6-1.3,3.3,3.3,0,0,1-1.4-1.9,10.9,10.9,0,0,1-.1-1.8,3,3,0,0,1,.8-2,4.8,4.8,0,0,1,2-1.4,7.5,7.5,0,0,1,3.3-.4l1.8.4.4.2c.2,0,.2.1.2.2v2.7H118c-.1.1-.2,0-.3-.1l-.8-.4a5,5,0,0,0-1.3-.3,2.8,2.8,0,0,0-2,.2,1.1,1.1,0,0,0-.7,1.1,1.6,1.6,0,0,0,.8,1.4l1.8.8a7.9,7.9,0,0,1,2.3,1.4,3.5,3.5,0,0,1,1,2,4,4,0,0,1-1.9,4.1,5.3,5.3,0,0,1-2.5.8,8.2,8.2,0,0,1-2.7-.1,6.7,6.7,0,0,1-1.9-.5c-.2,0-.2-.1-.2-.2Z"/>
          <path d="M83,15.6a5.2,5.2,0,0,1-1.3-.6,4.5,4.5,0,0,0-3.4-.3A4,4,0,0,0,76,16.8a5.7,5.7,0,0,0-.1,4.6A3.7,3.7,0,0,0,79,23.6a5.2,5.2,0,0,0,3.6-.9l.3-.2H83v2.6a.5.5,0,0,1-.3.5,7.3,7.3,0,0,1-2.4.7,8.7,8.7,0,0,1-2.8-.1,5.9,5.9,0,0,1-4.2-2.6,6.4,6.4,0,0,1-.9-2.1,10.7,10.7,0,0,1-.3-2.5,16.6,16.6,0,0,1,.3-2.2l.6-1.4.6-1c.2-.2.4-.3.5-.5A6.7,6.7,0,0,1,77.7,12a8.3,8.3,0,0,1,4.7.3c.6.2.6.2.6.8Z"/>
          <path d="M88.8,14.4c.2-.3.3-.7.5-1A3.3,3.3,0,0,1,91.2,12a3.8,3.8,0,0,1,2.1,0c.2.1.3.2.2.4v2.7c0,.3,0,.3-.3.2l-1-.4a2.7,2.7,0,0,0-2.4.7,5.6,5.6,0,0,0-.9,1.7,11,11,0,0,0-.2,1.8c.1,2.1.1,4.2.1,6.3v.4c-.1.2-.1.3-.3.3H85.8a.3.3,0,0,1-.3-.3V12.6c0-.5,0-.5.4-.5h2.5c.3,0,.3,0,.4.3v2Z"/>
          <path d="M66.6,19.1V12.3a.2.2,0,0,1,.2-.2h2.9c.1,0,.2.1.2.3V25.6c0,.5,0,.5-.5.5H67.1c-.5,0-.5,0-.5-.5Z"/>
          <path d="M68.2,10A2.7,2.7,0,0,1,67,9.7a2.4,2.4,0,0,1-.7-1.3,2.2,2.2,0,0,1,.5-1.6,2.1,2.1,0,0,1,2.8-.1,1.9,1.9,0,0,1,.3,2.5A1.7,1.7,0,0,1,68.2,10Z"/>
          <path d="M15.7,15.6c.2-.1.1-.3.1-.5V.6c0-.4,0-.4-.4-.4H.5C.4.1.4,0,.5,0H15.6c.3,0,.3.1.3.3V15.4Z"/>
          <path d="M17.4,17.2v15c0,.3.1.3.3.4H32.8c.1.1.1.1,0,.1l-1.5.2H18c-.2-.1-.3,0-.5,0s-.2-.1-.2-.3V32a5.7,5.7,0,0,0,0-1.3c.1-4.1,0-8.2.1-12.2,0-.4-.1-.7-.1-1S17.3,17.2,17.4,17.2Z"/>
          <path d="M32.8.6c0-.5,0-.5-.5-.5H17.9c-.5,0-.5,0-.5.5V15.5h-.1c.1-.2,0-.4,0-.6.1-4.6.1-9.2,0-13.9,0-.2.1-.4,0-.6a.2.2,0,0,1,0-.3H32.8c.2,0,.3.1.2.4S33,.6,32.8.6Z"/>
          <path d="M42.5,6.8V25.9h-.2V7A.2.2,0,0,1,42.5,6.8Z"/>
          <path d="M15.9,17.3a.5.5,0,0,0-.5-.1H.5c0-.1,0-.2.1-.2H15c.2,0,.5.1.7,0S15.9,17,15.9,17.3Z"/>
          <path d="M32.8,17.3c-.1-.2-.3-.1-.5-.1H17.4l.2-.2h15C32.7,17,32.9,17,32.8,17.3Z"/>
          <path d="M17.4,15.5h15c.2,0,.4.1.4-.1s.2,0,.1.1a.4.4,0,0,1-.4.2H17.8C17.7,15.7,17.5,15.8,17.4,15.5Z"/>
          <path d="M150.9,26.2h.3c0,.1,0,.2-.1.2S150.9,26.4,150.9,26.2Z"/>
          <path d="M15.2,15.6h.3C15.4,15.6,15.3,15.8,15.2,15.6Z"/>
          <path d="M56.5,19.9v-.3C56.7,19.7,56.7,19.9,56.5,19.9Z"/>
          <path d="M.4,15.5h0Z"/>
          <path d="M60.2,12.5v0Z"/>
          <path d="M151.9,12.2h-.1C151.9,12,151.9,12.1,151.9,12.2Z"/>
          <path d="M45.6,26.1v-.2C45.8,26.1,45.7,26.1,45.6,26.1Z"/>
          <path d="M150.5,26.3h0Z"/>
          <path d="M15.8,32.6h.1C15.8,32.7,15.8,32.6,15.8,32.6Z"/>
          <path d="M17.3,32.8h0a.1.1,0,0,0-.1-.1Z"/>
          <path d="M145.3,14.8h0Z"/>
          <path d="M.4,17.2c.1,0,0,0,0,.1Z"/>
          <path d="M53,21.2h0Z"/>
          <path d="M148.8,12.1h0Z"/>
          <path d="M145.3,12h0Z"/>
          <path d="M56.6,12h0Z"/>
          <path d="M60.3,10.3a1.3,1.3,0,0,1-.1.6h-.1v-.2a.9.9,0,0,1,.1-.5Z"/>
          <path d="M45.5,10.7v-.5a.6.6,0,0,1,.2.5Z"/>
          <path d="M45.5,10.7h.1A.1.1,0,0,0,45.5,10.7Z"/>
        </g>
      </g>
    </g>
  </g>
</svg>
