<svg xmlns="http://www.w3.org/2000/svg" width="189.8" height="189" viewBox="0 0 189.8 189">
  <defs>
    <style>
      .cls-1 {
        opacity: 0.3;
      }

      .cls-2, .cls-3 {
        fill: #ee741f;
      }

      .cls-3 {
        fill-rule: evenodd;
      }
    </style>
  </defs>
  <title>Asset 11</title>
  <g id="Layer_2" data-name="Layer 2">
    <g id="Layer_1-2" data-name="Layer 1">
      <g>
        <g>
          <g class="cls-1">
            <path class="cls-2" d="M114.2,4.4a1.3,1.3,0,0,1-.9.2A75.3,75.3,0,0,0,102.7,3l-.5-.2a.9.9,0,0,1-.5-.3l-.3-.5c0-.2-.1-.4,0-.6a1.3,1.3,0,0,1,.1-.6.8.8,0,0,1,.4-.4.5.5,0,0,1,.5-.3h.6a98.7,98.7,0,0,1,10.9,1.6,1.4,1.4,0,0,1,.8.5,1.2,1.2,0,0,1,.4.8,1.5,1.5,0,0,1-.2.9A1.1,1.1,0,0,1,114.2,4.4Z"/>
            <path class="cls-2" d="M33.3,26.2a1.1,1.1,0,0,1-1,.1,1.1,1.1,0,0,1-.7-.6,1.7,1.7,0,0,1-.3-1,1.8,1.8,0,0,1,.4-.9A95.5,95.5,0,0,1,77,1.4a1.5,1.5,0,0,1,1.1.2,1.4,1.4,0,0,1,.5,1,1.5,1.5,0,0,1-.2,1.1,1.5,1.5,0,0,1-.9.6A93.4,93.4,0,0,0,33.7,26Z"/>
            <path class="cls-2" d="M7.9,60.3H6.7L6.2,60l-.3-.5a1.9,1.9,0,0,1,0-1.2c.8-1.9,1.6-3.8,2.5-5.6a1.8,1.8,0,0,1,.9-.8,1.4,1.4,0,0,1,1.1.1,1.4,1.4,0,0,1,.8.9,1.4,1.4,0,0,1-.1,1.1c-.8,1.8-1.7,3.6-2.4,5.4l-.3.6Z"/>
            <path class="cls-2" d="M16.1,145.1h-1a1.5,1.5,0,0,1-.9-.6,99.3,99.3,0,0,1-5.7-10.7,107.3,107.3,0,0,1-4.2-11.2A93.5,93.5,0,0,1,.4,86.2c0-.2.1-.4.1-.6l.4-.4.5-.3H2l.6.2a.8.8,0,0,1,.4.4.5.5,0,0,1,.3.5,1.3,1.3,0,0,1,.1.6,91.3,91.3,0,0,0,3.7,35.2,111.2,111.2,0,0,0,4.2,10.9,85,85,0,0,0,5.5,10.3A2.3,2.3,0,0,1,17,144a1.6,1.6,0,0,1-.7.9Z"/>
            <path class="cls-2" d="M86.3,188.9h-.7a104.9,104.9,0,0,1-12.5-2c-.2-.1-.4-.1-.6-.3l-.4-.4c-.1-.2-.2-.3-.2-.5v-.6c.1-.2.1-.4.3-.6l.4-.4.6-.2h.6a69.5,69.5,0,0,0,12.1,2l.5.2.5.4a.8.8,0,0,1,.2.5,1.3,1.3,0,0,1,.1.6,1.1,1.1,0,0,1-.3.7A1,1,0,0,1,86.3,188.9Z"/>
            <path class="cls-2" d="M134.2,180.9a96.5,96.5,0,0,1-24,7.3,1.4,1.4,0,0,1-1.2-.3,1.7,1.7,0,0,1-.6-1,2,2,0,0,1,.3-1.1,1.7,1.7,0,0,1,1-.6A93.3,93.3,0,0,0,150,168.1l.5-.3c.2,0,.4-.1.6,0l.6.2a.8.8,0,0,1,.4.4.5.5,0,0,1,.3.5.6.6,0,0,1,0,.6,1.4,1.4,0,0,1-.2.6c-.1.2-.3.3-.4.4A94.7,94.7,0,0,1,134.2,180.9Z"/>
            <path class="cls-2" d="M170.9,151.1h-1l-.8-.5a1.7,1.7,0,0,1-.3-1,1.6,1.6,0,0,1,.3-.9c1.5-2.1,3-4.2,4.3-6.4a1.3,1.3,0,0,1,.9-.7,1.4,1.4,0,0,1,1.1.2,1.6,1.6,0,0,1,.7.9,1.4,1.4,0,0,1-.2,1.1,70.1,70.1,0,0,1-4.4,6.7Z"/>
            <path class="cls-2" d="M184.5,124.2a1.4,1.4,0,0,1-1.1.1l-.5-.3-.4-.5a.7.7,0,0,1-.1-.5v-.6a90.8,90.8,0,0,0,2.7-45.1v-.6c.1-.2.1-.4.2-.5a1.2,1.2,0,0,1,.5-.5l.5-.2h.6a.9.9,0,0,1,.6.3c.1.1.3.2.4.4a1.4,1.4,0,0,1,.2.6,95.2,95.2,0,0,1-2.8,46.5l-.3.5A1,1,0,0,1,184.5,124.2Z"/>
            <path class="cls-2" d="M180.5,56l-.5.2h-.6l-.5-.3-.4-.5c-1.1-2.5-2.4-5-3.7-7.4s-2.3-3.9-3.6-5.8A2,2,0,0,1,171,41a1.3,1.3,0,0,1,.7-.9,1.4,1.4,0,0,1,1.1-.2,1.1,1.1,0,0,1,.9.6c1.3,1.9,2.5,3.9,3.7,5.9s2.7,5,3.9,7.6a1.9,1.9,0,0,1,0,1.2c0,.2-.1.3-.3.5Z"/>
          </g>
          <path class="cls-3" d="M16.5,94.9a78.4,78.4,0,1,1,78.4,78.4A78.3,78.3,0,0,1,16.5,94.9ZM94.9,19.1a75.9,75.9,0,1,0,75.8,75.8A75.8,75.8,0,0,0,94.9,19.1Z"/>
        </g>
        <path class="cls-2" d="M85.6,112.3l35.9-30.4-4.4-5.2L81.2,107.2ZM68,97.9,80.9,112l5-4.6L73,93.3Zm53.5-16a3.4,3.4,0,1,0-4.4-5.2ZM83.4,109.7,80.9,112a3.3,3.3,0,0,0,4.7.3ZM73,93.3a3.4,3.4,0,0,0-5,4.6Z"/>
      </g>
    </g>
  </g>
</svg>
