<svg xmlns="http://www.w3.org/2000/svg" width="52.5" height="52.5" viewBox="0 0 52.5 52.5">
  <defs>
    <style>
      .cls-1 {
        fill: #fff;
        fill-rule: evenodd;
      }
    </style>
  </defs>
  <title>Asset 13</title>
  <g id="Layer_2" data-name="Layer 2">
    <g id="Layer_1-2" data-name="Layer 1">
      <g>
        <path class="cls-1" d="M0,26.2A26.3,26.3,0,1,1,26.2,52.5,26.3,26.3,0,0,1,0,26.2ZM26.2,4.5A21.8,21.8,0,1,0,48,26.2,21.7,21.7,0,0,0,26.2,4.5Z"/>
        <path class="cls-1" d="M0,26.2A2.2,2.2,0,0,1,2.2,24h48a2.3,2.3,0,1,1,0,4.5H2.2A2.2,2.2,0,0,1,0,26.2Z"/>
        <path class="cls-1" d="M26.3,2.2,24.6.7A39.1,39.1,0,0,0,14.4,26.2h0A39.1,39.1,0,0,0,24.6,51.8a2.4,2.4,0,0,0,1.7.7,2.4,2.4,0,0,0,1.6-.7A39.1,39.1,0,0,0,38.1,26.3h0A39.1,39.1,0,0,0,27.9.7Zm-7.4,24a35,35,0,0,0,7.4,20.6,35.6,35.6,0,0,0,7.3-20.6A35.5,35.5,0,0,0,26.3,5.7,34.9,34.9,0,0,0,18.9,26.2Z"/>
      </g>
    </g>
  </g>
</svg>
