<svg xmlns="http://www.w3.org/2000/svg" width="64" height="64" viewBox="0 0 55.4 55.8">
  <defs>
    <style>
      .cls-1 {
        fill: #f3703e;
      }

      .cls-2 {
        fill: #f5b51a;
      }
    </style>
  </defs>
  <title>F5SEVr.tif</title>
  <g id="Layer_2" data-name="Layer 2">
    <g id="Layer_1-2" data-name="Layer 1">
      <g id="F5SEVr.tif">
        <g>
          <path class="cls-1" d="M29.6,28.4c.1,2,0,4.4.1,6.8a27.5,27.5,0,0,0,1.2,5.7,21.5,21.5,0,0,1,.7,6.2v6.4c0,1.5-.7,2.3-2.2,2.3H25.8a2,2,0,0,1-2.1-2.1c0-3.1-.1-6.2.1-9.2a32.3,32.3,0,0,1,1.1-5.4,22,22,0,0,0,.8-6.2V20.2a2,2,0,0,1,1.6-2,2.1,2.1,0,0,1,2.1,1.1,2.3,2.3,0,0,1,.2,1.1Z"/>
          <path class="cls-2" d="M0,20.2A27.6,27.6,0,0,1,7.9.8,2.1,2.1,0,0,1,10.2.1a2.1,2.1,0,0,1,1.3,1.7,2.2,2.2,0,0,1-.8,1.9,21.8,21.8,0,0,0-4.5,6.4A24.1,24.1,0,0,0,4.1,22.8a23.4,23.4,0,0,0,6.7,14A2,2,0,1,1,8,39.7a27,27,0,0,1-7.6-15A22.8,22.8,0,0,1,0,20.2Z"/>
          <path class="cls-2" d="M55.4,19.9a27.8,27.8,0,0,1-6.4,18l-1.6,1.8a2,2,0,0,1-2.9,0,1.9,1.9,0,0,1,.1-2.9,22.2,22.2,0,0,0,4.6-6.7,23.5,23.5,0,0,0,2.1-11.7A23.3,23.3,0,0,0,44.6,3.5,2,2,0,0,1,44.5.6a2,2,0,0,1,2.9.1A28.2,28.2,0,0,1,55,15.4C55.2,16.8,55.3,18.2,55.4,19.9Z"/>
          <path class="cls-2" d="M15.3,5.6a1.9,1.9,0,0,1,1.6,1.2,1.9,1.9,0,0,1-.5,2.3A15.1,15.1,0,0,0,13.1,14c-2.4,6.4-1.4,12.1,3.3,17.2a2,2,0,0,1,.2,2.9,2,2,0,0,1-3.1-.1,19.1,19.1,0,0,1-3.8-5.6,19.6,19.6,0,0,1,4-22.2A2,2,0,0,1,15.3,5.6Z"/>
          <path class="cls-2" d="M47.5,20.2A19.8,19.8,0,0,1,41.8,34a1.9,1.9,0,0,1-2.9.2,2.1,2.1,0,0,1,.1-3,15.5,15.5,0,0,0,4.4-12.1,15.2,15.2,0,0,0-4.3-9.9,2.2,2.2,0,0,1-.8-1.3,2,2,0,0,1,1.1-2.1,2.1,2.1,0,0,1,2.4.5,22.4,22.4,0,0,1,2.7,3.4A19.4,19.4,0,0,1,47.5,20.2Z"/>
          <path class="cls-2" d="M15.8,20.4a12.3,12.3,0,0,1,3.4-8.5,2,2,0,0,1,2.9-.1,1.9,1.9,0,0,1-.1,2.8,8,8,0,0,0,0,11.1,1.9,1.9,0,0,1-1,3.4,1.8,1.8,0,0,1-1.8-.6A11.7,11.7,0,0,1,16,22.4,16.8,16.8,0,0,1,15.8,20.4Z"/>
          <path class="cls-2" d="M39.6,20.2a12.2,12.2,0,0,1-3.4,8.3,1.9,1.9,0,0,1-2.7.2,1.8,1.8,0,0,1-.2-2.9,8.5,8.5,0,0,0,2.2-4.2,7.7,7.7,0,0,0-2-6.8,2.3,2.3,0,0,1-.8-1.7,2,2,0,0,1,3.5-1.2,13.2,13.2,0,0,1,2.9,4.8A14.1,14.1,0,0,1,39.6,20.2Z"/>
        </g>
      </g>
    </g>
  </g>
</svg>
