<svg xmlns="http://www.w3.org/2000/svg" width="53.1" height="44.5" viewBox="0 0 53.1 44.5">
  <defs>
    <style>
      .cls-1 {
        fill: #fff;
        fill-rule: evenodd;
      }
    </style>
  </defs>
  <title>Asset 15</title>
  <g id="Layer_2" data-name="Layer 2">
    <g id="Layer_1-2" data-name="Layer 1">
      <g>
        <path class="cls-1" d="M6.6,11.3a2.2,2.2,0,0,1,2.2,2.2V40H44.1V13.5a2.2,2.2,0,0,1,2.3-2.2,2.2,2.2,0,0,1,2.2,2.2V42.2a2.2,2.2,0,0,1-2.2,2.3H6.6a2.3,2.3,0,0,1-2.3-2.3V13.5A2.2,2.2,0,0,1,6.6,11.3Z"/>
        <path class="cls-1" d="M4.5,4.5V11H48.6V4.5ZM0,2.2A2.2,2.2,0,0,1,2.2,0H50.8a2.2,2.2,0,0,1,2.3,2.2V13.3a2.2,2.2,0,0,1-2.3,2.2H2.2A2.2,2.2,0,0,1,0,13.3Z"/>
        <path class="cls-1" d="M19.9,22.1a2.2,2.2,0,0,1,2.2-2.2H31a2.2,2.2,0,0,1,2.2,2.2A2.2,2.2,0,0,1,31,24.4H22.1A2.2,2.2,0,0,1,19.9,22.1Z"/>
      </g>
    </g>
  </g>
</svg>
