<svg xmlns="http://www.w3.org/2000/svg" width="64" height="64" viewBox="0 0 42.4 51">
  <defs>
    <style>
      .cls-1 {
        fill: #46489d;
      }

      .cls-2 {
        fill: #3a3b8c;
      }

      .cls-3 {
        fill: #f6cb15;
      }

      .cls-4 {
        fill: #36367f;
      }

      .cls-5 {
        fill: #f5cc20;
      }

      .cls-6 {
        fill: #303081;
      }

      .cls-7 {
        fill: #03acd0;
      }

      .cls-8 {
        fill: #0694b4;
      }

      .cls-9 {
        fill: #fcfaf2;
      }

      .cls-10 {
        fill: #addfec;
      }
    </style>
  </defs>
  <title>f8QhYy.tif</title>
  <g id="Layer_2" data-name="Layer 2">
    <g id="Layer_1-2" data-name="Layer 1">
      <g id="f8QhYy.tif">
        <g>
          <path class="cls-1" d="M.4,44.7c-.3.1-.4-.1-.4-.3V14.8c0-.6.1-.6.7-.6H41.8c.3,0,.6,0,.6.4h-.3l-2.3,1.7H28.7c-.3,0-.4.1-.4.5v6.9c0,.3.1.5.4.5A10.9,10.9,0,0,0,27,25.6h-.1c-.2-.2-.3-.1-.5-.1H15.9c-.5,0-.6.1-.6.6v6.6c0,.7,0,.7.6.7l-1.8,1.4H14c-.1-.3-.4-.2-.6-.2H2.9c-.5,0-.5.1-.5.6V42c0,.3,0,.6.4.6h.4c0,.1-.1.2-.2.3L1.2,44.2c-.2.1-.5.2-.5.5S.5,44.6.4,44.7ZM21.2,24.3h5.3c.5,0,.6-.1.6-.6V17c0-.6-.1-.6-.6-.6H15.9c-.5,0-.6,0-.6.6v6.7c0,.6.1.6.6.6Zm-13,9.1h5.4c.4,0,.5,0,.5-.5V26.1c0-.5-.1-.6-.5-.6H2.9c-.4,0-.5.1-.5.5v6.8c0,.6,0,.6.6.6Zm0-17H2.9c-.4,0-.5.1-.5.5v6.9c0,.4.1.5.5.5H13.6c.4,0,.5-.1.5-.5V16.9c0-.5-.1-.5-.6-.5Z"/>
          <path class="cls-2" d="M39.8,16.4l2.3-1.7h.3V44.1c0,.3,0,.5-.3.6s-.1-.1-.2,0h-.1c-.1-.1-.2,0-.3,0H23.1c-.1,0-.3-.1-.4.1v2.3c-.1-.1,0-.2,0-.3a10.8,10.8,0,0,1,0-1.8.3.3,0,0,0-.3-.3H20a.3.3,0,0,0-.3.3v1.1a3.4,3.4,0,0,1,0,1V44.8c-.1-.2-.3-.1-.4-.1H.7c0-.3.3-.4.5-.5L3,42.9c.1-.1.2-.2.2-.3H13.7c.3,0,.4-.2.4-.5V34.8l1.8-1.4H26.6c.4,0,.5-.1.5-.5V26a.6.6,0,0,0-.1-.4,10.9,10.9,0,0,1,1.7-1.3H39.5c.3,0,.5-.1.5-.5v-7C40,16.6,40,16.5,39.8,16.4ZM21.2,34.6H15.9c-.5,0-.6.1-.6.6V42c0,.5.1.6.6.6H26.5c.5,0,.6-.1.6-.6V35.2c0-.5-.1-.6-.6-.6Zm12.9-1.2h5.3c.5,0,.6,0,.6-.5V26c0-.4-.1-.5-.5-.5H28.8c-.4,0-.5.1-.5.5v6.9c0,.5,0,.5.5.5Zm0,1.2H28.8c-.5,0-.5.1-.5.5V42c0,.4.1.6.5.6H39.5c.4,0,.5-.2.5-.6V35.2c0-.5-.1-.6-.6-.6Z"/>
          <path class="cls-3" d="M31.4,14.1H10.5a10,10,0,0,1,5.3-7.6,10.5,10.5,0,0,1,15.5,7A1.3,1.3,0,0,1,31.4,14.1ZM20.7,7.4a10.3,10.3,0,0,0-2.2.4,8.5,8.5,0,0,0-2.8,1.6c-.2.1-.2.3-.1.5a.3.3,0,0,0,.5,0l.3-.3a7.7,7.7,0,0,1,8-.7,7.1,7.1,0,0,1,1.4,1c.2.1.4.2.5,0s.1-.4-.1-.5h-.1A8.3,8.3,0,0,0,20.7,7.4Z"/>
          <path class="cls-1" d="M22.7,47.3v3.4c0,.2,0,.3-.2.3H19.9a.3.3,0,0,1-.3-.3c.1-1.1.1-2.3.1-3.4Z"/>
          <path class="cls-4" d="M22.7,47.3h-3v-.2a3.4,3.4,0,0,0,0-1V45a.3.3,0,0,1,.3-.3h2.4a.3.3,0,0,1,.3.3,10.8,10.8,0,0,0,0,1.8c0,.1-.1.2,0,.3Z"/>
          <path class="cls-5" d="M33.2,12.8c-.3,0-.4-.1-.4-.3s.1-.3.3-.3l2.6-.7.9-.2c.2,0,.3.1.4.3s-.1.3-.2.3Z"/>
          <path class="cls-5" d="M29.9,7.4c-.1-.1-.3-.1-.3-.3a.6.6,0,0,1,.1-.4A15.4,15.4,0,0,0,31.6,5l.7-.7c.2-.1.3-.2.5,0s.1.3,0,.5L30.2,7.2Z"/>
          <path class="cls-5" d="M18.4,3.8c0,.2,0,.4-.2.4s-.3-.1-.4-.3-.5-2-.7-3V.5c-.1-.3,0-.4.2-.5s.4.1.4.4.5,1.8.7,2.7S18.4,3.6,18.4,3.8Z"/>
          <path class="cls-5" d="M25.8.5c-.2.5-.3,1.1-.5,1.7a15.4,15.4,0,0,0-.5,1.7c-.1.2-.2.4-.5.3s-.2-.3-.1-.5.6-2.2,1-3.3.1-.4.4-.3S25.8.2,25.8.5Z"/>
          <path class="cls-5" d="M9.5,12.8l-2.2-.6L6,11.8c-.3-.1-.3-.2-.3-.4s.2-.3.5-.2l3.4,1c.2.1.3.2.2.4S9.7,12.9,9.5,12.8Z"/>
          <path class="cls-5" d="M10.2,4.1h.3a27.3,27.3,0,0,0,2.3,2.5c.1.2.3.4.1.6s-.4,0-.6-.1A27.3,27.3,0,0,0,10,4.7a.4.4,0,0,1-.1-.5C9.9,4.1,10.1,4.1,10.2,4.1Z"/>
          <path class="cls-6" d="M.7,44.7H19.2c.1,0,.3-.1.4.1H.4C.5,44.6.6,44.7.7,44.7Z"/>
          <path class="cls-6" d="M22.7,44.8c.1-.2.3-.1.4-.1H41.5c.1,0,.2-.1.3,0H22.7Z"/>
          <path class="cls-6" d="M41.9,44.7c.1-.1.2-.1.2,0Z"/>
          <path class="cls-7" d="M21.2,24.3H15.9c-.5,0-.6,0-.6-.6V17c0-.6.1-.6.6-.6H26.5c.5,0,.6,0,.6.6v6.7c0,.5-.1.6-.6.6Z"/>
          <path class="cls-7" d="M8.2,33.4H3c-.6,0-.6,0-.6-.6V26c0-.4.1-.5.5-.5H13.6c.4,0,.5.1.5.6v6.8c0,.5-.1.5-.5.5Z"/>
          <path class="cls-7" d="M8.2,16.4h5.3c.5,0,.6,0,.6.5v6.9c0,.4-.1.5-.5.5H2.9c-.4,0-.5-.1-.5-.5V16.9c0-.4.1-.5.5-.5Zm3.4,1.1c0-.1-.1-.2-.1-.3a.4.4,0,0,0-.5.1L6.4,20.6,4.1,22.4a.4.4,0,0,0-.2.5.4.4,0,0,0,.5,0l.7-.5,6.2-4.6C11.4,17.7,11.6,17.6,11.6,17.5Zm.7,1.9-.2-.2c-.1-.1-.3,0-.4.1L7.9,22.1a.4.4,0,0,0-.2.5.3.3,0,0,0,.5,0l3.9-2.9C12.2,19.7,12.3,19.6,12.3,19.4Z"/>
          <path class="cls-7" d="M3.5,42.5H3.1a.2.2,0,0,0-.3,0c-.4,0-.4-.3-.4-.6V35.2c0-.5,0-.6.5-.6H13.4c.2,0,.5-.1.6.2h0L9.5,38.1,5.4,41Z"/>
          <path class="cls-7" d="M16.1,33.4h-.2c-.6,0-.6,0-.6-.7V26.1c0-.5.1-.6.6-.6H26.4c.2,0,.3-.1.5.1l-1,.6-2.6,2-2.8,1.9-3,2.2A7.6,7.6,0,0,0,16.1,33.4Z"/>
          <path class="cls-7" d="M28.8,24.3h-.1c-.3,0-.4-.2-.4-.5V16.9c0-.4.1-.5.4-.5H39.5l-4.4,3.2-5.5,3.9C29.3,23.8,28.9,23.9,28.8,24.3Z"/>
          <path class="cls-8" d="M28.8,24.3c.1-.4.5-.5.8-.7l5.5-3.9,4.4-3.2h.3c.2.1.2.2.2.4v7c0,.4-.2.5-.5.5H28.8Z"/>
          <path class="cls-8" d="M16.1,33.4a7.6,7.6,0,0,1,1.4-1.1l3-2.2,2.8-1.9,2.6-2,1-.6H27a.6.6,0,0,1,.1.4v6.9c0,.4-.1.5-.5.5H16.1Z"/>
          <path class="cls-8" d="M3.5,42.5,5.4,41l4.1-2.9L14,34.9h.1v7.3c0,.3-.1.5-.4.5H3.5Z"/>
          <path class="cls-8" d="M2.8,42.6a.2.2,0,0,1,.3,0Z"/>
          <path class="cls-8" d="M21.2,34.6h5.3c.5,0,.6.1.6.6V42c0,.5-.1.6-.6.6H15.9c-.5,0-.6-.1-.6-.6V35.2c0-.5.1-.6.6-.6Z"/>
          <path class="cls-8" d="M34.1,33.4H28.8c-.5,0-.5,0-.5-.5V26c0-.4.1-.5.5-.5H39.5c.4,0,.5.1.5.5v6.9c0,.5-.1.5-.6.5Z"/>
          <path class="cls-8" d="M34.1,34.6h5.3c.5,0,.6.1.6.6V42c0,.4-.1.6-.5.6H28.8c-.4,0-.5-.2-.5-.6V35.1c0-.4,0-.5.5-.5Z"/>
          <path class="cls-9" d="M20.7,7.4a8.3,8.3,0,0,1,5.4,1.9h.1c.2.1.3.3.1.5s-.3.1-.5,0a7.1,7.1,0,0,0-1.4-1,7.7,7.7,0,0,0-8,.7l-.3.3a.3.3,0,0,1-.5,0c-.1-.2-.1-.4.1-.5a8.5,8.5,0,0,1,2.8-1.6A10.3,10.3,0,0,1,20.7,7.4Z"/>
          <path class="cls-10" d="M11.6,17.5c0,.1-.2.2-.3.3L5.1,22.4l-.7.5a.4.4,0,0,1-.5,0,.4.4,0,0,1,.2-.5l2.3-1.8L11,17.3a.4.4,0,0,1,.5-.1C11.5,17.3,11.6,17.4,11.6,17.5Z"/>
          <path class="cls-10" d="M12.3,19.4c0,.2-.1.3-.2.3L8.2,22.6a.3.3,0,0,1-.5,0,.4.4,0,0,1,.2-.5l3.8-2.8c.1-.1.3-.2.4-.1Z"/>
        </g>
      </g>
    </g>
  </g>
</svg>
